%TF.GenerationSoftware,KiCad,Pcbnew,9.0.1*%
%TF.CreationDate,2025-08-05T14:32:16+03:00*%
%TF.ProjectId,MESHTASTIC NODE,4d455348-5441-4535-9449-43204e4f4445,rev?*%
%TF.SameCoordinates,PX5f5e100PY5f5e100*%
%TF.FileFunction,Copper,L4,Bot*%
%TF.FilePolarity,Positive*%
%FSLAX46Y46*%
G04 Gerber Fmt 4.6, Leading zero omitted, Abs format (unit mm)*
G04 Created by KiCad (PCBNEW 9.0.1) date 2025-08-05 14:32:16*
%MOMM*%
%LPD*%
G01*
G04 APERTURE LIST*
%TA.AperFunction,ComponentPad*%
%ADD10O,2.100000X1.000000*%
%TD*%
%TA.AperFunction,ViaPad*%
%ADD11C,0.550000*%
%TD*%
%TA.AperFunction,ViaPad*%
%ADD12C,0.600000*%
%TD*%
%TA.AperFunction,Conductor*%
%ADD13C,0.200000*%
%TD*%
%TA.AperFunction,Conductor*%
%ADD14C,0.300000*%
%TD*%
%TA.AperFunction,Conductor*%
%ADD15C,0.600000*%
%TD*%
%TA.AperFunction,Conductor*%
%ADD16C,0.900000*%
%TD*%
G04 APERTURE END LIST*
D10*
%TO.P,J1,3,3*%
%TO.N,unconnected-(J1-Pad3)*%
X26930000Y14775000D03*
%TO.P,J1,4,4*%
%TO.N,unconnected-(J1-Pad4)*%
X26930000Y25225000D03*
%TD*%
D11*
%TO.N,GND*%
X26500000Y38500000D03*
X28000000Y38500000D03*
X13000000Y38500000D03*
X15000000Y38500000D03*
X22000000Y4000000D03*
X24000000Y4000000D03*
X18000000Y4000000D03*
X20000000Y4000000D03*
X4000000Y4700000D03*
X6000000Y4700000D03*
X5000000Y3100000D03*
X7000000Y3100000D03*
X3000000Y1400000D03*
X5000000Y1400000D03*
X1500000Y29000000D03*
X1500000Y32000000D03*
X1500000Y34900000D03*
X2200000Y38800000D03*
X4000000Y38800000D03*
X6000000Y35000000D03*
X6000000Y37000000D03*
X28700000Y26400000D03*
X21500000Y16100000D03*
X19500000Y13600000D03*
X19500000Y9800000D03*
X25600000Y5300000D03*
X26500000Y3400000D03*
X28600000Y7600000D03*
X28500000Y3200000D03*
X27500000Y2000000D03*
X26000000Y1400000D03*
X21000000Y1300000D03*
X15500000Y4600000D03*
X15400000Y1400000D03*
X9000000Y1400000D03*
X7000000Y1400000D03*
X1000000Y3100000D03*
X2000000Y8000000D03*
X2000000Y12000000D03*
X4000000Y23000000D03*
X2000000Y26000000D03*
X8000000Y31000000D03*
X10000000Y33000000D03*
X11000000Y34000000D03*
X12000000Y35000000D03*
X13000000Y36000000D03*
X28500000Y35500000D03*
X27000000Y37000000D03*
%TO.N,+3V3*%
X3000000Y3100000D03*
X3000000Y10000000D03*
X2000000Y23000000D03*
X27000000Y34000000D03*
X17700000Y19000000D03*
X28000000Y6000000D03*
X26300000Y7800000D03*
X24500000Y7800000D03*
X23100000Y7900000D03*
X9200000Y10300000D03*
X15800000Y7600000D03*
X8300000Y14900000D03*
X16000000Y37500000D03*
X19500000Y38500000D03*
X14000000Y32000000D03*
X15000000Y30000000D03*
%TO.N,LORA_RST*%
X9800000Y24600000D03*
%TO.N,USER_LED*%
X5000000Y33000000D03*
X11500000Y23400000D03*
%TO.N,GND*%
X21500000Y27800000D03*
X20600000Y27000000D03*
X18000000Y34600000D03*
%TO.N,LORA_SPI_NSS*%
X7150000Y19650000D03*
%TO.N,LORA_DIO1*%
X7800000Y32400000D03*
X7800000Y35200000D03*
%TO.N,SPID*%
X17200000Y33800000D03*
%TO.N,SPICLK*%
X19400000Y33100000D03*
%TO.N,VBUS*%
X23900000Y14500000D03*
X23900000Y13600000D03*
D12*
X22100000Y20000000D03*
X23900000Y21400000D03*
X23900000Y18700000D03*
%TO.N,GND*%
X20600000Y20000000D03*
D11*
X20900000Y22200000D03*
X25000000Y23100000D03*
X25000000Y16900000D03*
X14150000Y3000000D03*
X5950000Y8250000D03*
X13350000Y1550000D03*
X13350000Y4450000D03*
X2850000Y5300000D03*
%TO.N,+3V3*%
X11500000Y9000000D03*
X23200000Y10200000D03*
X5800000Y20800000D03*
X19000000Y21500000D03*
X15300000Y11800000D03*
X13100000Y9000000D03*
X9900000Y9000000D03*
X4800000Y15200000D03*
X3000000Y28500000D03*
X17700000Y16500000D03*
X18000000Y13200000D03*
%TO.N,GND*%
X10350000Y37050000D03*
X11500000Y6350000D03*
X18000000Y15000000D03*
X14700000Y6150000D03*
X12650000Y19650000D03*
X26500000Y31500000D03*
X12850000Y10350000D03*
X4400000Y20600000D03*
X21600000Y11000000D03*
X1750000Y14800000D03*
X28200000Y31500000D03*
X20100000Y2300000D03*
X5950000Y11850000D03*
X3300000Y19200000D03*
X21600000Y9300000D03*
X5100000Y13850000D03*
X11500000Y10150000D03*
X6700000Y13850000D03*
X24100000Y2300000D03*
X19900000Y35100000D03*
X11350000Y18350000D03*
X16400000Y10300000D03*
X16000000Y34200000D03*
X21600000Y13000000D03*
X14150000Y28800000D03*
X28200000Y13100000D03*
X13450000Y6350000D03*
X11350000Y19650000D03*
X24900000Y12000000D03*
X27100000Y12000000D03*
X9900000Y6350000D03*
X20600000Y37600000D03*
X26900000Y10900000D03*
X18900000Y16900000D03*
X23800000Y31100000D03*
X12650000Y18350000D03*
%TO.N,LORA_RST*%
X5800000Y18600000D03*
%TO.N,SPID*%
X20600000Y30400000D03*
%TO.N,SPICLK*%
X21865000Y30400000D03*
%TO.N,LORA_SPI_NSS*%
X9100000Y23600000D03*
%TO.N,LORA_SPI_SCK*%
X13800000Y16350000D03*
X9700000Y26600000D03*
%TO.N,LORA_SPI_MISO*%
X15800000Y14600000D03*
X8200000Y29300000D03*
%TO.N,LORA_SPI_MOSI*%
X8500000Y26500000D03*
X15200000Y15550000D03*
%TD*%
D13*
%TO.N,LORA_SPI_MISO*%
X10900000Y29300000D02*
X8200000Y29300000D01*
X16300000Y15100000D02*
X16300000Y23900000D01*
X15800000Y14600000D02*
X16300000Y15100000D01*
X16300000Y23900000D02*
X10900000Y29300000D01*
%TO.N,LORA_SPI_MOSI*%
X9200000Y27700000D02*
X10800000Y27700000D01*
X10800000Y27700000D02*
X15200000Y23300000D01*
X8500000Y27000000D02*
X9200000Y27700000D01*
X8500000Y26500000D02*
X8500000Y27000000D01*
X15200000Y23300000D02*
X15200000Y15550000D01*
%TO.N,LORA_SPI_SCK*%
X10400000Y26600000D02*
X13800000Y23200000D01*
X9700000Y26600000D02*
X10400000Y26600000D01*
X13800000Y23200000D02*
X13800000Y16350000D01*
D14*
%TO.N,USER_LED*%
X5000000Y28100000D02*
X5000000Y33000000D01*
X8800000Y25400000D02*
X7700000Y25400000D01*
X9000000Y25600000D02*
X8800000Y25400000D01*
X10200000Y25600000D02*
X9000000Y25600000D01*
D13*
X11500000Y24300000D02*
X11500000Y23400000D01*
X10200000Y25600000D02*
X11500000Y24300000D01*
D14*
X7700000Y25400000D02*
X5000000Y28100000D01*
D13*
%TO.N,LORA_RST*%
X7350000Y18500000D02*
X5900000Y18500000D01*
X10200000Y21350000D02*
X7350000Y18500000D01*
X5900000Y18500000D02*
X5800000Y18600000D01*
X10200000Y24200000D02*
X10200000Y21350000D01*
X9800000Y24600000D02*
X10200000Y24200000D01*
%TO.N,LORA_SPI_NSS*%
X9100000Y21600000D02*
X7150000Y19650000D01*
X9100000Y23600000D02*
X9100000Y21600000D01*
%TO.N,LORA_DIO1*%
X7800000Y35200000D02*
X7800000Y32400000D01*
%TO.N,SPICLK*%
X21865000Y30635000D02*
X19400000Y33100000D01*
X21865000Y30400000D02*
X21865000Y30635000D01*
%TO.N,SPID*%
X17200000Y33800000D02*
X20600000Y30400000D01*
D15*
%TO.N,VBUS*%
X22100000Y20000000D02*
X23900000Y20000000D01*
D16*
X23900000Y13600000D02*
X23900000Y21400000D01*
%TD*%
%TA.AperFunction,Conductor*%
%TO.N,+3V3*%
G36*
X27002065Y39699385D02*
G01*
X27298112Y39682759D01*
X27306346Y39681830D01*
X27596603Y39632514D01*
X27604671Y39630673D01*
X27887605Y39549161D01*
X27895418Y39546427D01*
X28167428Y39433756D01*
X28174904Y39430156D01*
X28432594Y39287737D01*
X28439608Y39283329D01*
X28679716Y39112963D01*
X28686203Y39107791D01*
X28905741Y38911600D01*
X28911599Y38905742D01*
X29006053Y38800048D01*
X29107789Y38686205D01*
X29112962Y38679717D01*
X29198143Y38559666D01*
X29234776Y38508036D01*
X29283324Y38439615D01*
X29287740Y38432588D01*
X29430155Y38174905D01*
X29433755Y38167429D01*
X29546422Y37895429D01*
X29549163Y37887596D01*
X29630669Y37604683D01*
X29632515Y37596592D01*
X29681828Y37306353D01*
X29682758Y37298107D01*
X29699384Y37002066D01*
X29699500Y36997917D01*
X29699500Y24574500D01*
X29677826Y24522174D01*
X29625500Y24500500D01*
X27900521Y24500500D01*
X27848195Y24522174D01*
X27826521Y24574500D01*
X27848195Y24626826D01*
X27859409Y24636029D01*
X27863915Y24639041D01*
X27926542Y24680886D01*
X28024114Y24778458D01*
X28100775Y24893189D01*
X28153580Y25020672D01*
X28180500Y25156007D01*
X28180500Y25293993D01*
X28153580Y25429328D01*
X28100775Y25556811D01*
X28024114Y25671542D01*
X27926542Y25769114D01*
X27921962Y25772174D01*
X27811808Y25845777D01*
X27684332Y25898579D01*
X27684322Y25898582D01*
X27593694Y25916609D01*
X27548993Y25925500D01*
X26311007Y25925500D01*
X26272642Y25917869D01*
X26175677Y25898582D01*
X26175667Y25898579D01*
X26048191Y25845777D01*
X25933461Y25769117D01*
X25835883Y25671539D01*
X25759223Y25556809D01*
X25706421Y25429333D01*
X25706418Y25429323D01*
X25679500Y25293992D01*
X25679500Y25156009D01*
X25706418Y25020678D01*
X25706421Y25020668D01*
X25759223Y24893192D01*
X25759224Y24893190D01*
X25759225Y24893189D01*
X25835886Y24778458D01*
X25933458Y24680886D01*
X26048189Y24604225D01*
X26172897Y24552570D01*
X26212946Y24512522D01*
X26212946Y24455885D01*
X26196905Y24431878D01*
X26149541Y24384514D01*
X26109979Y24315991D01*
X26109977Y24315986D01*
X26089500Y24239565D01*
X26089500Y15760436D01*
X26109977Y15684015D01*
X26109979Y15684010D01*
X26149540Y15615489D01*
X26196905Y15568124D01*
X26218579Y15515798D01*
X26196905Y15463472D01*
X26172898Y15447431D01*
X26048189Y15395776D01*
X25933461Y15319117D01*
X25835883Y15221539D01*
X25759223Y15106809D01*
X25706903Y14980495D01*
X25706420Y14979328D01*
X25683202Y14862601D01*
X25679500Y14843992D01*
X25679500Y14706009D01*
X25706418Y14570678D01*
X25706421Y14570668D01*
X25759223Y14443192D01*
X25759224Y14443190D01*
X25759225Y14443189D01*
X25835886Y14328458D01*
X25933458Y14230886D01*
X26048189Y14154225D01*
X26048190Y14154225D01*
X26048191Y14154224D01*
X26175667Y14101422D01*
X26175672Y14101420D01*
X26311007Y14074500D01*
X26311009Y14074500D01*
X27548991Y14074500D01*
X27548993Y14074500D01*
X27684328Y14101420D01*
X27811811Y14154225D01*
X27926542Y14230886D01*
X28024114Y14328458D01*
X28100775Y14443189D01*
X28153580Y14570672D01*
X28180500Y14706007D01*
X28180500Y14843993D01*
X28153580Y14979328D01*
X28153096Y14980496D01*
X28100776Y15106809D01*
X28024116Y15221539D01*
X28024114Y15221542D01*
X27926542Y15319114D01*
X27859409Y15363971D01*
X27827943Y15411064D01*
X27838992Y15466612D01*
X27886085Y15498078D01*
X27900521Y15499500D01*
X29625500Y15499500D01*
X29677826Y15477826D01*
X29699500Y15425500D01*
X29699500Y3002084D01*
X29699384Y2997935D01*
X29682758Y2701894D01*
X29681828Y2693648D01*
X29632515Y2403409D01*
X29630669Y2395318D01*
X29549163Y2112405D01*
X29546422Y2104572D01*
X29433755Y1832572D01*
X29430155Y1825096D01*
X29287740Y1567413D01*
X29283324Y1560386D01*
X29112962Y1320284D01*
X29107789Y1313796D01*
X28911604Y1094264D01*
X28905736Y1088396D01*
X28686204Y892211D01*
X28679716Y887038D01*
X28439614Y716676D01*
X28432587Y712260D01*
X28174904Y569845D01*
X28167428Y566245D01*
X27895428Y453578D01*
X27887595Y450837D01*
X27604682Y369331D01*
X27596591Y367485D01*
X27306352Y318172D01*
X27298106Y317242D01*
X27002066Y300616D01*
X26997917Y300500D01*
X3002083Y300500D01*
X2997934Y300616D01*
X2701893Y317242D01*
X2693647Y318172D01*
X2403408Y367485D01*
X2395317Y369331D01*
X2112404Y450837D01*
X2104571Y453578D01*
X1832571Y566245D01*
X1825095Y569845D01*
X1567412Y712260D01*
X1560385Y716676D01*
X1320283Y887038D01*
X1313795Y892211D01*
X1241402Y956905D01*
X1094258Y1088401D01*
X1088400Y1094259D01*
X892209Y1313797D01*
X887037Y1320284D01*
X874893Y1337399D01*
X786055Y1462604D01*
X2524500Y1462604D01*
X2524500Y1337397D01*
X2556904Y1216465D01*
X2614639Y1116465D01*
X2619505Y1108036D01*
X2708036Y1019505D01*
X2816464Y956905D01*
X2816463Y956905D01*
X2886286Y938196D01*
X2937396Y924501D01*
X2937397Y924500D01*
X2937399Y924500D01*
X3062603Y924500D01*
X3062603Y924501D01*
X3183536Y956905D01*
X3291964Y1019505D01*
X3380495Y1108036D01*
X3443095Y1216464D01*
X3475499Y1337397D01*
X3475500Y1337397D01*
X3475500Y1462603D01*
X3475499Y1462604D01*
X4524500Y1462604D01*
X4524500Y1337397D01*
X4556904Y1216465D01*
X4614639Y1116465D01*
X4619505Y1108036D01*
X4708036Y1019505D01*
X4816464Y956905D01*
X4816463Y956905D01*
X4886286Y938196D01*
X4937396Y924501D01*
X4937397Y924500D01*
X4937399Y924500D01*
X5062603Y924500D01*
X5062603Y924501D01*
X5183536Y956905D01*
X5291964Y1019505D01*
X5380495Y1108036D01*
X5443095Y1216464D01*
X5475499Y1337397D01*
X5475500Y1337397D01*
X5475500Y1462603D01*
X5475499Y1462604D01*
X6524500Y1462604D01*
X6524500Y1337397D01*
X6556904Y1216465D01*
X6614639Y1116465D01*
X6619505Y1108036D01*
X6708036Y1019505D01*
X6816464Y956905D01*
X6816463Y956905D01*
X6886286Y938196D01*
X6937396Y924501D01*
X6937397Y924500D01*
X6937399Y924500D01*
X7062603Y924500D01*
X7062603Y924501D01*
X7183536Y956905D01*
X7291964Y1019505D01*
X7380495Y1108036D01*
X7443095Y1216464D01*
X7475499Y1337397D01*
X7475500Y1337397D01*
X7475500Y1462603D01*
X7475499Y1462604D01*
X8524500Y1462604D01*
X8524500Y1337397D01*
X8556904Y1216465D01*
X8614639Y1116465D01*
X8619505Y1108036D01*
X8708036Y1019505D01*
X8816464Y956905D01*
X8816463Y956905D01*
X8886286Y938196D01*
X8937396Y924501D01*
X8937397Y924500D01*
X8937399Y924500D01*
X9062603Y924500D01*
X9062603Y924501D01*
X9183536Y956905D01*
X9291964Y1019505D01*
X9380495Y1108036D01*
X9443095Y1216464D01*
X9475499Y1337397D01*
X9475500Y1337397D01*
X9475500Y1462603D01*
X9475499Y1462604D01*
X9469071Y1486595D01*
X9443095Y1583536D01*
X9426313Y1612604D01*
X12874500Y1612604D01*
X12874500Y1487397D01*
X12906904Y1366465D01*
X12935527Y1316889D01*
X12969505Y1258036D01*
X13058036Y1169505D01*
X13166464Y1106905D01*
X13166463Y1106905D01*
X13213640Y1094264D01*
X13287396Y1074501D01*
X13287397Y1074500D01*
X13287399Y1074500D01*
X13412603Y1074500D01*
X13412603Y1074501D01*
X13533536Y1106905D01*
X13641964Y1169505D01*
X13730495Y1258036D01*
X13793095Y1366464D01*
X13815023Y1448298D01*
X13818856Y1462604D01*
X14924500Y1462604D01*
X14924500Y1337397D01*
X14956904Y1216465D01*
X15014639Y1116465D01*
X15019505Y1108036D01*
X15108036Y1019505D01*
X15216464Y956905D01*
X15216463Y956905D01*
X15286286Y938196D01*
X15337396Y924501D01*
X15337397Y924500D01*
X15337399Y924500D01*
X15462603Y924500D01*
X15462603Y924501D01*
X15583536Y956905D01*
X15691964Y1019505D01*
X15780495Y1108036D01*
X15843095Y1216464D01*
X15875499Y1337397D01*
X15875500Y1337397D01*
X15875500Y1362604D01*
X20524500Y1362604D01*
X20524500Y1237397D01*
X20556904Y1116465D01*
X20581133Y1074500D01*
X20619505Y1008036D01*
X20708036Y919505D01*
X20816464Y856905D01*
X20816463Y856905D01*
X20886286Y838196D01*
X20937396Y824501D01*
X20937397Y824500D01*
X20937399Y824500D01*
X21062603Y824500D01*
X21062603Y824501D01*
X21183536Y856905D01*
X21291964Y919505D01*
X21380495Y1008036D01*
X21443095Y1116464D01*
X21475499Y1237397D01*
X21475500Y1237397D01*
X21475500Y1362603D01*
X21475499Y1362604D01*
X21474464Y1366465D01*
X21471160Y1378796D01*
X21452538Y1448298D01*
X21448704Y1462604D01*
X25524500Y1462604D01*
X25524500Y1337397D01*
X25556904Y1216465D01*
X25614639Y1116465D01*
X25619505Y1108036D01*
X25708036Y1019505D01*
X25816464Y956905D01*
X25816463Y956905D01*
X25886286Y938196D01*
X25937396Y924501D01*
X25937397Y924500D01*
X25937399Y924500D01*
X26062603Y924500D01*
X26062603Y924501D01*
X26183536Y956905D01*
X26291964Y1019505D01*
X26380495Y1108036D01*
X26443095Y1216464D01*
X26475499Y1337397D01*
X26475500Y1337397D01*
X26475500Y1462603D01*
X26475499Y1462604D01*
X26469069Y1486599D01*
X26443095Y1583536D01*
X26380495Y1691964D01*
X26291964Y1780495D01*
X26291963Y1780496D01*
X26183534Y1843096D01*
X26183536Y1843096D01*
X26062603Y1875500D01*
X26062601Y1875500D01*
X25937399Y1875500D01*
X25937397Y1875500D01*
X25816464Y1843096D01*
X25708036Y1780496D01*
X25619504Y1691964D01*
X25556904Y1583536D01*
X25524500Y1462604D01*
X21448704Y1462604D01*
X21443095Y1483537D01*
X21380495Y1591964D01*
X21291963Y1680496D01*
X21183534Y1743096D01*
X21183536Y1743096D01*
X21062603Y1775500D01*
X21062601Y1775500D01*
X20937399Y1775500D01*
X20937397Y1775500D01*
X20816464Y1743096D01*
X20708036Y1680496D01*
X20619504Y1591964D01*
X20556904Y1483536D01*
X20524500Y1362604D01*
X15875500Y1362604D01*
X15875500Y1462603D01*
X15875499Y1462604D01*
X15869069Y1486599D01*
X15843095Y1583536D01*
X15780495Y1691964D01*
X15691964Y1780495D01*
X15691963Y1780496D01*
X15583534Y1843096D01*
X15583536Y1843096D01*
X15462603Y1875500D01*
X15462601Y1875500D01*
X15337399Y1875500D01*
X15337397Y1875500D01*
X15216464Y1843096D01*
X15108036Y1780496D01*
X15019504Y1691964D01*
X14956904Y1583536D01*
X14924500Y1462604D01*
X13818856Y1462604D01*
X13825285Y1486595D01*
X13825286Y1486599D01*
X13825500Y1487398D01*
X13825500Y1612603D01*
X13825499Y1612604D01*
X13807307Y1680495D01*
X13793095Y1733536D01*
X13730495Y1841964D01*
X13641964Y1930495D01*
X13641963Y1930496D01*
X13533534Y1993096D01*
X13533536Y1993096D01*
X13412603Y2025500D01*
X13412601Y2025500D01*
X13287399Y2025500D01*
X13287397Y2025500D01*
X13166464Y1993096D01*
X13058036Y1930496D01*
X12969504Y1841964D01*
X12906904Y1733536D01*
X12874500Y1612604D01*
X9426313Y1612604D01*
X9380495Y1691964D01*
X9291964Y1780495D01*
X9291963Y1780496D01*
X9183534Y1843096D01*
X9183536Y1843096D01*
X9062603Y1875500D01*
X9062601Y1875500D01*
X8937399Y1875500D01*
X8937397Y1875500D01*
X8816464Y1843096D01*
X8708036Y1780496D01*
X8619504Y1691964D01*
X8556904Y1583536D01*
X8524500Y1462604D01*
X7475499Y1462604D01*
X7469069Y1486599D01*
X7443095Y1583536D01*
X7380495Y1691964D01*
X7291964Y1780495D01*
X7291963Y1780496D01*
X7183534Y1843096D01*
X7183536Y1843096D01*
X7062603Y1875500D01*
X7062601Y1875500D01*
X6937399Y1875500D01*
X6937397Y1875500D01*
X6816464Y1843096D01*
X6708036Y1780496D01*
X6619504Y1691964D01*
X6556904Y1583536D01*
X6524500Y1462604D01*
X5475499Y1462604D01*
X5469069Y1486599D01*
X5443095Y1583536D01*
X5380495Y1691964D01*
X5291964Y1780495D01*
X5291963Y1780496D01*
X5183534Y1843096D01*
X5183536Y1843096D01*
X5062603Y1875500D01*
X5062601Y1875500D01*
X4937399Y1875500D01*
X4937397Y1875500D01*
X4816464Y1843096D01*
X4708036Y1780496D01*
X4619504Y1691964D01*
X4556904Y1583536D01*
X4524500Y1462604D01*
X3475499Y1462604D01*
X3469069Y1486599D01*
X3443095Y1583536D01*
X3380495Y1691964D01*
X3291964Y1780495D01*
X3291963Y1780496D01*
X3183534Y1843096D01*
X3183536Y1843096D01*
X3062603Y1875500D01*
X3062601Y1875500D01*
X2937399Y1875500D01*
X2937397Y1875500D01*
X2816464Y1843096D01*
X2708036Y1780496D01*
X2619504Y1691964D01*
X2556904Y1583536D01*
X2524500Y1462604D01*
X786055Y1462604D01*
X716671Y1560392D01*
X712263Y1567406D01*
X569844Y1825096D01*
X566244Y1832572D01*
X556165Y1856905D01*
X453573Y2104582D01*
X450839Y2112395D01*
X378755Y2362604D01*
X19624500Y2362604D01*
X19624500Y2237397D01*
X19656904Y2116465D01*
X19688001Y2062604D01*
X19719505Y2008036D01*
X19808036Y1919505D01*
X19916464Y1856905D01*
X19916463Y1856905D01*
X19986286Y1838196D01*
X20037396Y1824501D01*
X20037397Y1824500D01*
X20037399Y1824500D01*
X20162603Y1824500D01*
X20162603Y1824501D01*
X20283536Y1856905D01*
X20391964Y1919505D01*
X20480495Y2008036D01*
X20543095Y2116464D01*
X20575499Y2237397D01*
X20575500Y2237397D01*
X20575500Y2362603D01*
X20575499Y2362604D01*
X23624500Y2362604D01*
X23624500Y2237397D01*
X23656904Y2116465D01*
X23688001Y2062604D01*
X23719505Y2008036D01*
X23808036Y1919505D01*
X23916464Y1856905D01*
X23916463Y1856905D01*
X23986286Y1838196D01*
X24037396Y1824501D01*
X24037397Y1824500D01*
X24037399Y1824500D01*
X24162603Y1824500D01*
X24162603Y1824501D01*
X24283536Y1856905D01*
X24391964Y1919505D01*
X24480495Y2008036D01*
X24511999Y2062604D01*
X27024500Y2062604D01*
X27024500Y1937397D01*
X27056904Y1816465D01*
X27104783Y1733536D01*
X27119505Y1708036D01*
X27208036Y1619505D01*
X27316464Y1556905D01*
X27316463Y1556905D01*
X27386286Y1538196D01*
X27437396Y1524501D01*
X27437397Y1524500D01*
X27437399Y1524500D01*
X27562603Y1524500D01*
X27562603Y1524501D01*
X27683536Y1556905D01*
X27791964Y1619505D01*
X27880495Y1708036D01*
X27943095Y1816464D01*
X27975499Y1937397D01*
X27975500Y1937397D01*
X27975500Y2062603D01*
X27975499Y2062604D01*
X27943095Y2183536D01*
X27880495Y2291964D01*
X27791963Y2380496D01*
X27683534Y2443096D01*
X27683536Y2443096D01*
X27562603Y2475500D01*
X27562601Y2475500D01*
X27437399Y2475500D01*
X27437397Y2475500D01*
X27316464Y2443096D01*
X27208036Y2380496D01*
X27119504Y2291964D01*
X27056904Y2183536D01*
X27024500Y2062604D01*
X24511999Y2062604D01*
X24543095Y2116464D01*
X24575499Y2237397D01*
X24575500Y2237397D01*
X24575500Y2362603D01*
X24575499Y2362604D01*
X24543095Y2483536D01*
X24480495Y2591964D01*
X24391963Y2680496D01*
X24283534Y2743096D01*
X24283536Y2743096D01*
X24162603Y2775500D01*
X24162601Y2775500D01*
X24037399Y2775500D01*
X24037397Y2775500D01*
X23916464Y2743096D01*
X23808036Y2680496D01*
X23719504Y2591964D01*
X23656904Y2483536D01*
X23624500Y2362604D01*
X20575499Y2362604D01*
X20543095Y2483536D01*
X20480495Y2591964D01*
X20391963Y2680496D01*
X20283534Y2743096D01*
X20283536Y2743096D01*
X20162603Y2775500D01*
X20162601Y2775500D01*
X20037399Y2775500D01*
X20037397Y2775500D01*
X19916464Y2743096D01*
X19808036Y2680496D01*
X19719504Y2591964D01*
X19656904Y2483536D01*
X19624500Y2362604D01*
X378755Y2362604D01*
X369328Y2395325D01*
X367486Y2403397D01*
X318170Y2693654D01*
X317241Y2701894D01*
X315971Y2724500D01*
X300616Y2997935D01*
X300500Y3002084D01*
X300500Y3162604D01*
X524500Y3162604D01*
X524500Y3037397D01*
X556904Y2916465D01*
X614639Y2816465D01*
X619505Y2808036D01*
X708036Y2719505D01*
X816464Y2656905D01*
X816463Y2656905D01*
X886286Y2638196D01*
X937396Y2624501D01*
X937397Y2624500D01*
X937399Y2624500D01*
X1062603Y2624500D01*
X1062603Y2624501D01*
X1183536Y2656905D01*
X1291964Y2719505D01*
X1380495Y2808036D01*
X1443095Y2916464D01*
X1475499Y3037397D01*
X1475500Y3037397D01*
X1475500Y3162603D01*
X1475499Y3162604D01*
X4524500Y3162604D01*
X4524500Y3037397D01*
X4556904Y2916465D01*
X4614639Y2816465D01*
X4619505Y2808036D01*
X4708036Y2719505D01*
X4816464Y2656905D01*
X4816463Y2656905D01*
X4886286Y2638196D01*
X4937396Y2624501D01*
X4937397Y2624500D01*
X4937399Y2624500D01*
X5062603Y2624500D01*
X5062603Y2624501D01*
X5183536Y2656905D01*
X5291964Y2719505D01*
X5380495Y2808036D01*
X5443095Y2916464D01*
X5475499Y3037397D01*
X5475500Y3037397D01*
X5475500Y3162603D01*
X5475499Y3162604D01*
X6524500Y3162604D01*
X6524500Y3037397D01*
X6556904Y2916465D01*
X6614639Y2816465D01*
X6619505Y2808036D01*
X6708036Y2719505D01*
X6816464Y2656905D01*
X6816463Y2656905D01*
X6886286Y2638196D01*
X6937396Y2624501D01*
X6937397Y2624500D01*
X6937399Y2624500D01*
X7062603Y2624500D01*
X7062603Y2624501D01*
X7183536Y2656905D01*
X7291964Y2719505D01*
X7380495Y2808036D01*
X7443095Y2916464D01*
X7475499Y3037397D01*
X7475500Y3037397D01*
X7475500Y3062604D01*
X13674500Y3062604D01*
X13674500Y2937397D01*
X13706904Y2816465D01*
X13760000Y2724500D01*
X13769505Y2708036D01*
X13858036Y2619505D01*
X13966464Y2556905D01*
X13966463Y2556905D01*
X14036286Y2538196D01*
X14087396Y2524501D01*
X14087397Y2524500D01*
X14087399Y2524500D01*
X14212603Y2524500D01*
X14212603Y2524501D01*
X14333536Y2556905D01*
X14441964Y2619505D01*
X14530495Y2708036D01*
X14593095Y2816464D01*
X14625499Y2937397D01*
X14625500Y2937397D01*
X14625500Y3062603D01*
X14625499Y3062604D01*
X14613325Y3108036D01*
X14593095Y3183536D01*
X14530495Y3291964D01*
X14441964Y3380495D01*
X14441963Y3380496D01*
X14333534Y3443096D01*
X14333536Y3443096D01*
X14260731Y3462604D01*
X26024500Y3462604D01*
X26024500Y3337397D01*
X26056904Y3216465D01*
X26102554Y3137397D01*
X26119505Y3108036D01*
X26208036Y3019505D01*
X26316464Y2956905D01*
X26316463Y2956905D01*
X26386286Y2938196D01*
X26437396Y2924501D01*
X26437397Y2924500D01*
X26437399Y2924500D01*
X26562603Y2924500D01*
X26562603Y2924501D01*
X26683536Y2956905D01*
X26791964Y3019505D01*
X26880495Y3108036D01*
X26943095Y3216464D01*
X26955458Y3262601D01*
X26955459Y3262604D01*
X28024500Y3262604D01*
X28024500Y3137397D01*
X28056904Y3016465D01*
X28114639Y2916465D01*
X28119505Y2908036D01*
X28208036Y2819505D01*
X28316464Y2756905D01*
X28316463Y2756905D01*
X28386286Y2738196D01*
X28437396Y2724501D01*
X28437397Y2724500D01*
X28437399Y2724500D01*
X28562603Y2724500D01*
X28562603Y2724501D01*
X28683536Y2756905D01*
X28791964Y2819505D01*
X28880495Y2908036D01*
X28943095Y3016464D01*
X28975499Y3137397D01*
X28975500Y3137397D01*
X28975500Y3262603D01*
X28975499Y3262604D01*
X28943095Y3383536D01*
X28880495Y3491964D01*
X28791963Y3580496D01*
X28683534Y3643096D01*
X28683536Y3643096D01*
X28562603Y3675500D01*
X28562601Y3675500D01*
X28437399Y3675500D01*
X28437397Y3675500D01*
X28316464Y3643096D01*
X28208036Y3580496D01*
X28119504Y3491964D01*
X28056904Y3383536D01*
X28024500Y3262604D01*
X26955459Y3262604D01*
X26961890Y3286604D01*
X26975499Y3337397D01*
X26975500Y3337397D01*
X26975500Y3462603D01*
X26975499Y3462604D01*
X26972043Y3475500D01*
X26943095Y3583536D01*
X26880495Y3691964D01*
X26791964Y3780495D01*
X26791963Y3780496D01*
X26683534Y3843096D01*
X26683536Y3843096D01*
X26562603Y3875500D01*
X26562601Y3875500D01*
X26437399Y3875500D01*
X26437397Y3875500D01*
X26316464Y3843096D01*
X26208036Y3780496D01*
X26119504Y3691964D01*
X26056904Y3583536D01*
X26024500Y3462604D01*
X14260731Y3462604D01*
X14212603Y3475500D01*
X14212601Y3475500D01*
X14087399Y3475500D01*
X14087397Y3475500D01*
X13966464Y3443096D01*
X13858036Y3380496D01*
X13769504Y3291964D01*
X13706904Y3183536D01*
X13674500Y3062604D01*
X7475500Y3062604D01*
X7475500Y3162603D01*
X7475499Y3162604D01*
X7443095Y3283536D01*
X7380495Y3391964D01*
X7291963Y3480496D01*
X7183534Y3543096D01*
X7183536Y3543096D01*
X7062603Y3575500D01*
X7062601Y3575500D01*
X6937399Y3575500D01*
X6937397Y3575500D01*
X6816464Y3543096D01*
X6708036Y3480496D01*
X6619504Y3391964D01*
X6556904Y3283536D01*
X6524500Y3162604D01*
X5475499Y3162604D01*
X5443095Y3283536D01*
X5380495Y3391964D01*
X5291963Y3480496D01*
X5183534Y3543096D01*
X5183536Y3543096D01*
X5062603Y3575500D01*
X5062601Y3575500D01*
X4937399Y3575500D01*
X4937397Y3575500D01*
X4816464Y3543096D01*
X4708036Y3480496D01*
X4619504Y3391964D01*
X4556904Y3283536D01*
X4524500Y3162604D01*
X1475499Y3162604D01*
X1443095Y3283536D01*
X1380495Y3391964D01*
X1291963Y3480496D01*
X1183534Y3543096D01*
X1183536Y3543096D01*
X1062603Y3575500D01*
X1062601Y3575500D01*
X937399Y3575500D01*
X937397Y3575500D01*
X816464Y3543096D01*
X708036Y3480496D01*
X619504Y3391964D01*
X556904Y3283536D01*
X524500Y3162604D01*
X300500Y3162604D01*
X300500Y4762604D01*
X3524500Y4762604D01*
X3524500Y4637397D01*
X3556904Y4516465D01*
X3614639Y4416465D01*
X3619505Y4408036D01*
X3708036Y4319505D01*
X3816464Y4256905D01*
X3816463Y4256905D01*
X3886286Y4238196D01*
X3937396Y4224501D01*
X3937397Y4224500D01*
X3937399Y4224500D01*
X4062603Y4224500D01*
X4062603Y4224501D01*
X4183536Y4256905D01*
X4291964Y4319505D01*
X4380495Y4408036D01*
X4443095Y4516464D01*
X4475499Y4637397D01*
X4475500Y4637397D01*
X4475500Y4762603D01*
X4475499Y4762604D01*
X5524500Y4762604D01*
X5524500Y4637397D01*
X5556904Y4516465D01*
X5614639Y4416465D01*
X5619505Y4408036D01*
X5708036Y4319505D01*
X5816464Y4256905D01*
X5816463Y4256905D01*
X5886286Y4238196D01*
X5937396Y4224501D01*
X5937397Y4224500D01*
X5937399Y4224500D01*
X6062603Y4224500D01*
X6062603Y4224501D01*
X6183536Y4256905D01*
X6291964Y4319505D01*
X6380495Y4408036D01*
X6440866Y4512604D01*
X12874500Y4512604D01*
X12874500Y4387397D01*
X12906904Y4266465D01*
X12954783Y4183536D01*
X12969505Y4158036D01*
X13058036Y4069505D01*
X13166464Y4006905D01*
X13166463Y4006905D01*
X13236286Y3988196D01*
X13287396Y3974501D01*
X13287397Y3974500D01*
X13287399Y3974500D01*
X13412603Y3974500D01*
X13412603Y3974501D01*
X13533536Y4006905D01*
X13630011Y4062604D01*
X17524500Y4062604D01*
X17524500Y3937397D01*
X17556904Y3816465D01*
X17577671Y3780496D01*
X17619505Y3708036D01*
X17708036Y3619505D01*
X17816464Y3556905D01*
X17816463Y3556905D01*
X17883550Y3538929D01*
X17937396Y3524501D01*
X17937397Y3524500D01*
X17937399Y3524500D01*
X18062603Y3524500D01*
X18062603Y3524501D01*
X18183536Y3556905D01*
X18291964Y3619505D01*
X18380495Y3708036D01*
X18443095Y3816464D01*
X18475499Y3937397D01*
X18475500Y3937397D01*
X18475500Y4062603D01*
X18475499Y4062604D01*
X19524500Y4062604D01*
X19524500Y3937397D01*
X19556904Y3816465D01*
X19577671Y3780496D01*
X19619505Y3708036D01*
X19708036Y3619505D01*
X19816464Y3556905D01*
X19816463Y3556905D01*
X19883550Y3538929D01*
X19937396Y3524501D01*
X19937397Y3524500D01*
X19937399Y3524500D01*
X20062603Y3524500D01*
X20062603Y3524501D01*
X20183536Y3556905D01*
X20291964Y3619505D01*
X20380495Y3708036D01*
X20443095Y3816464D01*
X20475499Y3937397D01*
X20475500Y3937397D01*
X20475500Y4062603D01*
X20475499Y4062604D01*
X21524500Y4062604D01*
X21524500Y3937397D01*
X21556904Y3816465D01*
X21577671Y3780496D01*
X21619505Y3708036D01*
X21708036Y3619505D01*
X21816464Y3556905D01*
X21816463Y3556905D01*
X21883550Y3538929D01*
X21937396Y3524501D01*
X21937397Y3524500D01*
X21937399Y3524500D01*
X22062603Y3524500D01*
X22062603Y3524501D01*
X22183536Y3556905D01*
X22291964Y3619505D01*
X22380495Y3708036D01*
X22443095Y3816464D01*
X22475499Y3937397D01*
X22475500Y3937397D01*
X22475500Y4062603D01*
X22475499Y4062604D01*
X23524500Y4062604D01*
X23524500Y3937397D01*
X23556904Y3816465D01*
X23577671Y3780496D01*
X23619505Y3708036D01*
X23708036Y3619505D01*
X23816464Y3556905D01*
X23816463Y3556905D01*
X23883550Y3538929D01*
X23937396Y3524501D01*
X23937397Y3524500D01*
X23937399Y3524500D01*
X24062603Y3524500D01*
X24062603Y3524501D01*
X24086463Y3530895D01*
X24116452Y3538929D01*
X24162418Y3551247D01*
X24183536Y3556905D01*
X24291964Y3619505D01*
X24380495Y3708036D01*
X24443095Y3816464D01*
X24475499Y3937397D01*
X24475500Y3937397D01*
X24475500Y4062603D01*
X24475499Y4062604D01*
X24443095Y4183536D01*
X24380495Y4291964D01*
X24291963Y4380496D01*
X24183534Y4443096D01*
X24183536Y4443096D01*
X24062603Y4475500D01*
X24062601Y4475500D01*
X23937399Y4475500D01*
X23937397Y4475500D01*
X23816464Y4443096D01*
X23708036Y4380496D01*
X23619504Y4291964D01*
X23556904Y4183536D01*
X23524500Y4062604D01*
X22475499Y4062604D01*
X22443095Y4183536D01*
X22380495Y4291964D01*
X22291963Y4380496D01*
X22183534Y4443096D01*
X22183536Y4443096D01*
X22062603Y4475500D01*
X22062601Y4475500D01*
X21937399Y4475500D01*
X21937397Y4475500D01*
X21816464Y4443096D01*
X21708036Y4380496D01*
X21619504Y4291964D01*
X21556904Y4183536D01*
X21524500Y4062604D01*
X20475499Y4062604D01*
X20443095Y4183536D01*
X20380495Y4291964D01*
X20291963Y4380496D01*
X20183534Y4443096D01*
X20183536Y4443096D01*
X20062603Y4475500D01*
X20062601Y4475500D01*
X19937399Y4475500D01*
X19937397Y4475500D01*
X19816464Y4443096D01*
X19708036Y4380496D01*
X19619504Y4291964D01*
X19556904Y4183536D01*
X19524500Y4062604D01*
X18475499Y4062604D01*
X18443095Y4183536D01*
X18380495Y4291964D01*
X18291963Y4380496D01*
X18183534Y4443096D01*
X18183536Y4443096D01*
X18062603Y4475500D01*
X18062601Y4475500D01*
X17937399Y4475500D01*
X17937397Y4475500D01*
X17816464Y4443096D01*
X17708036Y4380496D01*
X17619504Y4291964D01*
X17556904Y4183536D01*
X17524500Y4062604D01*
X13630011Y4062604D01*
X13641964Y4069505D01*
X13730495Y4158036D01*
X13793095Y4266464D01*
X13825499Y4387397D01*
X13825500Y4387397D01*
X13825500Y4512603D01*
X13825499Y4512604D01*
X13824465Y4516464D01*
X13793095Y4633536D01*
X13776313Y4662604D01*
X15024500Y4662604D01*
X15024500Y4537397D01*
X15056904Y4416465D01*
X15077671Y4380496D01*
X15119505Y4308036D01*
X15208036Y4219505D01*
X15316464Y4156905D01*
X15316463Y4156905D01*
X15383550Y4138929D01*
X15437396Y4124501D01*
X15437397Y4124500D01*
X15437399Y4124500D01*
X15562603Y4124500D01*
X15562603Y4124501D01*
X15586463Y4130895D01*
X15616452Y4138929D01*
X15662418Y4151247D01*
X15683536Y4156905D01*
X15791964Y4219505D01*
X15880495Y4308036D01*
X15943095Y4416464D01*
X15975499Y4537397D01*
X15975500Y4537397D01*
X15975500Y4662603D01*
X15975499Y4662604D01*
X15943095Y4783536D01*
X15880495Y4891964D01*
X15791963Y4980496D01*
X15683534Y5043096D01*
X15683536Y5043096D01*
X15562603Y5075500D01*
X15562601Y5075500D01*
X15437399Y5075500D01*
X15437397Y5075500D01*
X15316464Y5043096D01*
X15208036Y4980496D01*
X15119504Y4891964D01*
X15056904Y4783536D01*
X15024500Y4662604D01*
X13776313Y4662604D01*
X13730495Y4741964D01*
X13641964Y4830495D01*
X13641963Y4830496D01*
X13533534Y4893096D01*
X13533536Y4893096D01*
X13412603Y4925500D01*
X13412601Y4925500D01*
X13287399Y4925500D01*
X13287397Y4925500D01*
X13166464Y4893096D01*
X13058036Y4830496D01*
X12969504Y4741964D01*
X12906904Y4633536D01*
X12874500Y4512604D01*
X6440866Y4512604D01*
X6443095Y4516464D01*
X6475499Y4637397D01*
X6475500Y4637397D01*
X6475500Y4762603D01*
X6475499Y4762604D01*
X6457307Y4830495D01*
X6443095Y4883536D01*
X6380495Y4991964D01*
X6291964Y5080495D01*
X6291963Y5080496D01*
X6183534Y5143096D01*
X6183536Y5143096D01*
X6062603Y5175500D01*
X6062601Y5175500D01*
X5937399Y5175500D01*
X5937397Y5175500D01*
X5816464Y5143096D01*
X5708036Y5080496D01*
X5619504Y4991964D01*
X5556904Y4883536D01*
X5524500Y4762604D01*
X4475499Y4762604D01*
X4457307Y4830495D01*
X4443095Y4883536D01*
X4380495Y4991964D01*
X4291964Y5080495D01*
X4291963Y5080496D01*
X4183534Y5143096D01*
X4183536Y5143096D01*
X4062603Y5175500D01*
X4062601Y5175500D01*
X3937399Y5175500D01*
X3937397Y5175500D01*
X3816464Y5143096D01*
X3708036Y5080496D01*
X3619504Y4991964D01*
X3556904Y4883536D01*
X3524500Y4762604D01*
X300500Y4762604D01*
X300500Y5362604D01*
X2374500Y5362604D01*
X2374500Y5237397D01*
X2406904Y5116465D01*
X2427671Y5080496D01*
X2469505Y5008036D01*
X2558036Y4919505D01*
X2666464Y4856905D01*
X2666463Y4856905D01*
X2733550Y4838929D01*
X2787396Y4824501D01*
X2787397Y4824500D01*
X2787399Y4824500D01*
X2912603Y4824500D01*
X2912603Y4824501D01*
X2936463Y4830895D01*
X2966452Y4838929D01*
X3012418Y4851247D01*
X3033536Y4856905D01*
X3141964Y4919505D01*
X3230495Y5008036D01*
X3293095Y5116464D01*
X3325499Y5237397D01*
X3325500Y5237397D01*
X3325500Y5362603D01*
X3325499Y5362604D01*
X25124500Y5362604D01*
X25124500Y5237397D01*
X25156904Y5116465D01*
X25177671Y5080496D01*
X25219505Y5008036D01*
X25308036Y4919505D01*
X25416464Y4856905D01*
X25416463Y4856905D01*
X25483550Y4838929D01*
X25537396Y4824501D01*
X25537397Y4824500D01*
X25537399Y4824500D01*
X25662603Y4824500D01*
X25662603Y4824501D01*
X25783536Y4856905D01*
X25891964Y4919505D01*
X25980495Y5008036D01*
X26043095Y5116464D01*
X26075499Y5237397D01*
X26075500Y5237397D01*
X26075500Y5362603D01*
X26075499Y5362604D01*
X26043095Y5483536D01*
X25980495Y5591964D01*
X25891963Y5680496D01*
X25783534Y5743096D01*
X25783536Y5743096D01*
X25662603Y5775500D01*
X25662601Y5775500D01*
X25537399Y5775500D01*
X25537397Y5775500D01*
X25416464Y5743096D01*
X25308036Y5680496D01*
X25219504Y5591964D01*
X25156904Y5483536D01*
X25124500Y5362604D01*
X3325499Y5362604D01*
X3293095Y5483536D01*
X3230495Y5591964D01*
X3141963Y5680496D01*
X3033534Y5743096D01*
X3033536Y5743096D01*
X2912603Y5775500D01*
X2912601Y5775500D01*
X2787399Y5775500D01*
X2787397Y5775500D01*
X2666464Y5743096D01*
X2558036Y5680496D01*
X2469504Y5591964D01*
X2406904Y5483536D01*
X2374500Y5362604D01*
X300500Y5362604D01*
X300500Y6412604D01*
X9424500Y6412604D01*
X9424500Y6287397D01*
X9456904Y6166465D01*
X9502554Y6087397D01*
X9519505Y6058036D01*
X9608036Y5969505D01*
X9716464Y5906905D01*
X9716463Y5906905D01*
X9786286Y5888196D01*
X9837396Y5874501D01*
X9837397Y5874500D01*
X9837399Y5874500D01*
X9962603Y5874500D01*
X9962603Y5874501D01*
X10083536Y5906905D01*
X10191964Y5969505D01*
X10280495Y6058036D01*
X10343095Y6166464D01*
X10375499Y6287397D01*
X10375500Y6287397D01*
X10375500Y6412603D01*
X10375499Y6412604D01*
X11024500Y6412604D01*
X11024500Y6287397D01*
X11056904Y6166465D01*
X11102554Y6087397D01*
X11119505Y6058036D01*
X11208036Y5969505D01*
X11316464Y5906905D01*
X11316463Y5906905D01*
X11386286Y5888196D01*
X11437396Y5874501D01*
X11437397Y5874500D01*
X11437399Y5874500D01*
X11562603Y5874500D01*
X11562603Y5874501D01*
X11683536Y5906905D01*
X11791964Y5969505D01*
X11880495Y6058036D01*
X11943095Y6166464D01*
X11975499Y6287397D01*
X11975500Y6287397D01*
X11975500Y6412603D01*
X11975499Y6412604D01*
X12974500Y6412604D01*
X12974500Y6287397D01*
X13006904Y6166465D01*
X13052554Y6087397D01*
X13069505Y6058036D01*
X13158036Y5969505D01*
X13266464Y5906905D01*
X13266463Y5906905D01*
X13336286Y5888196D01*
X13387396Y5874501D01*
X13387397Y5874500D01*
X13387399Y5874500D01*
X13512603Y5874500D01*
X13512603Y5874501D01*
X13633536Y5906905D01*
X13741964Y5969505D01*
X13830495Y6058036D01*
X13893095Y6166464D01*
X13905458Y6212601D01*
X13905459Y6212604D01*
X14224500Y6212604D01*
X14224500Y6087397D01*
X14256904Y5966465D01*
X14310000Y5874500D01*
X14319505Y5858036D01*
X14408036Y5769505D01*
X14516464Y5706905D01*
X14516463Y5706905D01*
X14586286Y5688196D01*
X14637396Y5674501D01*
X14637397Y5674500D01*
X14637399Y5674500D01*
X14762603Y5674500D01*
X14762603Y5674501D01*
X14883536Y5706905D01*
X14991964Y5769505D01*
X15080495Y5858036D01*
X15143095Y5966464D01*
X15175499Y6087397D01*
X15175500Y6087397D01*
X15175500Y6212603D01*
X15175499Y6212604D01*
X15143095Y6333536D01*
X15080495Y6441964D01*
X14991963Y6530496D01*
X14883534Y6593096D01*
X14883536Y6593096D01*
X14762603Y6625500D01*
X14762601Y6625500D01*
X14637399Y6625500D01*
X14637397Y6625500D01*
X14516464Y6593096D01*
X14408036Y6530496D01*
X14319504Y6441964D01*
X14256904Y6333536D01*
X14224500Y6212604D01*
X13905459Y6212604D01*
X13911890Y6236604D01*
X13925499Y6287397D01*
X13925500Y6287397D01*
X13925500Y6412603D01*
X13925499Y6412604D01*
X13893095Y6533536D01*
X13830495Y6641964D01*
X13741963Y6730496D01*
X13633534Y6793096D01*
X13633536Y6793096D01*
X13512603Y6825500D01*
X13512601Y6825500D01*
X13387399Y6825500D01*
X13387397Y6825500D01*
X13266464Y6793096D01*
X13158036Y6730496D01*
X13069504Y6641964D01*
X13006904Y6533536D01*
X12974500Y6412604D01*
X11975499Y6412604D01*
X11943095Y6533536D01*
X11880495Y6641964D01*
X11791963Y6730496D01*
X11683534Y6793096D01*
X11683536Y6793096D01*
X11562603Y6825500D01*
X11562601Y6825500D01*
X11437399Y6825500D01*
X11437397Y6825500D01*
X11316464Y6793096D01*
X11208036Y6730496D01*
X11119504Y6641964D01*
X11056904Y6533536D01*
X11024500Y6412604D01*
X10375499Y6412604D01*
X10343095Y6533536D01*
X10280495Y6641964D01*
X10191963Y6730496D01*
X10083534Y6793096D01*
X10083536Y6793096D01*
X9962603Y6825500D01*
X9962601Y6825500D01*
X9837399Y6825500D01*
X9837397Y6825500D01*
X9716464Y6793096D01*
X9608036Y6730496D01*
X9519504Y6641964D01*
X9456904Y6533536D01*
X9424500Y6412604D01*
X300500Y6412604D01*
X300500Y8062604D01*
X1524500Y8062604D01*
X1524500Y7937397D01*
X1556904Y7816465D01*
X1581133Y7774500D01*
X1619505Y7708036D01*
X1708036Y7619505D01*
X1816464Y7556905D01*
X1816463Y7556905D01*
X1886286Y7538196D01*
X1937396Y7524501D01*
X1937397Y7524500D01*
X1937399Y7524500D01*
X2062603Y7524500D01*
X2062603Y7524501D01*
X2183536Y7556905D01*
X2291964Y7619505D01*
X2335063Y7662604D01*
X28124500Y7662604D01*
X28124500Y7537397D01*
X28156904Y7416465D01*
X28156905Y7416464D01*
X28219505Y7308036D01*
X28308036Y7219505D01*
X28416464Y7156905D01*
X28416463Y7156905D01*
X28486286Y7138196D01*
X28537396Y7124501D01*
X28537397Y7124500D01*
X28537399Y7124500D01*
X28662603Y7124500D01*
X28662603Y7124501D01*
X28783536Y7156905D01*
X28891964Y7219505D01*
X28980495Y7308036D01*
X29043095Y7416464D01*
X29075499Y7537397D01*
X29075500Y7537397D01*
X29075500Y7662603D01*
X29075499Y7662604D01*
X29063325Y7708036D01*
X29043095Y7783536D01*
X28980495Y7891964D01*
X28891964Y7980495D01*
X28891963Y7980496D01*
X28783534Y8043096D01*
X28783536Y8043096D01*
X28662603Y8075500D01*
X28662601Y8075500D01*
X28537399Y8075500D01*
X28537397Y8075500D01*
X28416464Y8043096D01*
X28308036Y7980496D01*
X28219504Y7891964D01*
X28156904Y7783536D01*
X28124500Y7662604D01*
X2335063Y7662604D01*
X2380495Y7708036D01*
X2443095Y7816464D01*
X2475499Y7937397D01*
X2475500Y7937397D01*
X2475500Y8062603D01*
X2475499Y8062604D01*
X2474464Y8066465D01*
X2443095Y8183536D01*
X2380495Y8291964D01*
X2359855Y8312604D01*
X5474500Y8312604D01*
X5474500Y8187397D01*
X5506904Y8066465D01*
X5556538Y7980496D01*
X5569505Y7958036D01*
X5658036Y7869505D01*
X5766464Y7806905D01*
X5766463Y7806905D01*
X5836286Y7788196D01*
X5887396Y7774501D01*
X5887397Y7774500D01*
X5887399Y7774500D01*
X6012603Y7774500D01*
X6012603Y7774501D01*
X6133536Y7806905D01*
X6241964Y7869505D01*
X6330495Y7958036D01*
X6393095Y8066464D01*
X6425499Y8187397D01*
X6425500Y8187397D01*
X6425500Y8312603D01*
X6425499Y8312604D01*
X6407307Y8380495D01*
X6393095Y8433536D01*
X6330495Y8541964D01*
X6241964Y8630495D01*
X6241963Y8630496D01*
X6133534Y8693096D01*
X6133536Y8693096D01*
X6012603Y8725500D01*
X6012601Y8725500D01*
X5887399Y8725500D01*
X5887397Y8725500D01*
X5766464Y8693096D01*
X5658036Y8630496D01*
X5569504Y8541964D01*
X5506904Y8433536D01*
X5474500Y8312604D01*
X2359855Y8312604D01*
X2291964Y8380495D01*
X2291963Y8380496D01*
X2183534Y8443096D01*
X2183536Y8443096D01*
X2062603Y8475500D01*
X2062601Y8475500D01*
X1937399Y8475500D01*
X1937397Y8475500D01*
X1816464Y8443096D01*
X1708036Y8380496D01*
X1619504Y8291964D01*
X1556904Y8183536D01*
X1524500Y8062604D01*
X300500Y8062604D01*
X300500Y10212604D01*
X11024500Y10212604D01*
X11024500Y10087397D01*
X11056904Y9966465D01*
X11116868Y9862604D01*
X11119505Y9858036D01*
X11208036Y9769505D01*
X11316464Y9706905D01*
X11316463Y9706905D01*
X11386286Y9688196D01*
X11437396Y9674501D01*
X11437397Y9674500D01*
X11437399Y9674500D01*
X11562603Y9674500D01*
X11562603Y9674501D01*
X11683536Y9706905D01*
X11791964Y9769505D01*
X11880495Y9858036D01*
X11943095Y9966464D01*
X11975499Y10087397D01*
X11975500Y10087397D01*
X11975500Y10212603D01*
X11975499Y10212604D01*
X11943095Y10333536D01*
X11916011Y10380448D01*
X11916009Y10380451D01*
X11897446Y10412604D01*
X12374500Y10412604D01*
X12374500Y10287397D01*
X12406904Y10166465D01*
X12452554Y10087397D01*
X12469505Y10058036D01*
X12558036Y9969505D01*
X12666464Y9906905D01*
X12666463Y9906905D01*
X12736286Y9888196D01*
X12787396Y9874501D01*
X12787397Y9874500D01*
X12787399Y9874500D01*
X12912603Y9874500D01*
X12912603Y9874501D01*
X13033536Y9906905D01*
X13141964Y9969505D01*
X13230495Y10058036D01*
X13293095Y10166464D01*
X13325499Y10287397D01*
X13325500Y10287397D01*
X13325500Y10362604D01*
X15924500Y10362604D01*
X15924500Y10237397D01*
X15956904Y10116465D01*
X15990638Y10058036D01*
X16019505Y10008036D01*
X16108036Y9919505D01*
X16216464Y9856905D01*
X16216463Y9856905D01*
X16286286Y9838196D01*
X16337396Y9824501D01*
X16337397Y9824500D01*
X16337399Y9824500D01*
X16462603Y9824500D01*
X16462603Y9824501D01*
X16583536Y9856905D01*
X16593407Y9862604D01*
X19024500Y9862604D01*
X19024500Y9737397D01*
X19056904Y9616465D01*
X19071050Y9591964D01*
X19119505Y9508036D01*
X19208036Y9419505D01*
X19316464Y9356905D01*
X19316463Y9356905D01*
X19386286Y9338196D01*
X19437396Y9324501D01*
X19437397Y9324500D01*
X19437399Y9324500D01*
X19562603Y9324500D01*
X19562603Y9324501D01*
X19683536Y9356905D01*
X19693407Y9362604D01*
X21124500Y9362604D01*
X21124500Y9237397D01*
X21156904Y9116465D01*
X21156905Y9116464D01*
X21219505Y9008036D01*
X21308036Y8919505D01*
X21416464Y8856905D01*
X21416463Y8856905D01*
X21486286Y8838196D01*
X21537396Y8824501D01*
X21537397Y8824500D01*
X21537399Y8824500D01*
X21662603Y8824500D01*
X21662603Y8824501D01*
X21783536Y8856905D01*
X21891964Y8919505D01*
X21980495Y9008036D01*
X22043095Y9116464D01*
X22075499Y9237397D01*
X22075500Y9237397D01*
X22075500Y9362603D01*
X22075499Y9362604D01*
X22043095Y9483536D01*
X21980495Y9591964D01*
X21891963Y9680496D01*
X21783534Y9743096D01*
X21783536Y9743096D01*
X21662603Y9775500D01*
X21662601Y9775500D01*
X21537399Y9775500D01*
X21537397Y9775500D01*
X21416464Y9743096D01*
X21308036Y9680496D01*
X21219504Y9591964D01*
X21156904Y9483536D01*
X21124500Y9362604D01*
X19693407Y9362604D01*
X19791964Y9419505D01*
X19880495Y9508036D01*
X19943095Y9616464D01*
X19975499Y9737397D01*
X19975500Y9737397D01*
X19975500Y9862603D01*
X19975499Y9862604D01*
X19972311Y9874500D01*
X19943095Y9983536D01*
X19880495Y10091964D01*
X19791964Y10180495D01*
X19791963Y10180496D01*
X19683534Y10243096D01*
X19683536Y10243096D01*
X19562603Y10275500D01*
X19562601Y10275500D01*
X19437399Y10275500D01*
X19437397Y10275500D01*
X19316464Y10243096D01*
X19208036Y10180496D01*
X19119504Y10091964D01*
X19056904Y9983536D01*
X19024500Y9862604D01*
X16593407Y9862604D01*
X16691964Y9919505D01*
X16780495Y10008036D01*
X16843095Y10116464D01*
X16875499Y10237397D01*
X16875500Y10237397D01*
X16875500Y10362603D01*
X16875499Y10362604D01*
X16862101Y10412604D01*
X16843095Y10483536D01*
X16780495Y10591964D01*
X16691964Y10680495D01*
X16691963Y10680496D01*
X16583534Y10743096D01*
X16583536Y10743096D01*
X16462603Y10775500D01*
X16462601Y10775500D01*
X16337399Y10775500D01*
X16337397Y10775500D01*
X16216464Y10743096D01*
X16108036Y10680496D01*
X16019504Y10591964D01*
X15956904Y10483536D01*
X15924500Y10362604D01*
X13325500Y10362604D01*
X13325500Y10412603D01*
X13325499Y10412604D01*
X13322311Y10424500D01*
X13293095Y10533536D01*
X13230495Y10641964D01*
X13141964Y10730495D01*
X13141963Y10730496D01*
X13033534Y10793096D01*
X13033536Y10793096D01*
X12912603Y10825500D01*
X12912601Y10825500D01*
X12787399Y10825500D01*
X12787397Y10825500D01*
X12666464Y10793096D01*
X12558036Y10730496D01*
X12469504Y10641964D01*
X12406904Y10533536D01*
X12374500Y10412604D01*
X11897446Y10412604D01*
X11880495Y10441964D01*
X11791964Y10530495D01*
X11791963Y10530496D01*
X11683534Y10593096D01*
X11683536Y10593096D01*
X11562603Y10625500D01*
X11562601Y10625500D01*
X11437399Y10625500D01*
X11437397Y10625500D01*
X11316464Y10593096D01*
X11208036Y10530496D01*
X11119504Y10441964D01*
X11056904Y10333536D01*
X11024500Y10212604D01*
X300500Y10212604D01*
X300500Y11062604D01*
X21124500Y11062604D01*
X21124500Y10937397D01*
X21156904Y10816465D01*
X21214639Y10716465D01*
X21219505Y10708036D01*
X21308036Y10619505D01*
X21416464Y10556905D01*
X21416463Y10556905D01*
X21486286Y10538196D01*
X21537396Y10524501D01*
X21537397Y10524500D01*
X21537399Y10524500D01*
X21662603Y10524500D01*
X21662603Y10524501D01*
X21783536Y10556905D01*
X21891964Y10619505D01*
X21980495Y10708036D01*
X22043095Y10816464D01*
X22075499Y10937397D01*
X22075500Y10937397D01*
X22075500Y10962604D01*
X26424500Y10962604D01*
X26424500Y10837397D01*
X26456904Y10716465D01*
X26477671Y10680496D01*
X26519505Y10608036D01*
X26608036Y10519505D01*
X26716464Y10456905D01*
X26716463Y10456905D01*
X26786286Y10438196D01*
X26837396Y10424501D01*
X26837397Y10424500D01*
X26837399Y10424500D01*
X26962603Y10424500D01*
X26962603Y10424501D01*
X27083536Y10456905D01*
X27191964Y10519505D01*
X27280495Y10608036D01*
X27343095Y10716464D01*
X27375499Y10837397D01*
X27375500Y10837397D01*
X27375500Y10962603D01*
X27375499Y10962604D01*
X27343095Y11083536D01*
X27280495Y11191964D01*
X27191963Y11280496D01*
X27083534Y11343096D01*
X27083536Y11343096D01*
X26962603Y11375500D01*
X26962601Y11375500D01*
X26837399Y11375500D01*
X26837397Y11375500D01*
X26716464Y11343096D01*
X26608036Y11280496D01*
X26519504Y11191964D01*
X26456904Y11083536D01*
X26424500Y10962604D01*
X22075500Y10962604D01*
X22075500Y11062603D01*
X22075499Y11062604D01*
X22043095Y11183536D01*
X21980495Y11291964D01*
X21891963Y11380496D01*
X21783534Y11443096D01*
X21783536Y11443096D01*
X21662603Y11475500D01*
X21662601Y11475500D01*
X21537399Y11475500D01*
X21537397Y11475500D01*
X21416464Y11443096D01*
X21308036Y11380496D01*
X21219504Y11291964D01*
X21156904Y11183536D01*
X21124500Y11062604D01*
X300500Y11062604D01*
X300500Y12062604D01*
X1524500Y12062604D01*
X1524500Y11937397D01*
X1556904Y11816465D01*
X1573687Y11787397D01*
X1619505Y11708036D01*
X1708036Y11619505D01*
X1816464Y11556905D01*
X1816463Y11556905D01*
X1886286Y11538196D01*
X1937396Y11524501D01*
X1937397Y11524500D01*
X1937399Y11524500D01*
X2062603Y11524500D01*
X2062603Y11524501D01*
X2183536Y11556905D01*
X2291964Y11619505D01*
X2380495Y11708036D01*
X2443095Y11816464D01*
X2455366Y11862263D01*
X2468856Y11912604D01*
X5474500Y11912604D01*
X5474500Y11787397D01*
X5506904Y11666465D01*
X5506905Y11666464D01*
X5569505Y11558036D01*
X5658036Y11469505D01*
X5766464Y11406905D01*
X5766463Y11406905D01*
X5836286Y11388196D01*
X5887396Y11374501D01*
X5887397Y11374500D01*
X5887399Y11374500D01*
X6012603Y11374500D01*
X6012603Y11374501D01*
X6133536Y11406905D01*
X6241964Y11469505D01*
X6330495Y11558036D01*
X6393095Y11666464D01*
X6425499Y11787397D01*
X6425500Y11787397D01*
X6425500Y11912603D01*
X6425499Y11912604D01*
X6419071Y11936595D01*
X6393095Y12033536D01*
X6376313Y12062604D01*
X24424500Y12062604D01*
X24424500Y11937397D01*
X24456904Y11816465D01*
X24473687Y11787397D01*
X24519505Y11708036D01*
X24608036Y11619505D01*
X24716464Y11556905D01*
X24716463Y11556905D01*
X24786286Y11538196D01*
X24837396Y11524501D01*
X24837397Y11524500D01*
X24837399Y11524500D01*
X24962603Y11524500D01*
X24962603Y11524501D01*
X25083536Y11556905D01*
X25191964Y11619505D01*
X25280495Y11708036D01*
X25343095Y11816464D01*
X25375499Y11937397D01*
X25375500Y11937397D01*
X25375500Y12062603D01*
X25375499Y12062604D01*
X26624500Y12062604D01*
X26624500Y11937397D01*
X26656904Y11816465D01*
X26673687Y11787397D01*
X26719505Y11708036D01*
X26808036Y11619505D01*
X26916464Y11556905D01*
X26916463Y11556905D01*
X26986286Y11538196D01*
X27037396Y11524501D01*
X27037397Y11524500D01*
X27037399Y11524500D01*
X27162603Y11524500D01*
X27162603Y11524501D01*
X27283536Y11556905D01*
X27391964Y11619505D01*
X27480495Y11708036D01*
X27543095Y11816464D01*
X27575499Y11937397D01*
X27575500Y11937397D01*
X27575500Y12062603D01*
X27575499Y12062604D01*
X27543095Y12183536D01*
X27480495Y12291964D01*
X27391963Y12380496D01*
X27283534Y12443096D01*
X27283536Y12443096D01*
X27162603Y12475500D01*
X27162601Y12475500D01*
X27037399Y12475500D01*
X27037397Y12475500D01*
X26916464Y12443096D01*
X26808036Y12380496D01*
X26719504Y12291964D01*
X26656904Y12183536D01*
X26624500Y12062604D01*
X25375499Y12062604D01*
X25343095Y12183536D01*
X25280495Y12291964D01*
X25191963Y12380496D01*
X25083534Y12443096D01*
X25083536Y12443096D01*
X24962603Y12475500D01*
X24962601Y12475500D01*
X24837399Y12475500D01*
X24837397Y12475500D01*
X24716464Y12443096D01*
X24608036Y12380496D01*
X24519504Y12291964D01*
X24456904Y12183536D01*
X24424500Y12062604D01*
X6376313Y12062604D01*
X6330495Y12141964D01*
X6241964Y12230495D01*
X6241963Y12230496D01*
X6133534Y12293096D01*
X6133536Y12293096D01*
X6012603Y12325500D01*
X6012601Y12325500D01*
X5887399Y12325500D01*
X5887397Y12325500D01*
X5766464Y12293096D01*
X5658036Y12230496D01*
X5569504Y12141964D01*
X5506904Y12033536D01*
X5474500Y11912604D01*
X2468856Y11912604D01*
X2475285Y11936595D01*
X2475286Y11936599D01*
X2475500Y11937398D01*
X2475500Y12062603D01*
X2475499Y12062604D01*
X2443095Y12183536D01*
X2380495Y12291964D01*
X2291963Y12380496D01*
X2183534Y12443096D01*
X2183536Y12443096D01*
X2062603Y12475500D01*
X2062601Y12475500D01*
X1937399Y12475500D01*
X1937397Y12475500D01*
X1816464Y12443096D01*
X1708036Y12380496D01*
X1619504Y12291964D01*
X1556904Y12183536D01*
X1524500Y12062604D01*
X300500Y12062604D01*
X300500Y13062604D01*
X21124500Y13062604D01*
X21124500Y12937397D01*
X21156904Y12816465D01*
X21161771Y12808036D01*
X21219505Y12708036D01*
X21308036Y12619505D01*
X21416464Y12556905D01*
X21416463Y12556905D01*
X21486286Y12538196D01*
X21537396Y12524501D01*
X21537397Y12524500D01*
X21537399Y12524500D01*
X21662603Y12524500D01*
X21662603Y12524501D01*
X21783536Y12556905D01*
X21891964Y12619505D01*
X21980495Y12708036D01*
X22043095Y12816464D01*
X22075499Y12937397D01*
X22075500Y12937397D01*
X22075500Y13062603D01*
X22075499Y13062604D01*
X22066892Y13094724D01*
X22043095Y13183536D01*
X21980495Y13291964D01*
X21891964Y13380495D01*
X21891963Y13380496D01*
X21783534Y13443096D01*
X21783536Y13443096D01*
X21662603Y13475500D01*
X21662601Y13475500D01*
X21537399Y13475500D01*
X21537397Y13475500D01*
X21416464Y13443096D01*
X21308036Y13380496D01*
X21219504Y13291964D01*
X21156904Y13183536D01*
X21124500Y13062604D01*
X300500Y13062604D01*
X300500Y13912604D01*
X4624500Y13912604D01*
X4624500Y13787397D01*
X4656904Y13666465D01*
X4659134Y13662604D01*
X4719505Y13558036D01*
X4808036Y13469505D01*
X4916464Y13406905D01*
X4916463Y13406905D01*
X4986286Y13388196D01*
X5037396Y13374501D01*
X5037397Y13374500D01*
X5037399Y13374500D01*
X5162603Y13374500D01*
X5162603Y13374501D01*
X5283536Y13406905D01*
X5391964Y13469505D01*
X5480495Y13558036D01*
X5543095Y13666464D01*
X5575499Y13787397D01*
X5575500Y13787397D01*
X5575500Y13912603D01*
X5575499Y13912604D01*
X6224500Y13912604D01*
X6224500Y13787397D01*
X6256904Y13666465D01*
X6259134Y13662604D01*
X6319505Y13558036D01*
X6408036Y13469505D01*
X6516464Y13406905D01*
X6516463Y13406905D01*
X6586286Y13388196D01*
X6637396Y13374501D01*
X6637397Y13374500D01*
X6637399Y13374500D01*
X6762603Y13374500D01*
X6762603Y13374501D01*
X6883536Y13406905D01*
X6991964Y13469505D01*
X7080495Y13558036D01*
X7140866Y13662604D01*
X19024500Y13662604D01*
X19024500Y13537397D01*
X19056904Y13416465D01*
X19081133Y13374500D01*
X19119505Y13308036D01*
X19208036Y13219505D01*
X19316464Y13156905D01*
X19316463Y13156905D01*
X19383550Y13138929D01*
X19437396Y13124501D01*
X19437397Y13124500D01*
X19437399Y13124500D01*
X19562603Y13124500D01*
X19562603Y13124501D01*
X19586463Y13130895D01*
X19616452Y13138929D01*
X19662418Y13151247D01*
X19683536Y13156905D01*
X19791964Y13219505D01*
X19880495Y13308036D01*
X19943095Y13416464D01*
X19975499Y13537397D01*
X19975500Y13537397D01*
X19975500Y13662603D01*
X19975499Y13662604D01*
X19974464Y13666465D01*
X19943095Y13783536D01*
X19880495Y13891964D01*
X19791964Y13980495D01*
X19791963Y13980496D01*
X19683534Y14043096D01*
X19683536Y14043096D01*
X19562603Y14075500D01*
X19562601Y14075500D01*
X19437399Y14075500D01*
X19437397Y14075500D01*
X19316464Y14043096D01*
X19208036Y13980496D01*
X19119504Y13891964D01*
X19056904Y13783536D01*
X19024500Y13662604D01*
X7140866Y13662604D01*
X7143095Y13666464D01*
X7175499Y13787397D01*
X7175500Y13787397D01*
X7175500Y13912603D01*
X7175499Y13912604D01*
X7157307Y13980495D01*
X7143095Y14033536D01*
X7080495Y14141964D01*
X6991964Y14230495D01*
X6991963Y14230496D01*
X6883534Y14293096D01*
X6883536Y14293096D01*
X6762603Y14325500D01*
X6762601Y14325500D01*
X6637399Y14325500D01*
X6637397Y14325500D01*
X6516464Y14293096D01*
X6408036Y14230496D01*
X6319504Y14141964D01*
X6256904Y14033536D01*
X6224500Y13912604D01*
X5575499Y13912604D01*
X5557307Y13980495D01*
X5543095Y14033536D01*
X5480495Y14141964D01*
X5391964Y14230495D01*
X5391963Y14230496D01*
X5283534Y14293096D01*
X5283536Y14293096D01*
X5162603Y14325500D01*
X5162601Y14325500D01*
X5037399Y14325500D01*
X5037397Y14325500D01*
X4916464Y14293096D01*
X4808036Y14230496D01*
X4719504Y14141964D01*
X4656904Y14033536D01*
X4624500Y13912604D01*
X300500Y13912604D01*
X300500Y14862604D01*
X1274500Y14862604D01*
X1274500Y14737397D01*
X1306904Y14616465D01*
X1360000Y14524500D01*
X1369505Y14508036D01*
X1458036Y14419505D01*
X1566464Y14356905D01*
X1566463Y14356905D01*
X1636286Y14338196D01*
X1687396Y14324501D01*
X1687397Y14324500D01*
X1687399Y14324500D01*
X1812603Y14324500D01*
X1812603Y14324501D01*
X1933536Y14356905D01*
X2041964Y14419505D01*
X2130495Y14508036D01*
X2193095Y14616464D01*
X2225499Y14737397D01*
X2225500Y14737397D01*
X2225500Y14862603D01*
X2225499Y14862604D01*
X2193095Y14983536D01*
X2130495Y15091964D01*
X2041963Y15180496D01*
X1933534Y15243096D01*
X1933536Y15243096D01*
X1812603Y15275500D01*
X1812601Y15275500D01*
X1687399Y15275500D01*
X1687397Y15275500D01*
X1566464Y15243096D01*
X1458036Y15180496D01*
X1369504Y15091964D01*
X1306904Y14983536D01*
X1274500Y14862604D01*
X300500Y14862604D01*
X300500Y18662604D01*
X5324500Y18662604D01*
X5324500Y18537397D01*
X5356904Y18416465D01*
X5359134Y18412604D01*
X5419505Y18308036D01*
X5508036Y18219505D01*
X5616464Y18156905D01*
X5616463Y18156905D01*
X5686286Y18138196D01*
X5737396Y18124501D01*
X5737397Y18124500D01*
X5737399Y18124500D01*
X5862603Y18124500D01*
X5862603Y18124501D01*
X5983536Y18156905D01*
X6014079Y18174539D01*
X6040143Y18189586D01*
X6077142Y18199500D01*
X7389564Y18199500D01*
X7389564Y18199501D01*
X7465989Y18219979D01*
X7534511Y18259540D01*
X7590460Y18315489D01*
X7687575Y18412604D01*
X10874500Y18412604D01*
X10874500Y18287397D01*
X10906904Y18166465D01*
X10931133Y18124500D01*
X10969505Y18058036D01*
X11058036Y17969505D01*
X11166464Y17906905D01*
X11166463Y17906905D01*
X11236286Y17888196D01*
X11287396Y17874501D01*
X11287397Y17874500D01*
X11287399Y17874500D01*
X11412603Y17874500D01*
X11412603Y17874501D01*
X11533536Y17906905D01*
X11641964Y17969505D01*
X11730495Y18058036D01*
X11793095Y18166464D01*
X11825499Y18287397D01*
X11825500Y18287397D01*
X11825500Y18412603D01*
X11825499Y18412604D01*
X12174500Y18412604D01*
X12174500Y18287397D01*
X12206904Y18166465D01*
X12231133Y18124500D01*
X12269505Y18058036D01*
X12358036Y17969505D01*
X12466464Y17906905D01*
X12466463Y17906905D01*
X12536286Y17888196D01*
X12587396Y17874501D01*
X12587397Y17874500D01*
X12587399Y17874500D01*
X12712603Y17874500D01*
X12712603Y17874501D01*
X12833536Y17906905D01*
X12941964Y17969505D01*
X13030495Y18058036D01*
X13093095Y18166464D01*
X13125499Y18287397D01*
X13125500Y18287397D01*
X13125500Y18412603D01*
X13125499Y18412604D01*
X13124464Y18416465D01*
X13093095Y18533536D01*
X13030495Y18641964D01*
X12941964Y18730495D01*
X12941963Y18730496D01*
X12833534Y18793096D01*
X12833536Y18793096D01*
X12712603Y18825500D01*
X12712601Y18825500D01*
X12587399Y18825500D01*
X12587397Y18825500D01*
X12466464Y18793096D01*
X12358036Y18730496D01*
X12269504Y18641964D01*
X12206904Y18533536D01*
X12174500Y18412604D01*
X11825499Y18412604D01*
X11824464Y18416465D01*
X11793095Y18533536D01*
X11730495Y18641964D01*
X11641964Y18730495D01*
X11641963Y18730496D01*
X11533534Y18793096D01*
X11533536Y18793096D01*
X11412603Y18825500D01*
X11412601Y18825500D01*
X11287399Y18825500D01*
X11287397Y18825500D01*
X11166464Y18793096D01*
X11058036Y18730496D01*
X10969504Y18641964D01*
X10906904Y18533536D01*
X10874500Y18412604D01*
X7687575Y18412604D01*
X8987575Y19712604D01*
X10874500Y19712604D01*
X10874500Y19587397D01*
X10906904Y19466465D01*
X10954783Y19383536D01*
X10969505Y19358036D01*
X11058036Y19269505D01*
X11166464Y19206905D01*
X11166463Y19206905D01*
X11236286Y19188196D01*
X11287396Y19174501D01*
X11287397Y19174500D01*
X11287399Y19174500D01*
X11412603Y19174500D01*
X11412603Y19174501D01*
X11533536Y19206905D01*
X11641964Y19269505D01*
X11730495Y19358036D01*
X11793095Y19466464D01*
X11825499Y19587397D01*
X11825500Y19587397D01*
X11825500Y19712603D01*
X11825499Y19712604D01*
X12174500Y19712604D01*
X12174500Y19587397D01*
X12206904Y19466465D01*
X12254783Y19383536D01*
X12269505Y19358036D01*
X12358036Y19269505D01*
X12466464Y19206905D01*
X12466463Y19206905D01*
X12536286Y19188196D01*
X12587396Y19174501D01*
X12587397Y19174500D01*
X12587399Y19174500D01*
X12712603Y19174500D01*
X12712603Y19174501D01*
X12833536Y19206905D01*
X12941964Y19269505D01*
X13030495Y19358036D01*
X13093095Y19466464D01*
X13125499Y19587397D01*
X13125500Y19587397D01*
X13125500Y19712603D01*
X13125499Y19712604D01*
X13093095Y19833536D01*
X13030495Y19941964D01*
X12941963Y20030496D01*
X12833534Y20093096D01*
X12833536Y20093096D01*
X12712603Y20125500D01*
X12712601Y20125500D01*
X12587399Y20125500D01*
X12587397Y20125500D01*
X12466464Y20093096D01*
X12358036Y20030496D01*
X12269504Y19941964D01*
X12206904Y19833536D01*
X12174500Y19712604D01*
X11825499Y19712604D01*
X11793095Y19833536D01*
X11730495Y19941964D01*
X11641963Y20030496D01*
X11533534Y20093096D01*
X11533536Y20093096D01*
X11412603Y20125500D01*
X11412601Y20125500D01*
X11287399Y20125500D01*
X11287397Y20125500D01*
X11166464Y20093096D01*
X11058036Y20030496D01*
X10969504Y19941964D01*
X10906904Y19833536D01*
X10874500Y19712604D01*
X8987575Y19712604D01*
X10440460Y21165489D01*
X10480022Y21234012D01*
X10500500Y21310438D01*
X10500500Y21389562D01*
X10500500Y24239562D01*
X10500500Y24239564D01*
X10500499Y24239565D01*
X10480022Y24315986D01*
X10480020Y24315991D01*
X10440459Y24384512D01*
X10297174Y24527797D01*
X10275500Y24580123D01*
X10275500Y24662603D01*
X10275499Y24662604D01*
X10243095Y24783536D01*
X10180495Y24891964D01*
X10091963Y24980496D01*
X9983534Y25043096D01*
X9983536Y25043096D01*
X9862603Y25075500D01*
X9862601Y25075500D01*
X9737399Y25075500D01*
X9737397Y25075500D01*
X9616464Y25043096D01*
X9508036Y24980496D01*
X9419504Y24891964D01*
X9356904Y24783536D01*
X9324500Y24662604D01*
X9324500Y24537397D01*
X9356904Y24416465D01*
X9401304Y24339562D01*
X9419505Y24308036D01*
X9508036Y24219505D01*
X9616464Y24156905D01*
X9616463Y24156905D01*
X9686286Y24138196D01*
X9737396Y24124501D01*
X9737397Y24124500D01*
X9737399Y24124500D01*
X9819877Y24124500D01*
X9872203Y24102826D01*
X9877826Y24097203D01*
X9899500Y24044877D01*
X9899500Y21505123D01*
X9877826Y21452797D01*
X7247203Y18822174D01*
X7194877Y18800500D01*
X6276025Y18800500D01*
X6223699Y18822174D01*
X6211939Y18837501D01*
X6180495Y18891964D01*
X6091963Y18980496D01*
X5983534Y19043096D01*
X5983536Y19043096D01*
X5862603Y19075500D01*
X5862601Y19075500D01*
X5737399Y19075500D01*
X5737397Y19075500D01*
X5616464Y19043096D01*
X5508036Y18980496D01*
X5419504Y18891964D01*
X5356904Y18783536D01*
X5324500Y18662604D01*
X300500Y18662604D01*
X300500Y19262604D01*
X2824500Y19262604D01*
X2824500Y19137397D01*
X2856904Y19016465D01*
X2877671Y18980496D01*
X2919505Y18908036D01*
X3008036Y18819505D01*
X3116464Y18756905D01*
X3116463Y18756905D01*
X3183550Y18738929D01*
X3237396Y18724501D01*
X3237397Y18724500D01*
X3237399Y18724500D01*
X3362603Y18724500D01*
X3362603Y18724501D01*
X3386463Y18730895D01*
X3416452Y18738929D01*
X3462418Y18751247D01*
X3483536Y18756905D01*
X3591964Y18819505D01*
X3680495Y18908036D01*
X3743095Y19016464D01*
X3775499Y19137397D01*
X3775500Y19137397D01*
X3775500Y19262603D01*
X3775499Y19262604D01*
X3743095Y19383536D01*
X3680495Y19491964D01*
X3591963Y19580496D01*
X3483534Y19643096D01*
X3483535Y19643096D01*
X3472797Y19645973D01*
X3362603Y19675500D01*
X3362601Y19675500D01*
X3237399Y19675500D01*
X3237397Y19675500D01*
X3116464Y19643096D01*
X3008036Y19580496D01*
X2919504Y19491964D01*
X2856904Y19383536D01*
X2824500Y19262604D01*
X300500Y19262604D01*
X300500Y19712604D01*
X6674500Y19712604D01*
X6674500Y19587397D01*
X6706904Y19466465D01*
X6754783Y19383536D01*
X6769505Y19358036D01*
X6858036Y19269505D01*
X6966464Y19206905D01*
X6966463Y19206905D01*
X7036286Y19188196D01*
X7087396Y19174501D01*
X7087397Y19174500D01*
X7087399Y19174500D01*
X7212603Y19174500D01*
X7212603Y19174501D01*
X7333536Y19206905D01*
X7441964Y19269505D01*
X7530495Y19358036D01*
X7593095Y19466464D01*
X7625499Y19587397D01*
X7625500Y19587397D01*
X7625500Y19669877D01*
X7647174Y19722203D01*
X8462370Y20537399D01*
X9340460Y21415489D01*
X9380021Y21484011D01*
X9400499Y21560436D01*
X9400500Y21560436D01*
X9400500Y23197389D01*
X9422174Y23249715D01*
X9480495Y23308036D01*
X9543095Y23416464D01*
X9575499Y23537397D01*
X9575500Y23537397D01*
X9575500Y23662603D01*
X9575499Y23662604D01*
X9545240Y23775529D01*
X9543095Y23783536D01*
X9480495Y23891964D01*
X9391964Y23980495D01*
X9391963Y23980496D01*
X9283534Y24043096D01*
X9283536Y24043096D01*
X9162603Y24075500D01*
X9162601Y24075500D01*
X9037399Y24075500D01*
X9037397Y24075500D01*
X8916464Y24043096D01*
X8808036Y23980496D01*
X8719504Y23891964D01*
X8656904Y23783536D01*
X8624500Y23662604D01*
X8624500Y23537397D01*
X8656904Y23416465D01*
X8719504Y23308037D01*
X8777826Y23249715D01*
X8799500Y23197389D01*
X8799500Y21755123D01*
X8777826Y21702797D01*
X7222203Y20147174D01*
X7169877Y20125500D01*
X7087397Y20125500D01*
X6966464Y20093096D01*
X6858036Y20030496D01*
X6769504Y19941964D01*
X6706904Y19833536D01*
X6674500Y19712604D01*
X300500Y19712604D01*
X300500Y20662604D01*
X3924500Y20662604D01*
X3924500Y20537397D01*
X3956904Y20416465D01*
X3966122Y20400500D01*
X4019505Y20308036D01*
X4108036Y20219505D01*
X4216464Y20156905D01*
X4216463Y20156905D01*
X4286286Y20138196D01*
X4337396Y20124501D01*
X4337397Y20124500D01*
X4337399Y20124500D01*
X4462603Y20124500D01*
X4462603Y20124501D01*
X4583536Y20156905D01*
X4691964Y20219505D01*
X4780495Y20308036D01*
X4843095Y20416464D01*
X4875499Y20537397D01*
X4875500Y20537397D01*
X4875500Y20662603D01*
X4875499Y20662604D01*
X4843095Y20783536D01*
X4780495Y20891964D01*
X4691963Y20980496D01*
X4583534Y21043096D01*
X4583536Y21043096D01*
X4462603Y21075500D01*
X4462601Y21075500D01*
X4337399Y21075500D01*
X4337397Y21075500D01*
X4216464Y21043096D01*
X4108036Y20980496D01*
X4019504Y20891964D01*
X3956904Y20783536D01*
X3924500Y20662604D01*
X300500Y20662604D01*
X300500Y23062604D01*
X3524500Y23062604D01*
X3524500Y22937397D01*
X3556904Y22816465D01*
X3561771Y22808036D01*
X3619505Y22708036D01*
X3708036Y22619505D01*
X3816464Y22556905D01*
X3816463Y22556905D01*
X3886286Y22538196D01*
X3937396Y22524501D01*
X3937397Y22524500D01*
X3937399Y22524500D01*
X4062603Y22524500D01*
X4062603Y22524501D01*
X4183536Y22556905D01*
X4291964Y22619505D01*
X4380495Y22708036D01*
X4443095Y22816464D01*
X4475499Y22937397D01*
X4475500Y22937397D01*
X4475500Y23062603D01*
X4475499Y23062604D01*
X4463325Y23108036D01*
X4443095Y23183536D01*
X4380495Y23291964D01*
X4291964Y23380495D01*
X4291963Y23380496D01*
X4183534Y23443096D01*
X4183536Y23443096D01*
X4062603Y23475500D01*
X4062601Y23475500D01*
X3937399Y23475500D01*
X3937397Y23475500D01*
X3816464Y23443096D01*
X3708036Y23380496D01*
X3619504Y23291964D01*
X3556904Y23183536D01*
X3524500Y23062604D01*
X300500Y23062604D01*
X300500Y26062604D01*
X1524500Y26062604D01*
X1524500Y25937397D01*
X1556904Y25816465D01*
X1594989Y25750500D01*
X1619505Y25708036D01*
X1708036Y25619505D01*
X1816464Y25556905D01*
X1816463Y25556905D01*
X1886286Y25538196D01*
X1937396Y25524501D01*
X1937397Y25524500D01*
X1937399Y25524500D01*
X2062603Y25524500D01*
X2062603Y25524501D01*
X2183536Y25556905D01*
X2291964Y25619505D01*
X2380495Y25708036D01*
X2443095Y25816464D01*
X2475499Y25937397D01*
X2475500Y25937397D01*
X2475500Y26062603D01*
X2475499Y26062604D01*
X2463325Y26108036D01*
X2443095Y26183536D01*
X2380495Y26291964D01*
X2291964Y26380495D01*
X2291963Y26380496D01*
X2183534Y26443096D01*
X2183536Y26443096D01*
X2062603Y26475500D01*
X2062601Y26475500D01*
X1937399Y26475500D01*
X1937397Y26475500D01*
X1816464Y26443096D01*
X1708036Y26380496D01*
X1619504Y26291964D01*
X1556904Y26183536D01*
X1524500Y26062604D01*
X300500Y26062604D01*
X300500Y29062604D01*
X1024500Y29062604D01*
X1024500Y28937397D01*
X1056904Y28816465D01*
X1102554Y28737397D01*
X1119505Y28708036D01*
X1208036Y28619505D01*
X1316464Y28556905D01*
X1316463Y28556905D01*
X1386286Y28538196D01*
X1437396Y28524501D01*
X1437397Y28524500D01*
X1437399Y28524500D01*
X1562603Y28524500D01*
X1562603Y28524501D01*
X1683536Y28556905D01*
X1791964Y28619505D01*
X1880495Y28708036D01*
X1943095Y28816464D01*
X1975499Y28937397D01*
X1975500Y28937397D01*
X1975500Y29062603D01*
X1975499Y29062604D01*
X1943095Y29183536D01*
X1880495Y29291964D01*
X1791963Y29380496D01*
X1683534Y29443096D01*
X1683536Y29443096D01*
X1562603Y29475500D01*
X1562601Y29475500D01*
X1437399Y29475500D01*
X1437397Y29475500D01*
X1316464Y29443096D01*
X1208036Y29380496D01*
X1119504Y29291964D01*
X1056904Y29183536D01*
X1024500Y29062604D01*
X300500Y29062604D01*
X300500Y32062604D01*
X1024500Y32062604D01*
X1024500Y31937397D01*
X1056904Y31816465D01*
X1071050Y31791964D01*
X1119505Y31708036D01*
X1208036Y31619505D01*
X1316464Y31556905D01*
X1316463Y31556905D01*
X1386286Y31538196D01*
X1437396Y31524501D01*
X1437397Y31524500D01*
X1437399Y31524500D01*
X1562603Y31524500D01*
X1562603Y31524501D01*
X1683536Y31556905D01*
X1791964Y31619505D01*
X1880495Y31708036D01*
X1943095Y31816464D01*
X1975499Y31937397D01*
X1975500Y31937397D01*
X1975500Y32062603D01*
X1975499Y32062604D01*
X1963325Y32108036D01*
X1943095Y32183536D01*
X1880495Y32291964D01*
X1791964Y32380495D01*
X1791963Y32380496D01*
X1683534Y32443096D01*
X1683536Y32443096D01*
X1562603Y32475500D01*
X1562601Y32475500D01*
X1437399Y32475500D01*
X1437397Y32475500D01*
X1316464Y32443096D01*
X1208036Y32380496D01*
X1119504Y32291964D01*
X1056904Y32183536D01*
X1024500Y32062604D01*
X300500Y32062604D01*
X300500Y33062604D01*
X4524500Y33062604D01*
X4524500Y32937397D01*
X4556904Y32816465D01*
X4619504Y32708037D01*
X4627826Y32699715D01*
X4649500Y32647389D01*
X4649500Y28053854D01*
X4663796Y28000502D01*
X4663796Y28000501D01*
X4673384Y27964717D01*
X4673386Y27964712D01*
X4719530Y27884788D01*
X7484788Y25119530D01*
X7564712Y25073386D01*
X7564713Y25073386D01*
X7564715Y25073385D01*
X7609284Y25061443D01*
X7653853Y25049501D01*
X7653854Y25049500D01*
X7653856Y25049500D01*
X8846146Y25049500D01*
X8846146Y25049501D01*
X8935288Y25073386D01*
X9015212Y25119530D01*
X9123508Y25227826D01*
X9175834Y25249500D01*
X10094877Y25249500D01*
X10147203Y25227826D01*
X11177826Y24197203D01*
X11199500Y24144877D01*
X11199500Y23802611D01*
X11177826Y23750285D01*
X11119504Y23691964D01*
X11056904Y23583536D01*
X11024500Y23462604D01*
X11024500Y23337397D01*
X11056904Y23216465D01*
X11088001Y23162604D01*
X11119505Y23108036D01*
X11208036Y23019505D01*
X11316464Y22956905D01*
X11316463Y22956905D01*
X11386286Y22938196D01*
X11437396Y22924501D01*
X11437397Y22924500D01*
X11437399Y22924500D01*
X11562603Y22924500D01*
X11562603Y22924501D01*
X11683536Y22956905D01*
X11791964Y23019505D01*
X11880495Y23108036D01*
X11943095Y23216464D01*
X11975499Y23337397D01*
X11975500Y23337397D01*
X11975500Y23462603D01*
X11975499Y23462604D01*
X11972043Y23475500D01*
X11943095Y23583536D01*
X11880495Y23691964D01*
X11822174Y23750285D01*
X11800500Y23802611D01*
X11800500Y24339562D01*
X11788456Y24384512D01*
X11788456Y24384513D01*
X11785082Y24397102D01*
X11780022Y24415988D01*
X11756987Y24455885D01*
X11740462Y24484508D01*
X11740461Y24484509D01*
X11740460Y24484511D01*
X10554151Y25670820D01*
X10534999Y25703992D01*
X10526614Y25735288D01*
X10507084Y25769114D01*
X10480471Y25815209D01*
X10480470Y25815210D01*
X10480469Y25815212D01*
X10415212Y25880469D01*
X10415209Y25880471D01*
X10415208Y25880472D01*
X10335289Y25926614D01*
X10335284Y25926616D01*
X10246146Y25950500D01*
X10246144Y25950500D01*
X8953856Y25950500D01*
X8953854Y25950500D01*
X8864715Y25926616D01*
X8864710Y25926614D01*
X8784787Y25880470D01*
X8676492Y25772174D01*
X8624166Y25750500D01*
X7875834Y25750500D01*
X7823508Y25772174D01*
X7033078Y26562604D01*
X8024500Y26562604D01*
X8024500Y26437397D01*
X8056904Y26316465D01*
X8114639Y26216465D01*
X8119505Y26208036D01*
X8208036Y26119505D01*
X8316464Y26056905D01*
X8316463Y26056905D01*
X8386286Y26038196D01*
X8437396Y26024501D01*
X8437397Y26024500D01*
X8437399Y26024500D01*
X8562603Y26024500D01*
X8562603Y26024501D01*
X8683536Y26056905D01*
X8791964Y26119505D01*
X8880495Y26208036D01*
X8943095Y26316464D01*
X8975499Y26437397D01*
X8975500Y26437397D01*
X8975500Y26562603D01*
X8975499Y26562604D01*
X8952538Y26648298D01*
X8948704Y26662604D01*
X9224500Y26662604D01*
X9224500Y26537397D01*
X9256904Y26416465D01*
X9314639Y26316465D01*
X9319505Y26308036D01*
X9408036Y26219505D01*
X9516464Y26156905D01*
X9516463Y26156905D01*
X9586286Y26138196D01*
X9637396Y26124501D01*
X9637397Y26124500D01*
X9637399Y26124500D01*
X9762603Y26124500D01*
X9762603Y26124501D01*
X9883536Y26156905D01*
X9991964Y26219505D01*
X10050285Y26277826D01*
X10102611Y26299500D01*
X10244877Y26299500D01*
X10297203Y26277826D01*
X13477826Y23097203D01*
X13499500Y23044877D01*
X13499500Y16752611D01*
X13477826Y16700285D01*
X13419504Y16641964D01*
X13356904Y16533536D01*
X13324500Y16412604D01*
X13324500Y16287397D01*
X13356904Y16166465D01*
X13394989Y16100500D01*
X13419505Y16058036D01*
X13508036Y15969505D01*
X13616464Y15906905D01*
X13616463Y15906905D01*
X13686286Y15888196D01*
X13737396Y15874501D01*
X13737397Y15874500D01*
X13737399Y15874500D01*
X13862603Y15874500D01*
X13862603Y15874501D01*
X13983536Y15906905D01*
X14091964Y15969505D01*
X14180495Y16058036D01*
X14243095Y16166464D01*
X14275499Y16287397D01*
X14275500Y16287397D01*
X14275500Y16412603D01*
X14275499Y16412604D01*
X14272311Y16424500D01*
X14243095Y16533536D01*
X14180495Y16641964D01*
X14122174Y16700285D01*
X14100500Y16752611D01*
X14100500Y23239564D01*
X14100499Y23239565D01*
X14080022Y23315986D01*
X14080020Y23315991D01*
X14054357Y23360440D01*
X14040460Y23384511D01*
X13984511Y23440460D01*
X10584511Y26840460D01*
X10579947Y26843095D01*
X10579946Y26843096D01*
X10515990Y26880021D01*
X10515985Y26880023D01*
X10439564Y26900500D01*
X10439562Y26900500D01*
X10102611Y26900500D01*
X10050285Y26922174D01*
X9991963Y26980496D01*
X9883534Y27043096D01*
X9883536Y27043096D01*
X9762603Y27075500D01*
X9762601Y27075500D01*
X9637399Y27075500D01*
X9637397Y27075500D01*
X9516464Y27043096D01*
X9408036Y26980496D01*
X9319504Y26891964D01*
X9256904Y26783536D01*
X9224500Y26662604D01*
X8948704Y26662604D01*
X8943095Y26683537D01*
X8880495Y26791964D01*
X8851041Y26821418D01*
X8829367Y26873744D01*
X8851041Y26926070D01*
X9302797Y27377826D01*
X9355123Y27399500D01*
X10644877Y27399500D01*
X10697203Y27377826D01*
X14877826Y23197203D01*
X14899500Y23144877D01*
X14899500Y15952611D01*
X14877826Y15900285D01*
X14819504Y15841964D01*
X14756904Y15733536D01*
X14724500Y15612604D01*
X14724500Y15487397D01*
X14756904Y15366465D01*
X14756905Y15366464D01*
X14819505Y15258036D01*
X14908036Y15169505D01*
X15016464Y15106905D01*
X15016463Y15106905D01*
X15086286Y15088196D01*
X15137396Y15074501D01*
X15137397Y15074500D01*
X15137399Y15074500D01*
X15262603Y15074500D01*
X15262603Y15074501D01*
X15383536Y15106905D01*
X15491964Y15169505D01*
X15580495Y15258036D01*
X15643095Y15366464D01*
X15675499Y15487397D01*
X15675500Y15487397D01*
X15675500Y15612603D01*
X15675499Y15612604D01*
X15672311Y15624500D01*
X15643095Y15733536D01*
X15580495Y15841964D01*
X15522174Y15900285D01*
X15500500Y15952611D01*
X15500500Y23339563D01*
X15494906Y23360438D01*
X15494905Y23360440D01*
X15480022Y23415988D01*
X15440460Y23484511D01*
X10984511Y27940460D01*
X10915990Y27980021D01*
X10915985Y27980023D01*
X10839564Y28000500D01*
X10839562Y28000500D01*
X9160438Y28000500D01*
X9160436Y28000500D01*
X9084014Y27980023D01*
X9084009Y27980021D01*
X9015488Y27940460D01*
X8259540Y27184512D01*
X8219979Y27115991D01*
X8219977Y27115986D01*
X8199500Y27039565D01*
X8199500Y26902611D01*
X8177826Y26850285D01*
X8119504Y26791964D01*
X8056904Y26683536D01*
X8024500Y26562604D01*
X7033078Y26562604D01*
X5372174Y28223508D01*
X5350500Y28275834D01*
X5350500Y29362604D01*
X7724500Y29362604D01*
X7724500Y29237397D01*
X7756904Y29116465D01*
X7788001Y29062604D01*
X7819505Y29008036D01*
X7908036Y28919505D01*
X8016464Y28856905D01*
X8016463Y28856905D01*
X8086286Y28838196D01*
X8137396Y28824501D01*
X8137397Y28824500D01*
X8137399Y28824500D01*
X8262603Y28824500D01*
X8262603Y28824501D01*
X8383536Y28856905D01*
X8491964Y28919505D01*
X8550285Y28977826D01*
X8602611Y28999500D01*
X10744877Y28999500D01*
X10797203Y28977826D01*
X15977826Y23797203D01*
X15999500Y23744877D01*
X15999500Y15255123D01*
X15977826Y15202797D01*
X15872203Y15097174D01*
X15819877Y15075500D01*
X15737397Y15075500D01*
X15616464Y15043096D01*
X15508036Y14980496D01*
X15419504Y14891964D01*
X15356904Y14783536D01*
X15324500Y14662604D01*
X15324500Y14537397D01*
X15356904Y14416465D01*
X15410000Y14324500D01*
X15419505Y14308036D01*
X15508036Y14219505D01*
X15616464Y14156905D01*
X15616463Y14156905D01*
X15686286Y14138196D01*
X15737396Y14124501D01*
X15737397Y14124500D01*
X15737399Y14124500D01*
X15862603Y14124500D01*
X15862603Y14124501D01*
X15983536Y14156905D01*
X16091964Y14219505D01*
X16180495Y14308036D01*
X16243095Y14416464D01*
X16275499Y14537397D01*
X16275500Y14537397D01*
X16275500Y14619878D01*
X16297173Y14672203D01*
X16540460Y14915489D01*
X16580022Y14984012D01*
X16600500Y15060438D01*
X16600500Y15062604D01*
X17524500Y15062604D01*
X17524500Y14937397D01*
X17556904Y14816465D01*
X17602554Y14737397D01*
X17619505Y14708036D01*
X17708036Y14619505D01*
X17816464Y14556905D01*
X17816463Y14556905D01*
X17886286Y14538196D01*
X17937396Y14524501D01*
X17937397Y14524500D01*
X17937399Y14524500D01*
X18062603Y14524500D01*
X18062603Y14524501D01*
X18183536Y14556905D01*
X18291964Y14619505D01*
X18380495Y14708036D01*
X18443095Y14816464D01*
X18475499Y14937397D01*
X18475500Y14937397D01*
X18475500Y15062603D01*
X18475499Y15062604D01*
X18472311Y15074500D01*
X18443095Y15183536D01*
X18380495Y15291964D01*
X18291964Y15380495D01*
X18291963Y15380496D01*
X18183534Y15443096D01*
X18183536Y15443096D01*
X18062603Y15475500D01*
X18062601Y15475500D01*
X17937399Y15475500D01*
X17937397Y15475500D01*
X17816464Y15443096D01*
X17708036Y15380496D01*
X17619504Y15291964D01*
X17556904Y15183536D01*
X17524500Y15062604D01*
X16600500Y15062604D01*
X16600500Y15139562D01*
X16600500Y16162604D01*
X21024500Y16162604D01*
X21024500Y16037397D01*
X21056904Y15916465D01*
X21101304Y15839562D01*
X21119505Y15808036D01*
X21208036Y15719505D01*
X21316464Y15656905D01*
X21316463Y15656905D01*
X21386286Y15638196D01*
X21437396Y15624501D01*
X21437397Y15624500D01*
X21437399Y15624500D01*
X21562603Y15624500D01*
X21562603Y15624501D01*
X21683536Y15656905D01*
X21791964Y15719505D01*
X21880495Y15808036D01*
X21943095Y15916464D01*
X21975499Y16037397D01*
X21975500Y16037397D01*
X21975500Y16162603D01*
X21975499Y16162604D01*
X21974464Y16166465D01*
X21943095Y16283536D01*
X21880495Y16391964D01*
X21791964Y16480495D01*
X21791963Y16480496D01*
X21683534Y16543096D01*
X21683536Y16543096D01*
X21562603Y16575500D01*
X21562601Y16575500D01*
X21437399Y16575500D01*
X21437397Y16575500D01*
X21316464Y16543096D01*
X21208036Y16480496D01*
X21119504Y16391964D01*
X21056904Y16283536D01*
X21024500Y16162604D01*
X16600500Y16162604D01*
X16600500Y16962604D01*
X18424500Y16962604D01*
X18424500Y16837397D01*
X18456904Y16716465D01*
X18466246Y16700285D01*
X18519505Y16608036D01*
X18608036Y16519505D01*
X18716464Y16456905D01*
X18716463Y16456905D01*
X18786286Y16438196D01*
X18837396Y16424501D01*
X18837397Y16424500D01*
X18837399Y16424500D01*
X18962603Y16424500D01*
X18962603Y16424501D01*
X19083536Y16456905D01*
X19191964Y16519505D01*
X19280495Y16608036D01*
X19343095Y16716464D01*
X19375499Y16837397D01*
X19375500Y16837397D01*
X19375500Y16962603D01*
X19375499Y16962604D01*
X19343095Y17083536D01*
X19280495Y17191964D01*
X19191963Y17280496D01*
X19083534Y17343096D01*
X19083536Y17343096D01*
X18962603Y17375500D01*
X18962601Y17375500D01*
X18837399Y17375500D01*
X18837397Y17375500D01*
X18716464Y17343096D01*
X18608036Y17280496D01*
X18519504Y17191964D01*
X18456904Y17083536D01*
X18424500Y16962604D01*
X16600500Y16962604D01*
X16600500Y20065895D01*
X20099500Y20065895D01*
X20099500Y19934106D01*
X20133606Y19806819D01*
X20133607Y19806816D01*
X20133608Y19806814D01*
X20199500Y19692686D01*
X20292686Y19599500D01*
X20406814Y19533608D01*
X20534105Y19499501D01*
X20534106Y19499500D01*
X20534108Y19499500D01*
X20665894Y19499500D01*
X20665894Y19499501D01*
X20793186Y19533608D01*
X20907314Y19599500D01*
X21000500Y19692686D01*
X21066392Y19806814D01*
X21100499Y19934106D01*
X21100500Y19934106D01*
X21100500Y20065894D01*
X21100499Y20065895D01*
X21599500Y20065895D01*
X21599500Y19934106D01*
X21633606Y19806819D01*
X21633607Y19806816D01*
X21633608Y19806814D01*
X21699500Y19692686D01*
X21792686Y19599500D01*
X21906814Y19533608D01*
X22034105Y19499501D01*
X22034106Y19499500D01*
X22034108Y19499500D01*
X22165892Y19499500D01*
X23175500Y19499500D01*
X23227826Y19477826D01*
X23249500Y19425500D01*
X23249500Y13535933D01*
X23274497Y13410261D01*
X23274498Y13410258D01*
X23316839Y13308037D01*
X23323535Y13291873D01*
X23394724Y13185331D01*
X23485331Y13094724D01*
X23591873Y13023535D01*
X23710256Y12974499D01*
X23710258Y12974499D01*
X23710260Y12974498D01*
X23752903Y12966016D01*
X23835931Y12949500D01*
X23835933Y12949500D01*
X23964067Y12949500D01*
X23964069Y12949500D01*
X24089744Y12974499D01*
X24208127Y13023535D01*
X24314669Y13094724D01*
X24382549Y13162604D01*
X27724500Y13162604D01*
X27724500Y13037397D01*
X27756904Y12916465D01*
X27814639Y12816465D01*
X27819505Y12808036D01*
X27908036Y12719505D01*
X28016464Y12656905D01*
X28016463Y12656905D01*
X28086286Y12638196D01*
X28137396Y12624501D01*
X28137397Y12624500D01*
X28137399Y12624500D01*
X28262603Y12624500D01*
X28262603Y12624501D01*
X28383536Y12656905D01*
X28491964Y12719505D01*
X28580495Y12808036D01*
X28643095Y12916464D01*
X28675499Y13037397D01*
X28675500Y13037397D01*
X28675500Y13162603D01*
X28675499Y13162604D01*
X28643095Y13283536D01*
X28580495Y13391964D01*
X28491963Y13480496D01*
X28412584Y13526324D01*
X28383536Y13543095D01*
X28383535Y13543096D01*
X28383536Y13543096D01*
X28262603Y13575500D01*
X28262601Y13575500D01*
X28137399Y13575500D01*
X28137397Y13575500D01*
X28016464Y13543096D01*
X27908036Y13480496D01*
X27819504Y13391964D01*
X27756904Y13283536D01*
X27724500Y13162604D01*
X24382549Y13162604D01*
X24405276Y13185331D01*
X24476465Y13291873D01*
X24525501Y13410256D01*
X24550500Y13535931D01*
X24550500Y16498389D01*
X24572174Y16550715D01*
X24624500Y16572389D01*
X24676826Y16550715D01*
X24708036Y16519505D01*
X24816464Y16456905D01*
X24816463Y16456905D01*
X24886286Y16438196D01*
X24937396Y16424501D01*
X24937397Y16424500D01*
X24937399Y16424500D01*
X25062603Y16424500D01*
X25062603Y16424501D01*
X25183536Y16456905D01*
X25291964Y16519505D01*
X25380495Y16608036D01*
X25443095Y16716464D01*
X25475499Y16837397D01*
X25475500Y16837397D01*
X25475500Y16962603D01*
X25475499Y16962604D01*
X25443095Y17083536D01*
X25380495Y17191964D01*
X25291963Y17280496D01*
X25183534Y17343096D01*
X25183536Y17343096D01*
X25062603Y17375500D01*
X25062601Y17375500D01*
X24937399Y17375500D01*
X24937397Y17375500D01*
X24816464Y17343096D01*
X24708036Y17280496D01*
X24676826Y17249285D01*
X24624500Y17227611D01*
X24572174Y17249285D01*
X24550500Y17301611D01*
X24550500Y21464068D01*
X24525502Y21589740D01*
X24525501Y21589743D01*
X24476466Y21708124D01*
X24476465Y21708127D01*
X24405276Y21814669D01*
X24314669Y21905276D01*
X24310538Y21908036D01*
X24279473Y21928793D01*
X24208127Y21976465D01*
X24208124Y21976467D01*
X24208123Y21976467D01*
X24089742Y22025502D01*
X24089739Y22025503D01*
X23999696Y22043414D01*
X23964069Y22050500D01*
X23835931Y22050500D01*
X23804726Y22044293D01*
X23710260Y22025503D01*
X23710257Y22025502D01*
X23591876Y21976467D01*
X23485331Y21905277D01*
X23485330Y21905275D01*
X23394725Y21814670D01*
X23394723Y21814669D01*
X23323533Y21708124D01*
X23274498Y21589743D01*
X23274497Y21589740D01*
X23249500Y21464068D01*
X23249500Y20574500D01*
X23227826Y20522174D01*
X23175500Y20500500D01*
X22034106Y20500500D01*
X21906818Y20466394D01*
X21906809Y20466390D01*
X21792685Y20400500D01*
X21699500Y20307315D01*
X21633610Y20193191D01*
X21633606Y20193182D01*
X21599500Y20065895D01*
X21100499Y20065895D01*
X21066393Y20193182D01*
X21066392Y20193186D01*
X21000500Y20307314D01*
X20907314Y20400500D01*
X20879662Y20416465D01*
X20793190Y20466390D01*
X20793181Y20466394D01*
X20665894Y20500500D01*
X20665892Y20500500D01*
X20534108Y20500500D01*
X20534106Y20500500D01*
X20406818Y20466394D01*
X20406809Y20466390D01*
X20292685Y20400500D01*
X20199500Y20307315D01*
X20133610Y20193191D01*
X20133606Y20193182D01*
X20099500Y20065895D01*
X16600500Y20065895D01*
X16600500Y22262604D01*
X20424500Y22262604D01*
X20424500Y22137397D01*
X20456904Y22016465D01*
X20456905Y22016464D01*
X20519505Y21908036D01*
X20608036Y21819505D01*
X20716464Y21756905D01*
X20716463Y21756905D01*
X20786286Y21738196D01*
X20837396Y21724501D01*
X20837397Y21724500D01*
X20837399Y21724500D01*
X20962603Y21724500D01*
X20962603Y21724501D01*
X21083536Y21756905D01*
X21191964Y21819505D01*
X21280495Y21908036D01*
X21343095Y22016464D01*
X21375499Y22137397D01*
X21375500Y22137397D01*
X21375500Y22262603D01*
X21375499Y22262604D01*
X21343095Y22383536D01*
X21280495Y22491964D01*
X21191963Y22580496D01*
X21083534Y22643096D01*
X21083536Y22643096D01*
X20962603Y22675500D01*
X20962601Y22675500D01*
X20837399Y22675500D01*
X20837397Y22675500D01*
X20716464Y22643096D01*
X20608036Y22580496D01*
X20519504Y22491964D01*
X20456904Y22383536D01*
X20424500Y22262604D01*
X16600500Y22262604D01*
X16600500Y23162604D01*
X24524500Y23162604D01*
X24524500Y23037397D01*
X24556904Y22916465D01*
X24614639Y22816465D01*
X24619505Y22808036D01*
X24708036Y22719505D01*
X24816464Y22656905D01*
X24816463Y22656905D01*
X24886286Y22638196D01*
X24937396Y22624501D01*
X24937397Y22624500D01*
X24937399Y22624500D01*
X25062603Y22624500D01*
X25062603Y22624501D01*
X25183536Y22656905D01*
X25291964Y22719505D01*
X25380495Y22808036D01*
X25443095Y22916464D01*
X25475499Y23037397D01*
X25475500Y23037397D01*
X25475500Y23162603D01*
X25475499Y23162604D01*
X25443095Y23283536D01*
X25380495Y23391964D01*
X25291963Y23480496D01*
X25183534Y23543096D01*
X25183536Y23543096D01*
X25062603Y23575500D01*
X25062601Y23575500D01*
X24937399Y23575500D01*
X24937397Y23575500D01*
X24816464Y23543096D01*
X24708036Y23480496D01*
X24619504Y23391964D01*
X24556904Y23283536D01*
X24524500Y23162604D01*
X16600500Y23162604D01*
X16600500Y23939562D01*
X16600500Y23939564D01*
X16600499Y23939565D01*
X16580022Y24015986D01*
X16580020Y24015991D01*
X16564371Y24043096D01*
X16540460Y24084511D01*
X16484511Y24140460D01*
X14162367Y26462604D01*
X28224500Y26462604D01*
X28224500Y26337397D01*
X28256904Y26216465D01*
X28310000Y26124500D01*
X28319505Y26108036D01*
X28408036Y26019505D01*
X28516464Y25956905D01*
X28516463Y25956905D01*
X28540367Y25950500D01*
X28637396Y25924501D01*
X28637397Y25924500D01*
X28637399Y25924500D01*
X28762603Y25924500D01*
X28762603Y25924501D01*
X28883536Y25956905D01*
X28991964Y26019505D01*
X29080495Y26108036D01*
X29143095Y26216464D01*
X29175499Y26337397D01*
X29175500Y26337397D01*
X29175500Y26462603D01*
X29175499Y26462604D01*
X29172043Y26475500D01*
X29143095Y26583536D01*
X29080495Y26691964D01*
X28991964Y26780495D01*
X28991963Y26780496D01*
X28883534Y26843096D01*
X28883536Y26843096D01*
X28762603Y26875500D01*
X28762601Y26875500D01*
X28637399Y26875500D01*
X28637397Y26875500D01*
X28516464Y26843096D01*
X28408036Y26780496D01*
X28319504Y26691964D01*
X28256904Y26583536D01*
X28224500Y26462604D01*
X14162367Y26462604D01*
X13562367Y27062604D01*
X20124500Y27062604D01*
X20124500Y26937397D01*
X20156904Y26816465D01*
X20177671Y26780496D01*
X20219505Y26708036D01*
X20308036Y26619505D01*
X20416464Y26556905D01*
X20416463Y26556905D01*
X20483550Y26538929D01*
X20537396Y26524501D01*
X20537397Y26524500D01*
X20537399Y26524500D01*
X20662603Y26524500D01*
X20662603Y26524501D01*
X20686463Y26530895D01*
X20716452Y26538929D01*
X20762418Y26551247D01*
X20783536Y26556905D01*
X20891964Y26619505D01*
X20980495Y26708036D01*
X21043095Y26816464D01*
X21075499Y26937397D01*
X21075500Y26937397D01*
X21075500Y27062603D01*
X21075499Y27062604D01*
X21072043Y27075500D01*
X21043095Y27183536D01*
X20980495Y27291964D01*
X20891964Y27380495D01*
X20891963Y27380496D01*
X20783534Y27443096D01*
X20783536Y27443096D01*
X20662603Y27475500D01*
X20662601Y27475500D01*
X20537399Y27475500D01*
X20537397Y27475500D01*
X20416464Y27443096D01*
X20308036Y27380496D01*
X20219504Y27291964D01*
X20156904Y27183536D01*
X20124500Y27062604D01*
X13562367Y27062604D01*
X12762367Y27862604D01*
X21024500Y27862604D01*
X21024500Y27737397D01*
X21056904Y27616465D01*
X21056905Y27616464D01*
X21119505Y27508036D01*
X21208036Y27419505D01*
X21316464Y27356905D01*
X21316463Y27356905D01*
X21386286Y27338196D01*
X21437396Y27324501D01*
X21437397Y27324500D01*
X21437399Y27324500D01*
X21562603Y27324500D01*
X21562603Y27324501D01*
X21683536Y27356905D01*
X21791964Y27419505D01*
X21880495Y27508036D01*
X21943095Y27616464D01*
X21975499Y27737397D01*
X21975500Y27737397D01*
X21975500Y27862603D01*
X21975499Y27862604D01*
X21943095Y27983536D01*
X21880495Y28091964D01*
X21791963Y28180496D01*
X21683534Y28243096D01*
X21683536Y28243096D01*
X21562603Y28275500D01*
X21562601Y28275500D01*
X21437399Y28275500D01*
X21437397Y28275500D01*
X21316464Y28243096D01*
X21208036Y28180496D01*
X21119504Y28091964D01*
X21056904Y27983536D01*
X21024500Y27862604D01*
X12762367Y27862604D01*
X11762367Y28862604D01*
X13674500Y28862604D01*
X13674500Y28737397D01*
X13706904Y28616465D01*
X13760000Y28524500D01*
X13769505Y28508036D01*
X13858036Y28419505D01*
X13966464Y28356905D01*
X13966463Y28356905D01*
X14036286Y28338196D01*
X14087396Y28324501D01*
X14087397Y28324500D01*
X14087399Y28324500D01*
X14212603Y28324500D01*
X14212603Y28324501D01*
X14333536Y28356905D01*
X14441964Y28419505D01*
X14530495Y28508036D01*
X14593095Y28616464D01*
X14625499Y28737397D01*
X14625500Y28737397D01*
X14625500Y28862603D01*
X14625499Y28862604D01*
X14593095Y28983536D01*
X14530495Y29091964D01*
X14441963Y29180496D01*
X14333534Y29243096D01*
X14333536Y29243096D01*
X14212603Y29275500D01*
X14212601Y29275500D01*
X14087399Y29275500D01*
X14087397Y29275500D01*
X13966464Y29243096D01*
X13858036Y29180496D01*
X13769504Y29091964D01*
X13706904Y28983536D01*
X13674500Y28862604D01*
X11762367Y28862604D01*
X11084511Y29540460D01*
X11015990Y29580021D01*
X11015985Y29580023D01*
X10939564Y29600500D01*
X10939562Y29600500D01*
X8602611Y29600500D01*
X8550285Y29622174D01*
X8491963Y29680496D01*
X8383534Y29743096D01*
X8383536Y29743096D01*
X8262603Y29775500D01*
X8262601Y29775500D01*
X8137399Y29775500D01*
X8137397Y29775500D01*
X8016464Y29743096D01*
X7908036Y29680496D01*
X7819504Y29591964D01*
X7756904Y29483536D01*
X7724500Y29362604D01*
X5350500Y29362604D01*
X5350500Y31062604D01*
X7524500Y31062604D01*
X7524500Y30937397D01*
X7556904Y30816465D01*
X7577671Y30780496D01*
X7619505Y30708036D01*
X7708036Y30619505D01*
X7816464Y30556905D01*
X7816463Y30556905D01*
X7886286Y30538196D01*
X7937396Y30524501D01*
X7937397Y30524500D01*
X7937399Y30524500D01*
X8062603Y30524500D01*
X8062603Y30524501D01*
X8183536Y30556905D01*
X8291964Y30619505D01*
X8380495Y30708036D01*
X8443095Y30816464D01*
X8475499Y30937397D01*
X8475500Y30937397D01*
X8475500Y31062603D01*
X8475499Y31062604D01*
X8443095Y31183536D01*
X8380495Y31291964D01*
X8291963Y31380496D01*
X8183534Y31443096D01*
X8183536Y31443096D01*
X8062603Y31475500D01*
X8062601Y31475500D01*
X7937399Y31475500D01*
X7937397Y31475500D01*
X7816464Y31443096D01*
X7708036Y31380496D01*
X7619504Y31291964D01*
X7556904Y31183536D01*
X7524500Y31062604D01*
X5350500Y31062604D01*
X5350500Y32647389D01*
X5372174Y32699715D01*
X5380495Y32708036D01*
X5443095Y32816464D01*
X5475499Y32937397D01*
X5475500Y32937397D01*
X5475500Y33062603D01*
X5475499Y33062604D01*
X5443095Y33183536D01*
X5380495Y33291964D01*
X5291963Y33380496D01*
X5183534Y33443096D01*
X5183536Y33443096D01*
X5062603Y33475500D01*
X5062601Y33475500D01*
X4937399Y33475500D01*
X4937397Y33475500D01*
X4816464Y33443096D01*
X4708036Y33380496D01*
X4619504Y33291964D01*
X4556904Y33183536D01*
X4524500Y33062604D01*
X300500Y33062604D01*
X300500Y34962604D01*
X1024500Y34962604D01*
X1024500Y34837397D01*
X1056904Y34716465D01*
X1110000Y34624500D01*
X1119505Y34608036D01*
X1208036Y34519505D01*
X1316464Y34456905D01*
X1316463Y34456905D01*
X1386286Y34438196D01*
X1437396Y34424501D01*
X1437397Y34424500D01*
X1437399Y34424500D01*
X1562603Y34424500D01*
X1562603Y34424501D01*
X1683536Y34456905D01*
X1791964Y34519505D01*
X1880495Y34608036D01*
X1943095Y34716464D01*
X1975499Y34837397D01*
X1975500Y34837397D01*
X1975500Y34962603D01*
X1975499Y34962604D01*
X1952538Y35048298D01*
X1948704Y35062604D01*
X5524500Y35062604D01*
X5524500Y34937397D01*
X5556904Y34816465D01*
X5614639Y34716465D01*
X5619505Y34708036D01*
X5708036Y34619505D01*
X5816464Y34556905D01*
X5816463Y34556905D01*
X5886286Y34538196D01*
X5937396Y34524501D01*
X5937397Y34524500D01*
X5937399Y34524500D01*
X6062603Y34524500D01*
X6062603Y34524501D01*
X6183536Y34556905D01*
X6291964Y34619505D01*
X6380495Y34708036D01*
X6443095Y34816464D01*
X6475499Y34937397D01*
X6475500Y34937397D01*
X6475500Y35062603D01*
X6475499Y35062604D01*
X6472043Y35075500D01*
X6443095Y35183536D01*
X6397446Y35262604D01*
X7324500Y35262604D01*
X7324500Y35137397D01*
X7356904Y35016465D01*
X7419504Y34908037D01*
X7477826Y34849715D01*
X7499500Y34797389D01*
X7499500Y32802611D01*
X7477826Y32750285D01*
X7419504Y32691964D01*
X7356904Y32583536D01*
X7324500Y32462604D01*
X7324500Y32337397D01*
X7356904Y32216465D01*
X7375916Y32183536D01*
X7419505Y32108036D01*
X7508036Y32019505D01*
X7616464Y31956905D01*
X7616463Y31956905D01*
X7686286Y31938196D01*
X7737396Y31924501D01*
X7737397Y31924500D01*
X7737399Y31924500D01*
X7862603Y31924500D01*
X7862603Y31924501D01*
X7983536Y31956905D01*
X8091964Y32019505D01*
X8180495Y32108036D01*
X8243095Y32216464D01*
X8275499Y32337397D01*
X8275500Y32337397D01*
X8275500Y32462603D01*
X8275499Y32462604D01*
X8272043Y32475500D01*
X8243095Y32583536D01*
X8180495Y32691964D01*
X8122174Y32750285D01*
X8100500Y32802611D01*
X8100500Y33062604D01*
X9524500Y33062604D01*
X9524500Y32937397D01*
X9556904Y32816465D01*
X9595113Y32750285D01*
X9619505Y32708036D01*
X9708036Y32619505D01*
X9816464Y32556905D01*
X9816463Y32556905D01*
X9886286Y32538196D01*
X9937396Y32524501D01*
X9937397Y32524500D01*
X9937399Y32524500D01*
X10062603Y32524500D01*
X10062603Y32524501D01*
X10183536Y32556905D01*
X10291964Y32619505D01*
X10380495Y32708036D01*
X10443095Y32816464D01*
X10475499Y32937397D01*
X10475500Y32937397D01*
X10475500Y33062603D01*
X10475499Y33062604D01*
X10443095Y33183536D01*
X10380495Y33291964D01*
X10291963Y33380496D01*
X10183534Y33443096D01*
X10183536Y33443096D01*
X10062603Y33475500D01*
X10062601Y33475500D01*
X9937399Y33475500D01*
X9937397Y33475500D01*
X9816464Y33443096D01*
X9708036Y33380496D01*
X9619504Y33291964D01*
X9556904Y33183536D01*
X9524500Y33062604D01*
X8100500Y33062604D01*
X8100500Y34062604D01*
X10524500Y34062604D01*
X10524500Y33937397D01*
X10556904Y33816465D01*
X10610000Y33724500D01*
X10619505Y33708036D01*
X10708036Y33619505D01*
X10816464Y33556905D01*
X10816463Y33556905D01*
X10886286Y33538196D01*
X10937396Y33524501D01*
X10937397Y33524500D01*
X10937399Y33524500D01*
X11062603Y33524500D01*
X11062603Y33524501D01*
X11183536Y33556905D01*
X11291964Y33619505D01*
X11380495Y33708036D01*
X11443095Y33816464D01*
X11475499Y33937397D01*
X11475500Y33937397D01*
X11475500Y34062603D01*
X11475499Y34062604D01*
X11443095Y34183536D01*
X11416011Y34230448D01*
X11416009Y34230451D01*
X11408709Y34243095D01*
X11397446Y34262604D01*
X15524500Y34262604D01*
X15524500Y34137397D01*
X15556904Y34016465D01*
X15602554Y33937397D01*
X15619505Y33908036D01*
X15708036Y33819505D01*
X15816464Y33756905D01*
X15816463Y33756905D01*
X15886286Y33738196D01*
X15937396Y33724501D01*
X15937397Y33724500D01*
X15937399Y33724500D01*
X16062603Y33724500D01*
X16062603Y33724501D01*
X16183536Y33756905D01*
X16291964Y33819505D01*
X16335063Y33862604D01*
X16724500Y33862604D01*
X16724500Y33737397D01*
X16756904Y33616465D01*
X16810000Y33524500D01*
X16819505Y33508036D01*
X16908036Y33419505D01*
X17016464Y33356905D01*
X17016463Y33356905D01*
X17086286Y33338196D01*
X17137396Y33324501D01*
X17137397Y33324500D01*
X17137399Y33324500D01*
X17219877Y33324500D01*
X17272203Y33302826D01*
X20102826Y30472203D01*
X20124500Y30419877D01*
X20124500Y30337397D01*
X20156904Y30216465D01*
X20156905Y30216464D01*
X20219505Y30108036D01*
X20308036Y30019505D01*
X20416464Y29956905D01*
X20416463Y29956905D01*
X20486286Y29938196D01*
X20537396Y29924501D01*
X20537397Y29924500D01*
X20537399Y29924500D01*
X20662603Y29924500D01*
X20662603Y29924501D01*
X20783536Y29956905D01*
X20891964Y30019505D01*
X20980495Y30108036D01*
X21043095Y30216464D01*
X21075499Y30337397D01*
X21075500Y30337397D01*
X21075500Y30462603D01*
X21075499Y30462604D01*
X21043095Y30583536D01*
X20980495Y30691964D01*
X20891963Y30780496D01*
X20783534Y30843096D01*
X20783536Y30843096D01*
X20662603Y30875500D01*
X20662601Y30875500D01*
X20580123Y30875500D01*
X20527797Y30897174D01*
X18262367Y33162604D01*
X18924500Y33162604D01*
X18924500Y33037397D01*
X18956904Y32916465D01*
X19014639Y32816465D01*
X19019505Y32808036D01*
X19108036Y32719505D01*
X19216464Y32656905D01*
X19216463Y32656905D01*
X19286286Y32638196D01*
X19337396Y32624501D01*
X19337397Y32624500D01*
X19337399Y32624500D01*
X19419877Y32624500D01*
X19472203Y32602826D01*
X21407323Y30667706D01*
X21428997Y30615380D01*
X21423369Y30587073D01*
X21421905Y30583538D01*
X21389500Y30462604D01*
X21389500Y30337397D01*
X21421904Y30216465D01*
X21421905Y30216464D01*
X21484505Y30108036D01*
X21573036Y30019505D01*
X21681464Y29956905D01*
X21681463Y29956905D01*
X21751286Y29938196D01*
X21802396Y29924501D01*
X21802397Y29924500D01*
X21802399Y29924500D01*
X21927603Y29924500D01*
X21927603Y29924501D01*
X22048536Y29956905D01*
X22156964Y30019505D01*
X22245495Y30108036D01*
X22308095Y30216464D01*
X22340499Y30337397D01*
X22340500Y30337397D01*
X22340500Y30462603D01*
X22340499Y30462604D01*
X22308095Y30583536D01*
X22245496Y30691963D01*
X22217954Y30719505D01*
X22156964Y30780495D01*
X22156961Y30780497D01*
X22156960Y30780498D01*
X22130667Y30795678D01*
X22109700Y30816651D01*
X22108413Y30815662D01*
X22105457Y30819515D01*
X22049511Y30875461D01*
X22049511Y30875460D01*
X21762367Y31162604D01*
X23324500Y31162604D01*
X23324500Y31037397D01*
X23356904Y30916465D01*
X23414639Y30816465D01*
X23419505Y30808036D01*
X23508036Y30719505D01*
X23616464Y30656905D01*
X23616463Y30656905D01*
X23686286Y30638196D01*
X23737396Y30624501D01*
X23737397Y30624500D01*
X23737399Y30624500D01*
X23862603Y30624500D01*
X23862603Y30624501D01*
X23983536Y30656905D01*
X24091964Y30719505D01*
X24180495Y30808036D01*
X24243095Y30916464D01*
X24275499Y31037397D01*
X24275500Y31037397D01*
X24275500Y31162603D01*
X24275499Y31162604D01*
X24263325Y31208036D01*
X24243095Y31283536D01*
X24180495Y31391964D01*
X24091964Y31480495D01*
X24052350Y31503366D01*
X24052350Y31503367D01*
X23983534Y31543096D01*
X23983536Y31543096D01*
X23910731Y31562604D01*
X26024500Y31562604D01*
X26024500Y31437397D01*
X26056904Y31316465D01*
X26075916Y31283536D01*
X26119505Y31208036D01*
X26208036Y31119505D01*
X26316464Y31056905D01*
X26316463Y31056905D01*
X26386286Y31038196D01*
X26437396Y31024501D01*
X26437397Y31024500D01*
X26437399Y31024500D01*
X26562603Y31024500D01*
X26562603Y31024501D01*
X26683536Y31056905D01*
X26791964Y31119505D01*
X26880495Y31208036D01*
X26943095Y31316464D01*
X26975499Y31437397D01*
X26975500Y31437397D01*
X26975500Y31562603D01*
X26975499Y31562604D01*
X27724500Y31562604D01*
X27724500Y31437397D01*
X27756904Y31316465D01*
X27775916Y31283536D01*
X27819505Y31208036D01*
X27908036Y31119505D01*
X28016464Y31056905D01*
X28016463Y31056905D01*
X28086286Y31038196D01*
X28137396Y31024501D01*
X28137397Y31024500D01*
X28137399Y31024500D01*
X28262603Y31024500D01*
X28262603Y31024501D01*
X28383536Y31056905D01*
X28491964Y31119505D01*
X28580495Y31208036D01*
X28643095Y31316464D01*
X28675499Y31437397D01*
X28675500Y31437397D01*
X28675500Y31562603D01*
X28675499Y31562604D01*
X28672043Y31575500D01*
X28643095Y31683536D01*
X28580495Y31791964D01*
X28491964Y31880495D01*
X28491963Y31880496D01*
X28383534Y31943096D01*
X28383536Y31943096D01*
X28262603Y31975500D01*
X28262601Y31975500D01*
X28137399Y31975500D01*
X28137397Y31975500D01*
X28016464Y31943096D01*
X27908036Y31880496D01*
X27819504Y31791964D01*
X27756904Y31683536D01*
X27724500Y31562604D01*
X26975499Y31562604D01*
X26972043Y31575500D01*
X26943095Y31683536D01*
X26880495Y31791964D01*
X26791964Y31880495D01*
X26791963Y31880496D01*
X26683534Y31943096D01*
X26683536Y31943096D01*
X26562603Y31975500D01*
X26562601Y31975500D01*
X26437399Y31975500D01*
X26437397Y31975500D01*
X26316464Y31943096D01*
X26208036Y31880496D01*
X26119504Y31791964D01*
X26056904Y31683536D01*
X26024500Y31562604D01*
X23910731Y31562604D01*
X23862603Y31575500D01*
X23862601Y31575500D01*
X23737399Y31575500D01*
X23737397Y31575500D01*
X23616464Y31543096D01*
X23508036Y31480496D01*
X23419504Y31391964D01*
X23356904Y31283536D01*
X23324500Y31162604D01*
X21762367Y31162604D01*
X19897174Y33027797D01*
X19875500Y33080123D01*
X19875500Y33162603D01*
X19875499Y33162604D01*
X19843095Y33283536D01*
X19780495Y33391964D01*
X19691963Y33480496D01*
X19583534Y33543096D01*
X19583536Y33543096D01*
X19462603Y33575500D01*
X19462601Y33575500D01*
X19337399Y33575500D01*
X19337397Y33575500D01*
X19216464Y33543096D01*
X19108036Y33480496D01*
X19019504Y33391964D01*
X18956904Y33283536D01*
X18924500Y33162604D01*
X18262367Y33162604D01*
X17697174Y33727797D01*
X17675500Y33780123D01*
X17675500Y33862603D01*
X17675499Y33862604D01*
X17663325Y33908036D01*
X17643095Y33983536D01*
X17580495Y34091964D01*
X17491964Y34180495D01*
X17491963Y34180496D01*
X17383534Y34243096D01*
X17383536Y34243096D01*
X17262603Y34275500D01*
X17262601Y34275500D01*
X17137399Y34275500D01*
X17137397Y34275500D01*
X17016464Y34243096D01*
X16908036Y34180496D01*
X16819504Y34091964D01*
X16756904Y33983536D01*
X16724500Y33862604D01*
X16335063Y33862604D01*
X16380495Y33908036D01*
X16443095Y34016464D01*
X16475499Y34137397D01*
X16475500Y34137397D01*
X16475500Y34262603D01*
X16475499Y34262604D01*
X16472043Y34275500D01*
X16443095Y34383536D01*
X16380495Y34491964D01*
X16291964Y34580495D01*
X16252350Y34603366D01*
X16252350Y34603367D01*
X16183534Y34643096D01*
X16183536Y34643096D01*
X16110731Y34662604D01*
X17524500Y34662604D01*
X17524500Y34537397D01*
X17556904Y34416465D01*
X17577671Y34380496D01*
X17619505Y34308036D01*
X17708036Y34219505D01*
X17816464Y34156905D01*
X17816463Y34156905D01*
X17886286Y34138196D01*
X17937396Y34124501D01*
X17937397Y34124500D01*
X17937399Y34124500D01*
X18062603Y34124500D01*
X18062603Y34124501D01*
X18183536Y34156905D01*
X18291964Y34219505D01*
X18380495Y34308036D01*
X18443095Y34416464D01*
X18475499Y34537397D01*
X18475500Y34537397D01*
X18475500Y34662603D01*
X18475499Y34662604D01*
X18472043Y34675500D01*
X18443095Y34783536D01*
X18380495Y34891964D01*
X18291964Y34980495D01*
X18291963Y34980496D01*
X18183534Y35043096D01*
X18183536Y35043096D01*
X18062603Y35075500D01*
X18062601Y35075500D01*
X17937399Y35075500D01*
X17937397Y35075500D01*
X17816464Y35043096D01*
X17708036Y34980496D01*
X17619504Y34891964D01*
X17556904Y34783536D01*
X17524500Y34662604D01*
X16110731Y34662604D01*
X16062603Y34675500D01*
X16062601Y34675500D01*
X15937399Y34675500D01*
X15937397Y34675500D01*
X15816464Y34643096D01*
X15708036Y34580496D01*
X15619504Y34491964D01*
X15556904Y34383536D01*
X15524500Y34262604D01*
X11397446Y34262604D01*
X11380495Y34291964D01*
X11291964Y34380495D01*
X11291963Y34380496D01*
X11183534Y34443096D01*
X11183536Y34443096D01*
X11062603Y34475500D01*
X11062601Y34475500D01*
X10937399Y34475500D01*
X10937397Y34475500D01*
X10816464Y34443096D01*
X10708036Y34380496D01*
X10619504Y34291964D01*
X10556904Y34183536D01*
X10524500Y34062604D01*
X8100500Y34062604D01*
X8100500Y34797389D01*
X8122174Y34849715D01*
X8180495Y34908036D01*
X8243095Y35016464D01*
X8251625Y35048298D01*
X8255459Y35062604D01*
X11524500Y35062604D01*
X11524500Y34937397D01*
X11556904Y34816465D01*
X11614639Y34716465D01*
X11619505Y34708036D01*
X11708036Y34619505D01*
X11816464Y34556905D01*
X11816463Y34556905D01*
X11886286Y34538196D01*
X11937396Y34524501D01*
X11937397Y34524500D01*
X11937399Y34524500D01*
X12062603Y34524500D01*
X12062603Y34524501D01*
X12183536Y34556905D01*
X12291964Y34619505D01*
X12380495Y34708036D01*
X12443095Y34816464D01*
X12475499Y34937397D01*
X12475500Y34937397D01*
X12475500Y35062603D01*
X12475499Y35062604D01*
X12452538Y35148298D01*
X12448704Y35162604D01*
X19424500Y35162604D01*
X19424500Y35037397D01*
X19456904Y34916465D01*
X19514639Y34816465D01*
X19519505Y34808036D01*
X19608036Y34719505D01*
X19716464Y34656905D01*
X19716463Y34656905D01*
X19786286Y34638196D01*
X19837396Y34624501D01*
X19837397Y34624500D01*
X19837399Y34624500D01*
X19962603Y34624500D01*
X19962603Y34624501D01*
X20083536Y34656905D01*
X20191964Y34719505D01*
X20280495Y34808036D01*
X20343095Y34916464D01*
X20375499Y35037397D01*
X20375500Y35037397D01*
X20375500Y35162603D01*
X20375499Y35162604D01*
X20363325Y35208036D01*
X20343095Y35283536D01*
X20280495Y35391964D01*
X20191964Y35480495D01*
X20152350Y35503366D01*
X20152350Y35503367D01*
X20083534Y35543096D01*
X20083536Y35543096D01*
X20010731Y35562604D01*
X28024500Y35562604D01*
X28024500Y35437397D01*
X28056904Y35316465D01*
X28106566Y35230448D01*
X28119505Y35208036D01*
X28208036Y35119505D01*
X28316464Y35056905D01*
X28316463Y35056905D01*
X28386286Y35038196D01*
X28437396Y35024501D01*
X28437397Y35024500D01*
X28437399Y35024500D01*
X28562603Y35024500D01*
X28562603Y35024501D01*
X28683536Y35056905D01*
X28791964Y35119505D01*
X28880495Y35208036D01*
X28943095Y35316464D01*
X28975499Y35437397D01*
X28975500Y35437397D01*
X28975500Y35562603D01*
X28975499Y35562604D01*
X28972043Y35575500D01*
X28943095Y35683536D01*
X28880495Y35791964D01*
X28791964Y35880495D01*
X28791963Y35880496D01*
X28683534Y35943096D01*
X28683536Y35943096D01*
X28562603Y35975500D01*
X28562601Y35975500D01*
X28437399Y35975500D01*
X28437397Y35975500D01*
X28316464Y35943096D01*
X28208036Y35880496D01*
X28119504Y35791964D01*
X28056904Y35683536D01*
X28024500Y35562604D01*
X20010731Y35562604D01*
X19962603Y35575500D01*
X19962601Y35575500D01*
X19837399Y35575500D01*
X19837397Y35575500D01*
X19716464Y35543096D01*
X19608036Y35480496D01*
X19519504Y35391964D01*
X19456904Y35283536D01*
X19424500Y35162604D01*
X12448704Y35162604D01*
X12443095Y35183537D01*
X12380495Y35291964D01*
X12291963Y35380496D01*
X12183534Y35443096D01*
X12183536Y35443096D01*
X12062603Y35475500D01*
X12062601Y35475500D01*
X11937399Y35475500D01*
X11937397Y35475500D01*
X11816464Y35443096D01*
X11708036Y35380496D01*
X11619504Y35291964D01*
X11556904Y35183536D01*
X11524500Y35062604D01*
X8255459Y35062604D01*
X8261890Y35086604D01*
X8275499Y35137397D01*
X8275500Y35137397D01*
X8275500Y35262603D01*
X8275499Y35262604D01*
X8243095Y35383536D01*
X8180495Y35491964D01*
X8091963Y35580496D01*
X7983534Y35643096D01*
X7983536Y35643096D01*
X7862603Y35675500D01*
X7862601Y35675500D01*
X7737399Y35675500D01*
X7737397Y35675500D01*
X7616464Y35643096D01*
X7508036Y35580496D01*
X7419504Y35491964D01*
X7356904Y35383536D01*
X7324500Y35262604D01*
X6397446Y35262604D01*
X6380495Y35291964D01*
X6291964Y35380495D01*
X6291963Y35380496D01*
X6183534Y35443096D01*
X6183536Y35443096D01*
X6062603Y35475500D01*
X6062601Y35475500D01*
X5937399Y35475500D01*
X5937397Y35475500D01*
X5816464Y35443096D01*
X5708036Y35380496D01*
X5619504Y35291964D01*
X5556904Y35183536D01*
X5524500Y35062604D01*
X1948704Y35062604D01*
X1943095Y35083537D01*
X1880495Y35191964D01*
X1791963Y35280496D01*
X1683534Y35343096D01*
X1683536Y35343096D01*
X1562603Y35375500D01*
X1562601Y35375500D01*
X1437399Y35375500D01*
X1437397Y35375500D01*
X1316464Y35343096D01*
X1208036Y35280496D01*
X1119504Y35191964D01*
X1056904Y35083536D01*
X1024500Y34962604D01*
X300500Y34962604D01*
X300500Y36062604D01*
X12524500Y36062604D01*
X12524500Y35937397D01*
X12556904Y35816465D01*
X12571050Y35791964D01*
X12619505Y35708036D01*
X12708036Y35619505D01*
X12816464Y35556905D01*
X12816463Y35556905D01*
X12886286Y35538196D01*
X12937396Y35524501D01*
X12937397Y35524500D01*
X12937399Y35524500D01*
X13062603Y35524500D01*
X13062603Y35524501D01*
X13183536Y35556905D01*
X13291964Y35619505D01*
X13380495Y35708036D01*
X13443095Y35816464D01*
X13475499Y35937397D01*
X13475500Y35937397D01*
X13475500Y36062603D01*
X13475499Y36062604D01*
X13443095Y36183536D01*
X13380495Y36291964D01*
X13291963Y36380496D01*
X13183534Y36443096D01*
X13183536Y36443096D01*
X13062603Y36475500D01*
X13062601Y36475500D01*
X12937399Y36475500D01*
X12937397Y36475500D01*
X12816464Y36443096D01*
X12708036Y36380496D01*
X12619504Y36291964D01*
X12556904Y36183536D01*
X12524500Y36062604D01*
X300500Y36062604D01*
X300500Y36997917D01*
X300616Y37002066D01*
X304016Y37062604D01*
X5524500Y37062604D01*
X5524500Y36937397D01*
X5556904Y36816465D01*
X5590638Y36758036D01*
X5619505Y36708036D01*
X5708036Y36619505D01*
X5816464Y36556905D01*
X5816463Y36556905D01*
X5886286Y36538196D01*
X5937396Y36524501D01*
X5937397Y36524500D01*
X5937399Y36524500D01*
X6062603Y36524500D01*
X6062603Y36524501D01*
X6183536Y36556905D01*
X6291964Y36619505D01*
X6380495Y36708036D01*
X6443095Y36816464D01*
X6475499Y36937397D01*
X6475500Y36937397D01*
X6475500Y37062603D01*
X6465935Y37098297D01*
X6465935Y37098298D01*
X6462102Y37112604D01*
X9874500Y37112604D01*
X9874500Y36987397D01*
X9906904Y36866465D01*
X9935772Y36816465D01*
X9969505Y36758036D01*
X10058036Y36669505D01*
X10166464Y36606905D01*
X10166463Y36606905D01*
X10236286Y36588196D01*
X10287396Y36574501D01*
X10287397Y36574500D01*
X10287399Y36574500D01*
X10412603Y36574500D01*
X10412603Y36574501D01*
X10533536Y36606905D01*
X10641964Y36669505D01*
X10730495Y36758036D01*
X10793095Y36866464D01*
X10825499Y36987397D01*
X10825500Y36987397D01*
X10825500Y37062604D01*
X26524500Y37062604D01*
X26524500Y36937397D01*
X26556904Y36816465D01*
X26590638Y36758036D01*
X26619505Y36708036D01*
X26708036Y36619505D01*
X26816464Y36556905D01*
X26816463Y36556905D01*
X26886286Y36538196D01*
X26937396Y36524501D01*
X26937397Y36524500D01*
X26937399Y36524500D01*
X27062603Y36524500D01*
X27062603Y36524501D01*
X27183536Y36556905D01*
X27291964Y36619505D01*
X27380495Y36708036D01*
X27443095Y36816464D01*
X27475499Y36937397D01*
X27475500Y36937397D01*
X27475500Y37062603D01*
X27475499Y37062604D01*
X27462101Y37112604D01*
X27443095Y37183536D01*
X27380495Y37291964D01*
X27291964Y37380495D01*
X27291963Y37380496D01*
X27183534Y37443096D01*
X27183536Y37443096D01*
X27062603Y37475500D01*
X27062601Y37475500D01*
X26937399Y37475500D01*
X26937397Y37475500D01*
X26816464Y37443096D01*
X26708036Y37380496D01*
X26619504Y37291964D01*
X26556904Y37183536D01*
X26524500Y37062604D01*
X10825500Y37062604D01*
X10825500Y37112603D01*
X10825499Y37112604D01*
X10822311Y37124500D01*
X10793095Y37233536D01*
X10730495Y37341964D01*
X10641964Y37430495D01*
X10641963Y37430496D01*
X10533534Y37493096D01*
X10533536Y37493096D01*
X10412603Y37525500D01*
X10412601Y37525500D01*
X10287399Y37525500D01*
X10287397Y37525500D01*
X10166464Y37493096D01*
X10058036Y37430496D01*
X9969504Y37341964D01*
X9906904Y37233536D01*
X9874500Y37112604D01*
X6462102Y37112604D01*
X6443095Y37183536D01*
X6380495Y37291964D01*
X6291963Y37380496D01*
X6183534Y37443096D01*
X6183536Y37443096D01*
X6062603Y37475500D01*
X6062601Y37475500D01*
X5937399Y37475500D01*
X5937397Y37475500D01*
X5816464Y37443096D01*
X5708036Y37380496D01*
X5619504Y37291964D01*
X5556904Y37183536D01*
X5524500Y37062604D01*
X304016Y37062604D01*
X304521Y37071600D01*
X308302Y37138929D01*
X317241Y37298115D01*
X318171Y37306353D01*
X318457Y37308036D01*
X367487Y37596608D01*
X369326Y37604668D01*
X386017Y37662604D01*
X20124500Y37662604D01*
X20124500Y37537397D01*
X20156904Y37416465D01*
X20177671Y37380496D01*
X20219505Y37308036D01*
X20308036Y37219505D01*
X20416464Y37156905D01*
X20416463Y37156905D01*
X20483550Y37138929D01*
X20537396Y37124501D01*
X20537397Y37124500D01*
X20537399Y37124500D01*
X20662603Y37124500D01*
X20662603Y37124501D01*
X20686463Y37130895D01*
X20716452Y37138929D01*
X20762418Y37151247D01*
X20783536Y37156905D01*
X20891964Y37219505D01*
X20980495Y37308036D01*
X21043095Y37416464D01*
X21075499Y37537397D01*
X21075500Y37537397D01*
X21075500Y37662603D01*
X21075499Y37662604D01*
X21043095Y37783536D01*
X20980495Y37891964D01*
X20891963Y37980496D01*
X20783534Y38043096D01*
X20783536Y38043096D01*
X20662603Y38075500D01*
X20662601Y38075500D01*
X20537399Y38075500D01*
X20537397Y38075500D01*
X20416464Y38043096D01*
X20308036Y37980496D01*
X20219504Y37891964D01*
X20156904Y37783536D01*
X20124500Y37662604D01*
X386017Y37662604D01*
X450841Y37887611D01*
X453571Y37895414D01*
X566246Y38167436D01*
X569840Y38174898D01*
X712268Y38432603D01*
X716665Y38439601D01*
X887044Y38679727D01*
X892202Y38686196D01*
X1049850Y38862604D01*
X1724500Y38862604D01*
X1724500Y38737397D01*
X1756904Y38616465D01*
X1788001Y38562604D01*
X1819505Y38508036D01*
X1908036Y38419505D01*
X2016464Y38356905D01*
X2016463Y38356905D01*
X2086286Y38338196D01*
X2137396Y38324501D01*
X2137397Y38324500D01*
X2137399Y38324500D01*
X2262603Y38324500D01*
X2262603Y38324501D01*
X2383536Y38356905D01*
X2491964Y38419505D01*
X2580495Y38508036D01*
X2643095Y38616464D01*
X2675499Y38737397D01*
X2675500Y38737397D01*
X2675500Y38862603D01*
X2675499Y38862604D01*
X3524500Y38862604D01*
X3524500Y38737397D01*
X3556904Y38616465D01*
X3588001Y38562604D01*
X3619505Y38508036D01*
X3708036Y38419505D01*
X3816464Y38356905D01*
X3816463Y38356905D01*
X3886286Y38338196D01*
X3937396Y38324501D01*
X3937397Y38324500D01*
X3937399Y38324500D01*
X4062603Y38324500D01*
X4062603Y38324501D01*
X4183536Y38356905D01*
X4291964Y38419505D01*
X4380495Y38508036D01*
X4411999Y38562604D01*
X12524500Y38562604D01*
X12524500Y38437397D01*
X12556904Y38316465D01*
X12556905Y38316464D01*
X12619505Y38208036D01*
X12708036Y38119505D01*
X12816464Y38056905D01*
X12816463Y38056905D01*
X12886286Y38038196D01*
X12937396Y38024501D01*
X12937397Y38024500D01*
X12937399Y38024500D01*
X13062603Y38024500D01*
X13062603Y38024501D01*
X13183536Y38056905D01*
X13291964Y38119505D01*
X13380495Y38208036D01*
X13443095Y38316464D01*
X13475499Y38437397D01*
X13475500Y38437397D01*
X13475500Y38562603D01*
X13475499Y38562604D01*
X14524500Y38562604D01*
X14524500Y38437397D01*
X14556904Y38316465D01*
X14556905Y38316464D01*
X14619505Y38208036D01*
X14708036Y38119505D01*
X14816464Y38056905D01*
X14816463Y38056905D01*
X14886286Y38038196D01*
X14937396Y38024501D01*
X14937397Y38024500D01*
X14937399Y38024500D01*
X15062603Y38024500D01*
X15062603Y38024501D01*
X15183536Y38056905D01*
X15291964Y38119505D01*
X15380495Y38208036D01*
X15443095Y38316464D01*
X15475499Y38437397D01*
X15475500Y38437397D01*
X15475500Y38562603D01*
X15475499Y38562604D01*
X26024500Y38562604D01*
X26024500Y38437397D01*
X26056904Y38316465D01*
X26056905Y38316464D01*
X26119505Y38208036D01*
X26208036Y38119505D01*
X26316464Y38056905D01*
X26316463Y38056905D01*
X26386286Y38038196D01*
X26437396Y38024501D01*
X26437397Y38024500D01*
X26437399Y38024500D01*
X26562603Y38024500D01*
X26562603Y38024501D01*
X26683536Y38056905D01*
X26791964Y38119505D01*
X26880495Y38208036D01*
X26943095Y38316464D01*
X26975499Y38437397D01*
X26975500Y38437397D01*
X26975500Y38562603D01*
X26975499Y38562604D01*
X27524500Y38562604D01*
X27524500Y38437397D01*
X27556904Y38316465D01*
X27556905Y38316464D01*
X27619505Y38208036D01*
X27708036Y38119505D01*
X27816464Y38056905D01*
X27816463Y38056905D01*
X27886286Y38038196D01*
X27937396Y38024501D01*
X27937397Y38024500D01*
X27937399Y38024500D01*
X28062603Y38024500D01*
X28062603Y38024501D01*
X28183536Y38056905D01*
X28291964Y38119505D01*
X28380495Y38208036D01*
X28443095Y38316464D01*
X28475499Y38437397D01*
X28475500Y38437397D01*
X28475500Y38562603D01*
X28475499Y38562604D01*
X28443095Y38683536D01*
X28380495Y38791964D01*
X28291963Y38880496D01*
X28183534Y38943096D01*
X28183536Y38943096D01*
X28062603Y38975500D01*
X28062601Y38975500D01*
X27937399Y38975500D01*
X27937397Y38975500D01*
X27816464Y38943096D01*
X27708036Y38880496D01*
X27619504Y38791964D01*
X27556904Y38683536D01*
X27524500Y38562604D01*
X26975499Y38562604D01*
X26943095Y38683536D01*
X26880495Y38791964D01*
X26791963Y38880496D01*
X26683534Y38943096D01*
X26683536Y38943096D01*
X26562603Y38975500D01*
X26562601Y38975500D01*
X26437399Y38975500D01*
X26437397Y38975500D01*
X26316464Y38943096D01*
X26208036Y38880496D01*
X26119504Y38791964D01*
X26056904Y38683536D01*
X26024500Y38562604D01*
X15475499Y38562604D01*
X15443095Y38683536D01*
X15380495Y38791964D01*
X15291963Y38880496D01*
X15183534Y38943096D01*
X15183536Y38943096D01*
X15062603Y38975500D01*
X15062601Y38975500D01*
X14937399Y38975500D01*
X14937397Y38975500D01*
X14816464Y38943096D01*
X14708036Y38880496D01*
X14619504Y38791964D01*
X14556904Y38683536D01*
X14524500Y38562604D01*
X13475499Y38562604D01*
X13443095Y38683536D01*
X13380495Y38791964D01*
X13291963Y38880496D01*
X13183534Y38943096D01*
X13183536Y38943096D01*
X13062603Y38975500D01*
X13062601Y38975500D01*
X12937399Y38975500D01*
X12937397Y38975500D01*
X12816464Y38943096D01*
X12708036Y38880496D01*
X12619504Y38791964D01*
X12556904Y38683536D01*
X12524500Y38562604D01*
X4411999Y38562604D01*
X4443095Y38616464D01*
X4475499Y38737397D01*
X4475500Y38737397D01*
X4475500Y38862603D01*
X4475499Y38862604D01*
X4463941Y38905737D01*
X4443095Y38983536D01*
X4380495Y39091964D01*
X4291964Y39180495D01*
X4291963Y39180496D01*
X4183534Y39243096D01*
X4183536Y39243096D01*
X4062603Y39275500D01*
X4062601Y39275500D01*
X3937399Y39275500D01*
X3937397Y39275500D01*
X3816464Y39243096D01*
X3708036Y39180496D01*
X3619504Y39091964D01*
X3556904Y38983536D01*
X3524500Y38862604D01*
X2675499Y38862604D01*
X2663941Y38905737D01*
X2643095Y38983536D01*
X2580495Y39091964D01*
X2491964Y39180495D01*
X2491963Y39180496D01*
X2383534Y39243096D01*
X2383536Y39243096D01*
X2262603Y39275500D01*
X2262601Y39275500D01*
X2137399Y39275500D01*
X2137397Y39275500D01*
X2016464Y39243096D01*
X1908036Y39180496D01*
X1819504Y39091964D01*
X1756904Y38983536D01*
X1724500Y38862604D01*
X1049850Y38862604D01*
X1088408Y38905751D01*
X1094258Y38911600D01*
X1313804Y39107798D01*
X1320273Y39112956D01*
X1560399Y39283335D01*
X1567397Y39287732D01*
X1825102Y39430160D01*
X1832564Y39433754D01*
X2104586Y39546429D01*
X2112389Y39549159D01*
X2395332Y39630674D01*
X2403392Y39632513D01*
X2693655Y39681830D01*
X2701885Y39682759D01*
X2997934Y39699385D01*
X3002083Y39699500D01*
X3047595Y39699500D01*
X26952405Y39699500D01*
X26997917Y39699500D01*
X27002065Y39699385D01*
G37*
%TD.AperFunction*%
%TD*%
M02*
