M48
; DRILL file {KiCad 9.0.1} date 2025-08-05T14:32:14+0300
; FORMAT={-:-/ absolute / metric / decimal}
; #@! TF.CreationDate,2025-08-05T14:32:14+03:00
; #@! TF.GenerationSoftware,Kicad,Pcbnew,9.0.1
; #@! TF.FileFunction,Plated,1,4,PTH
FMAT,2
METRIC
; #@! TA.AperFunction,Plated,PTH,ViaDrill
T1C0.250
; #@! TA.AperFunction,Plated,PTH,ViaDrill
T2C0.300
; #@! TA.AperFunction,Plated,PTH,ComponentDrill
T3C0.500
%
G90
G05
T1
X1.0Y3.1
X1.5Y34.9
X1.5Y32.0
X1.5Y29.0
X1.75Y14.8
X2.0Y26.0
X2.0Y23.0
X2.0Y12.0
X2.0Y8.0
X2.2Y38.8
X2.85Y5.3
X3.0Y28.5
X3.0Y10.0
X3.0Y3.1
X3.0Y1.4
X3.3Y19.2
X4.0Y38.8
X4.0Y23.0
X4.0Y4.7
X4.4Y20.6
X4.8Y15.2
X5.0Y33.0
X5.0Y3.1
X5.0Y1.4
X5.1Y13.85
X5.8Y20.8
X5.8Y18.6
X5.95Y11.85
X5.95Y8.25
X6.0Y37.0
X6.0Y35.0
X6.0Y4.7
X6.7Y13.85
X7.0Y3.1
X7.0Y1.4
X7.15Y19.65
X7.8Y35.2
X7.8Y32.4
X8.0Y31.0
X8.2Y29.3
X8.3Y14.9
X8.5Y26.5
X9.0Y1.4
X9.1Y23.6
X9.2Y10.3
X9.7Y26.6
X9.8Y24.6
X9.9Y9.0
X9.9Y6.35
X10.0Y33.0
X10.35Y37.05
X11.0Y34.0
X11.35Y19.65
X11.35Y18.35
X11.5Y23.4
X11.5Y10.15
X11.5Y9.0
X11.5Y6.35
X12.0Y35.0
X12.65Y19.65
X12.65Y18.35
X12.85Y10.35
X13.0Y38.5
X13.0Y36.0
X13.1Y9.0
X13.35Y4.45
X13.35Y1.55
X13.45Y6.35
X13.8Y16.35
X14.0Y32.0
X14.15Y28.8
X14.15Y3.0
X14.7Y6.15
X15.0Y38.5
X15.0Y30.0
X15.2Y15.55
X15.3Y11.8
X15.4Y1.4
X15.5Y4.6
X15.8Y14.6
X15.8Y7.6
X16.0Y37.5
X16.0Y34.2
X16.4Y10.3
X17.2Y33.8
X17.7Y19.0
X17.7Y16.5
X18.0Y34.6
X18.0Y15.0
X18.0Y13.2
X18.0Y4.0
X18.9Y16.9
X19.0Y21.5
X19.4Y33.1
X19.5Y38.5
X19.5Y13.6
X19.5Y9.8
X19.9Y35.1
X20.0Y4.0
X20.1Y2.3
X20.6Y37.6
X20.6Y30.4
X20.6Y27.0
X20.9Y22.2
X21.0Y1.3
X21.5Y27.8
X21.5Y16.1
X21.6Y13.0
X21.6Y11.0
X21.6Y9.3
X21.865Y30.4
X22.0Y4.0
X23.1Y7.9
X23.2Y10.2
X23.8Y31.1
X23.9Y14.5
X23.9Y13.6
X24.0Y4.0
X24.1Y2.3
X24.5Y7.8
X24.9Y12.0
X25.0Y23.1
X25.0Y16.9
X25.6Y5.3
X26.0Y1.4
X26.3Y7.8
X26.5Y38.5
X26.5Y31.5
X26.5Y3.4
X26.9Y10.9
X27.0Y37.0
X27.0Y34.0
X27.1Y12.0
X27.5Y2.0
X28.0Y38.5
X28.0Y6.0
X28.2Y31.5
X28.2Y13.1
X28.5Y35.5
X28.5Y3.2
X28.6Y7.6
X28.7Y26.4
T2
X20.6Y20.0
X22.1Y20.0
X23.9Y21.4
X23.9Y18.7
T3
G00X26.415Y25.225
M15
G01X27.445Y25.225
M16
G05
G00X26.415Y14.775
M15
G01X27.445Y14.775
M16
G05
M30
