%TF.GenerationSoftware,KiCad,Pcbnew,9.0.1*%
%TF.CreationDate,2025-08-05T14:32:16+03:00*%
%TF.ProjectId,MESHTASTIC NODE,4d455348-5441-4535-9449-43204e4f4445,rev?*%
%TF.SameCoordinates,PX5f5e100PY5f5e100*%
%TF.FileFunction,Copper,L2,Inr*%
%TF.FilePolarity,Positive*%
%FSLAX46Y46*%
G04 Gerber Fmt 4.6, Leading zero omitted, Abs format (unit mm)*
G04 Created by KiCad (PCBNEW 9.0.1) date 2025-08-05 14:32:16*
%MOMM*%
%LPD*%
G01*
G04 APERTURE LIST*
%TA.AperFunction,ComponentPad*%
%ADD10O,2.100000X1.000000*%
%TD*%
%TA.AperFunction,ViaPad*%
%ADD11C,0.550000*%
%TD*%
%TA.AperFunction,ViaPad*%
%ADD12C,0.600000*%
%TD*%
G04 APERTURE END LIST*
D10*
%TO.N,unconnected-(J1-Pad3)*%
%TO.C,J1*%
X26930000Y14775000D03*
%TO.N,unconnected-(J1-Pad4)*%
X26930000Y25225000D03*
%TD*%
D11*
%TO.N,GND*%
X26500000Y38500000D03*
X28000000Y38500000D03*
X13000000Y38500000D03*
X15000000Y38500000D03*
X22000000Y4000000D03*
X24000000Y4000000D03*
X18000000Y4000000D03*
X20000000Y4000000D03*
X4000000Y4700000D03*
X6000000Y4700000D03*
X5000000Y3100000D03*
X7000000Y3100000D03*
X3000000Y1400000D03*
X5000000Y1400000D03*
X1500000Y29000000D03*
X1500000Y32000000D03*
X1500000Y34900000D03*
X2200000Y38800000D03*
X4000000Y38800000D03*
X6000000Y35000000D03*
X6000000Y37000000D03*
X28700000Y26400000D03*
X21500000Y16100000D03*
X19500000Y13600000D03*
X19500000Y9800000D03*
X25600000Y5300000D03*
X26500000Y3400000D03*
X28600000Y7600000D03*
X28500000Y3200000D03*
X27500000Y2000000D03*
X26000000Y1400000D03*
X21000000Y1300000D03*
X15500000Y4600000D03*
X15400000Y1400000D03*
X9000000Y1400000D03*
X7000000Y1400000D03*
X1000000Y3100000D03*
X2000000Y8000000D03*
X2000000Y12000000D03*
X4000000Y23000000D03*
X2000000Y26000000D03*
X8000000Y31000000D03*
X10000000Y33000000D03*
X11000000Y34000000D03*
X12000000Y35000000D03*
X13000000Y36000000D03*
X28500000Y35500000D03*
X27000000Y37000000D03*
%TO.N,+3V3*%
X3000000Y3100000D03*
X3000000Y10000000D03*
X2000000Y23000000D03*
X27000000Y34000000D03*
X17700000Y19000000D03*
X28000000Y6000000D03*
X26300000Y7800000D03*
X24500000Y7800000D03*
X23100000Y7900000D03*
X9200000Y10300000D03*
X15800000Y7600000D03*
X8300000Y14900000D03*
X16000000Y37500000D03*
X19500000Y38500000D03*
X14000000Y32000000D03*
X15000000Y30000000D03*
%TO.N,LORA_RST*%
X9800000Y24600000D03*
%TO.N,USER_LED*%
X5000000Y33000000D03*
X11500000Y23400000D03*
%TO.N,GND*%
X21500000Y27800000D03*
X20600000Y27000000D03*
X18000000Y34600000D03*
%TO.N,LORA_SPI_NSS*%
X7150000Y19650000D03*
%TO.N,LORA_DIO1*%
X7800000Y32400000D03*
X7800000Y35200000D03*
%TO.N,SPID*%
X17200000Y33800000D03*
%TO.N,SPICLK*%
X19400000Y33100000D03*
%TO.N,VBUS*%
X23900000Y14500000D03*
X23900000Y13600000D03*
D12*
X22100000Y20000000D03*
X23900000Y21400000D03*
X23900000Y18700000D03*
%TO.N,GND*%
X20600000Y20000000D03*
D11*
X20900000Y22200000D03*
X25000000Y23100000D03*
X25000000Y16900000D03*
X14150000Y3000000D03*
X5950000Y8250000D03*
X13350000Y1550000D03*
X13350000Y4450000D03*
X2850000Y5300000D03*
%TO.N,+3V3*%
X11500000Y9000000D03*
X23200000Y10200000D03*
X5800000Y20800000D03*
X19000000Y21500000D03*
X15300000Y11800000D03*
X13100000Y9000000D03*
X9900000Y9000000D03*
X4800000Y15200000D03*
X3000000Y28500000D03*
X17700000Y16500000D03*
X18000000Y13200000D03*
%TO.N,GND*%
X10350000Y37050000D03*
X11500000Y6350000D03*
X18000000Y15000000D03*
X14700000Y6150000D03*
X12650000Y19650000D03*
X26500000Y31500000D03*
X12850000Y10350000D03*
X4400000Y20600000D03*
X21600000Y11000000D03*
X1750000Y14800000D03*
X28200000Y31500000D03*
X20100000Y2300000D03*
X5950000Y11850000D03*
X3300000Y19200000D03*
X21600000Y9300000D03*
X5100000Y13850000D03*
X11500000Y10150000D03*
X6700000Y13850000D03*
X24100000Y2300000D03*
X19900000Y35100000D03*
X11350000Y18350000D03*
X16400000Y10300000D03*
X16000000Y34200000D03*
X21600000Y13000000D03*
X14150000Y28800000D03*
X28200000Y13100000D03*
X13450000Y6350000D03*
X11350000Y19650000D03*
X24900000Y12000000D03*
X27100000Y12000000D03*
X9900000Y6350000D03*
X20600000Y37600000D03*
X26900000Y10900000D03*
X18900000Y16900000D03*
X23800000Y31100000D03*
X12650000Y18350000D03*
%TO.N,LORA_RST*%
X5800000Y18600000D03*
%TO.N,SPID*%
X20600000Y30400000D03*
%TO.N,SPICLK*%
X21865000Y30400000D03*
%TO.N,LORA_SPI_NSS*%
X9100000Y23600000D03*
%TO.N,LORA_SPI_SCK*%
X13800000Y16350000D03*
X9700000Y26600000D03*
%TO.N,LORA_SPI_MISO*%
X15800000Y14600000D03*
X8200000Y29300000D03*
%TO.N,LORA_SPI_MOSI*%
X8500000Y26500000D03*
X15200000Y15550000D03*
%TD*%
%TA.AperFunction,Conductor*%
%TO.N,GND*%
G36*
X27002065Y39699385D02*
G01*
X27298112Y39682759D01*
X27306346Y39681830D01*
X27596603Y39632514D01*
X27604671Y39630673D01*
X27887605Y39549161D01*
X27895418Y39546427D01*
X28167428Y39433756D01*
X28174904Y39430156D01*
X28432594Y39287737D01*
X28439608Y39283329D01*
X28679716Y39112963D01*
X28686203Y39107791D01*
X28905741Y38911600D01*
X28911599Y38905742D01*
X29006053Y38800048D01*
X29107789Y38686205D01*
X29112962Y38679717D01*
X29283324Y38439615D01*
X29287740Y38432588D01*
X29430155Y38174905D01*
X29433755Y38167429D01*
X29546422Y37895429D01*
X29549163Y37887596D01*
X29630669Y37604683D01*
X29632515Y37596592D01*
X29681828Y37306353D01*
X29682758Y37298107D01*
X29699384Y37002066D01*
X29699500Y36997917D01*
X29699500Y24574500D01*
X29677826Y24522174D01*
X29625500Y24500500D01*
X27900521Y24500500D01*
X27848195Y24522174D01*
X27826521Y24574500D01*
X27848195Y24626826D01*
X27859409Y24636029D01*
X27863915Y24639041D01*
X27926542Y24680886D01*
X28024114Y24778458D01*
X28100775Y24893189D01*
X28153580Y25020672D01*
X28180500Y25156007D01*
X28180500Y25293993D01*
X28153580Y25429328D01*
X28100775Y25556811D01*
X28024114Y25671542D01*
X27926542Y25769114D01*
X27811811Y25845775D01*
X27811810Y25845776D01*
X27811808Y25845777D01*
X27684332Y25898579D01*
X27684322Y25898582D01*
X27593694Y25916609D01*
X27548993Y25925500D01*
X26311007Y25925500D01*
X26272642Y25917869D01*
X26175677Y25898582D01*
X26175667Y25898579D01*
X26048191Y25845777D01*
X25933461Y25769117D01*
X25835883Y25671539D01*
X25759223Y25556809D01*
X25706421Y25429333D01*
X25706418Y25429323D01*
X25679500Y25293992D01*
X25679500Y25156009D01*
X25706418Y25020678D01*
X25706421Y25020668D01*
X25759223Y24893192D01*
X25759224Y24893190D01*
X25759225Y24893189D01*
X25835886Y24778458D01*
X25933458Y24680886D01*
X26048189Y24604225D01*
X26172897Y24552570D01*
X26212946Y24512522D01*
X26212946Y24455885D01*
X26196905Y24431878D01*
X26149541Y24384514D01*
X26109979Y24315991D01*
X26109977Y24315986D01*
X26089500Y24239565D01*
X26089500Y15760436D01*
X26109977Y15684015D01*
X26109979Y15684010D01*
X26149540Y15615489D01*
X26196905Y15568124D01*
X26218579Y15515798D01*
X26196905Y15463472D01*
X26172898Y15447431D01*
X26048189Y15395776D01*
X25933461Y15319117D01*
X25835883Y15221539D01*
X25759223Y15106809D01*
X25706421Y14979333D01*
X25706418Y14979323D01*
X25679500Y14843992D01*
X25679500Y14706009D01*
X25706418Y14570678D01*
X25706421Y14570668D01*
X25759223Y14443192D01*
X25759224Y14443190D01*
X25759225Y14443189D01*
X25835886Y14328458D01*
X25933458Y14230886D01*
X26048189Y14154225D01*
X26048190Y14154225D01*
X26048191Y14154224D01*
X26132008Y14119506D01*
X26175672Y14101420D01*
X26311007Y14074500D01*
X26311009Y14074500D01*
X27548991Y14074500D01*
X27548993Y14074500D01*
X27684328Y14101420D01*
X27811811Y14154225D01*
X27926542Y14230886D01*
X28024114Y14328458D01*
X28100775Y14443189D01*
X28153580Y14570672D01*
X28180500Y14706007D01*
X28180500Y14843993D01*
X28153580Y14979328D01*
X28138198Y15016464D01*
X28100776Y15106809D01*
X28080336Y15137399D01*
X28024114Y15221542D01*
X27926542Y15319114D01*
X27890650Y15343096D01*
X27859409Y15363971D01*
X27827943Y15411064D01*
X27838992Y15466612D01*
X27886085Y15498078D01*
X27900521Y15499500D01*
X29625500Y15499500D01*
X29677826Y15477826D01*
X29699500Y15425500D01*
X29699500Y3002084D01*
X29699384Y2997935D01*
X29682758Y2701894D01*
X29681828Y2693648D01*
X29632515Y2403409D01*
X29630669Y2395318D01*
X29549163Y2112405D01*
X29546422Y2104572D01*
X29433755Y1832572D01*
X29430155Y1825096D01*
X29287740Y1567413D01*
X29283324Y1560386D01*
X29112962Y1320284D01*
X29107789Y1313796D01*
X28911604Y1094264D01*
X28905736Y1088396D01*
X28686204Y892211D01*
X28679716Y887038D01*
X28439614Y716676D01*
X28432587Y712260D01*
X28174904Y569845D01*
X28167428Y566245D01*
X27895428Y453578D01*
X27887595Y450837D01*
X27604682Y369331D01*
X27596591Y367485D01*
X27306352Y318172D01*
X27298106Y317242D01*
X27002066Y300616D01*
X26997917Y300500D01*
X3002083Y300500D01*
X2997934Y300616D01*
X2701893Y317242D01*
X2693647Y318172D01*
X2403408Y367485D01*
X2395317Y369331D01*
X2112404Y450837D01*
X2104571Y453578D01*
X1832571Y566245D01*
X1825095Y569845D01*
X1567412Y712260D01*
X1560385Y716676D01*
X1320283Y887038D01*
X1313795Y892211D01*
X1282612Y920078D01*
X1094258Y1088401D01*
X1088400Y1094259D01*
X892209Y1313797D01*
X887037Y1320284D01*
X716675Y1560386D01*
X712263Y1567406D01*
X569844Y1825096D01*
X566244Y1832572D01*
X453573Y2104582D01*
X450839Y2112395D01*
X369327Y2395329D01*
X367486Y2403397D01*
X318170Y2693654D01*
X317241Y2701894D01*
X311280Y2808036D01*
X300616Y2997935D01*
X300500Y3002084D01*
X300500Y3162604D01*
X2524500Y3162604D01*
X2524500Y3037397D01*
X2556904Y2916465D01*
X2556905Y2916464D01*
X2619505Y2808036D01*
X2708036Y2719505D01*
X2816464Y2656905D01*
X2816463Y2656905D01*
X2886286Y2638196D01*
X2937396Y2624501D01*
X2937397Y2624500D01*
X2937399Y2624500D01*
X3062603Y2624500D01*
X3062603Y2624501D01*
X3183536Y2656905D01*
X3291964Y2719505D01*
X3380495Y2808036D01*
X3443095Y2916464D01*
X3475499Y3037397D01*
X3475500Y3037397D01*
X3475500Y3162603D01*
X3475499Y3162604D01*
X3443095Y3283536D01*
X3380495Y3391964D01*
X3291963Y3480496D01*
X3183534Y3543096D01*
X3183536Y3543096D01*
X3062603Y3575500D01*
X3062601Y3575500D01*
X2937399Y3575500D01*
X2937397Y3575500D01*
X2816464Y3543096D01*
X2708036Y3480496D01*
X2619504Y3391964D01*
X2556904Y3283536D01*
X2524500Y3162604D01*
X300500Y3162604D01*
X300500Y6062604D01*
X27524500Y6062604D01*
X27524500Y5937397D01*
X27556904Y5816465D01*
X27556905Y5816464D01*
X27619505Y5708036D01*
X27708036Y5619505D01*
X27816464Y5556905D01*
X27816463Y5556905D01*
X27886286Y5538196D01*
X27937396Y5524501D01*
X27937397Y5524500D01*
X27937399Y5524500D01*
X28062603Y5524500D01*
X28062603Y5524501D01*
X28183536Y5556905D01*
X28291964Y5619505D01*
X28380495Y5708036D01*
X28443095Y5816464D01*
X28475499Y5937397D01*
X28475500Y5937397D01*
X28475500Y6062603D01*
X28475499Y6062604D01*
X28443095Y6183536D01*
X28380495Y6291964D01*
X28291963Y6380496D01*
X28183534Y6443096D01*
X28183536Y6443096D01*
X28062603Y6475500D01*
X28062601Y6475500D01*
X27937399Y6475500D01*
X27937397Y6475500D01*
X27816464Y6443096D01*
X27708036Y6380496D01*
X27619504Y6291964D01*
X27556904Y6183536D01*
X27524500Y6062604D01*
X300500Y6062604D01*
X300500Y7662604D01*
X15324500Y7662604D01*
X15324500Y7537397D01*
X15356904Y7416465D01*
X15410000Y7324500D01*
X15419505Y7308036D01*
X15508036Y7219505D01*
X15616464Y7156905D01*
X15616463Y7156905D01*
X15686286Y7138196D01*
X15737396Y7124501D01*
X15737397Y7124500D01*
X15737399Y7124500D01*
X15862603Y7124500D01*
X15862603Y7124501D01*
X15983536Y7156905D01*
X16091964Y7219505D01*
X16180495Y7308036D01*
X16243095Y7416464D01*
X16275499Y7537397D01*
X16275500Y7537397D01*
X16275500Y7662603D01*
X16275499Y7662604D01*
X16243095Y7783536D01*
X16180495Y7891964D01*
X16109855Y7962604D01*
X22624500Y7962604D01*
X22624500Y7837397D01*
X22656904Y7716465D01*
X22714639Y7616465D01*
X22719505Y7608036D01*
X22808036Y7519505D01*
X22916464Y7456905D01*
X22916463Y7456905D01*
X22986286Y7438196D01*
X23037396Y7424501D01*
X23037397Y7424500D01*
X23037399Y7424500D01*
X23162603Y7424500D01*
X23162603Y7424501D01*
X23283536Y7456905D01*
X23391964Y7519505D01*
X23480495Y7608036D01*
X23543095Y7716464D01*
X23575499Y7837397D01*
X23575500Y7837397D01*
X23575500Y7862604D01*
X24024500Y7862604D01*
X24024500Y7737397D01*
X24056904Y7616465D01*
X24102554Y7537397D01*
X24119505Y7508036D01*
X24208036Y7419505D01*
X24316464Y7356905D01*
X24316463Y7356905D01*
X24386286Y7338196D01*
X24437396Y7324501D01*
X24437397Y7324500D01*
X24437399Y7324500D01*
X24562603Y7324500D01*
X24562603Y7324501D01*
X24683536Y7356905D01*
X24791964Y7419505D01*
X24880495Y7508036D01*
X24943095Y7616464D01*
X24975499Y7737397D01*
X24975500Y7737397D01*
X24975500Y7862603D01*
X24975499Y7862604D01*
X25824500Y7862604D01*
X25824500Y7737397D01*
X25856904Y7616465D01*
X25902554Y7537397D01*
X25919505Y7508036D01*
X26008036Y7419505D01*
X26116464Y7356905D01*
X26116463Y7356905D01*
X26186286Y7338196D01*
X26237396Y7324501D01*
X26237397Y7324500D01*
X26237399Y7324500D01*
X26362603Y7324500D01*
X26362603Y7324501D01*
X26483536Y7356905D01*
X26591964Y7419505D01*
X26680495Y7508036D01*
X26743095Y7616464D01*
X26775499Y7737397D01*
X26775500Y7737397D01*
X26775500Y7862603D01*
X26775499Y7862604D01*
X26743095Y7983536D01*
X26680495Y8091964D01*
X26591963Y8180496D01*
X26483534Y8243096D01*
X26483536Y8243096D01*
X26362603Y8275500D01*
X26362601Y8275500D01*
X26237399Y8275500D01*
X26237397Y8275500D01*
X26116464Y8243096D01*
X26008036Y8180496D01*
X25919504Y8091964D01*
X25856904Y7983536D01*
X25824500Y7862604D01*
X24975499Y7862604D01*
X24943095Y7983536D01*
X24880495Y8091964D01*
X24791963Y8180496D01*
X24683534Y8243096D01*
X24683536Y8243096D01*
X24562603Y8275500D01*
X24562601Y8275500D01*
X24437399Y8275500D01*
X24437397Y8275500D01*
X24316464Y8243096D01*
X24208036Y8180496D01*
X24119504Y8091964D01*
X24056904Y7983536D01*
X24024500Y7862604D01*
X23575500Y7862604D01*
X23575500Y7962603D01*
X23575499Y7962604D01*
X23543095Y8083536D01*
X23480495Y8191964D01*
X23391963Y8280496D01*
X23283534Y8343096D01*
X23283536Y8343096D01*
X23162603Y8375500D01*
X23162601Y8375500D01*
X23037399Y8375500D01*
X23037397Y8375500D01*
X22916464Y8343096D01*
X22808036Y8280496D01*
X22719504Y8191964D01*
X22656904Y8083536D01*
X22624500Y7962604D01*
X16109855Y7962604D01*
X16091963Y7980496D01*
X15983534Y8043096D01*
X15983536Y8043096D01*
X15862603Y8075500D01*
X15862601Y8075500D01*
X15737399Y8075500D01*
X15737397Y8075500D01*
X15616464Y8043096D01*
X15508036Y7980496D01*
X15419504Y7891964D01*
X15356904Y7783536D01*
X15324500Y7662604D01*
X300500Y7662604D01*
X300500Y9062604D01*
X9424500Y9062604D01*
X9424500Y8937397D01*
X9456904Y8816465D01*
X9456905Y8816464D01*
X9519505Y8708036D01*
X9608036Y8619505D01*
X9716464Y8556905D01*
X9716463Y8556905D01*
X9786286Y8538196D01*
X9837396Y8524501D01*
X9837397Y8524500D01*
X9837399Y8524500D01*
X9962603Y8524500D01*
X9962603Y8524501D01*
X10083536Y8556905D01*
X10191964Y8619505D01*
X10280495Y8708036D01*
X10343095Y8816464D01*
X10375499Y8937397D01*
X10375500Y8937397D01*
X10375500Y9062603D01*
X10375499Y9062604D01*
X11024500Y9062604D01*
X11024500Y8937397D01*
X11056904Y8816465D01*
X11056905Y8816464D01*
X11119505Y8708036D01*
X11208036Y8619505D01*
X11316464Y8556905D01*
X11316463Y8556905D01*
X11386286Y8538196D01*
X11437396Y8524501D01*
X11437397Y8524500D01*
X11437399Y8524500D01*
X11562603Y8524500D01*
X11562603Y8524501D01*
X11683536Y8556905D01*
X11791964Y8619505D01*
X11880495Y8708036D01*
X11943095Y8816464D01*
X11975499Y8937397D01*
X11975500Y8937397D01*
X11975500Y9062603D01*
X11975499Y9062604D01*
X12624500Y9062604D01*
X12624500Y8937397D01*
X12656904Y8816465D01*
X12656905Y8816464D01*
X12719505Y8708036D01*
X12808036Y8619505D01*
X12916464Y8556905D01*
X12916463Y8556905D01*
X12986286Y8538196D01*
X13037396Y8524501D01*
X13037397Y8524500D01*
X13037399Y8524500D01*
X13162603Y8524500D01*
X13162603Y8524501D01*
X13283536Y8556905D01*
X13391964Y8619505D01*
X13480495Y8708036D01*
X13543095Y8816464D01*
X13575499Y8937397D01*
X13575500Y8937397D01*
X13575500Y9062603D01*
X13575499Y9062604D01*
X13543095Y9183536D01*
X13480495Y9291964D01*
X13391963Y9380496D01*
X13283534Y9443096D01*
X13283536Y9443096D01*
X13162603Y9475500D01*
X13162601Y9475500D01*
X13037399Y9475500D01*
X13037397Y9475500D01*
X12916464Y9443096D01*
X12808036Y9380496D01*
X12719504Y9291964D01*
X12656904Y9183536D01*
X12624500Y9062604D01*
X11975499Y9062604D01*
X11943095Y9183536D01*
X11880495Y9291964D01*
X11791963Y9380496D01*
X11683534Y9443096D01*
X11683536Y9443096D01*
X11562603Y9475500D01*
X11562601Y9475500D01*
X11437399Y9475500D01*
X11437397Y9475500D01*
X11316464Y9443096D01*
X11208036Y9380496D01*
X11119504Y9291964D01*
X11056904Y9183536D01*
X11024500Y9062604D01*
X10375499Y9062604D01*
X10343095Y9183536D01*
X10280495Y9291964D01*
X10191963Y9380496D01*
X10083534Y9443096D01*
X10083536Y9443096D01*
X9962603Y9475500D01*
X9962601Y9475500D01*
X9837399Y9475500D01*
X9837397Y9475500D01*
X9716464Y9443096D01*
X9608036Y9380496D01*
X9519504Y9291964D01*
X9456904Y9183536D01*
X9424500Y9062604D01*
X300500Y9062604D01*
X300500Y10062604D01*
X2524500Y10062604D01*
X2524500Y9937397D01*
X2556904Y9816465D01*
X2610000Y9724500D01*
X2619505Y9708036D01*
X2708036Y9619505D01*
X2816464Y9556905D01*
X2816463Y9556905D01*
X2886286Y9538196D01*
X2937396Y9524501D01*
X2937397Y9524500D01*
X2937399Y9524500D01*
X3062603Y9524500D01*
X3062603Y9524501D01*
X3183536Y9556905D01*
X3291964Y9619505D01*
X3380495Y9708036D01*
X3443095Y9816464D01*
X3475499Y9937397D01*
X3475500Y9937397D01*
X3475500Y10062603D01*
X3475499Y10062604D01*
X3443095Y10183536D01*
X3380495Y10291964D01*
X3309855Y10362604D01*
X8724500Y10362604D01*
X8724500Y10237397D01*
X8756904Y10116465D01*
X8814639Y10016465D01*
X8819505Y10008036D01*
X8908036Y9919505D01*
X9016464Y9856905D01*
X9016463Y9856905D01*
X9086286Y9838196D01*
X9137396Y9824501D01*
X9137397Y9824500D01*
X9137399Y9824500D01*
X9262603Y9824500D01*
X9262603Y9824501D01*
X9383536Y9856905D01*
X9491964Y9919505D01*
X9580495Y10008036D01*
X9643095Y10116464D01*
X9675499Y10237397D01*
X9675500Y10237397D01*
X9675500Y10262604D01*
X22724500Y10262604D01*
X22724500Y10137397D01*
X22756904Y10016465D01*
X22802554Y9937397D01*
X22819505Y9908036D01*
X22908036Y9819505D01*
X23016464Y9756905D01*
X23016463Y9756905D01*
X23086286Y9738196D01*
X23137396Y9724501D01*
X23137397Y9724500D01*
X23137399Y9724500D01*
X23262603Y9724500D01*
X23262603Y9724501D01*
X23383536Y9756905D01*
X23491964Y9819505D01*
X23580495Y9908036D01*
X23643095Y10016464D01*
X23675499Y10137397D01*
X23675500Y10137397D01*
X23675500Y10262603D01*
X23675499Y10262604D01*
X23643095Y10383536D01*
X23580495Y10491964D01*
X23491963Y10580496D01*
X23383534Y10643096D01*
X23383536Y10643096D01*
X23262603Y10675500D01*
X23262601Y10675500D01*
X23137399Y10675500D01*
X23137397Y10675500D01*
X23016464Y10643096D01*
X22908036Y10580496D01*
X22819504Y10491964D01*
X22756904Y10383536D01*
X22724500Y10262604D01*
X9675500Y10262604D01*
X9675500Y10362603D01*
X9675499Y10362604D01*
X9643095Y10483536D01*
X9580495Y10591964D01*
X9491963Y10680496D01*
X9383534Y10743096D01*
X9383536Y10743096D01*
X9262603Y10775500D01*
X9262601Y10775500D01*
X9137399Y10775500D01*
X9137397Y10775500D01*
X9016464Y10743096D01*
X8908036Y10680496D01*
X8819504Y10591964D01*
X8756904Y10483536D01*
X8724500Y10362604D01*
X3309855Y10362604D01*
X3291963Y10380496D01*
X3183534Y10443096D01*
X3183536Y10443096D01*
X3062603Y10475500D01*
X3062601Y10475500D01*
X2937399Y10475500D01*
X2937397Y10475500D01*
X2816464Y10443096D01*
X2708036Y10380496D01*
X2619504Y10291964D01*
X2556904Y10183536D01*
X2524500Y10062604D01*
X300500Y10062604D01*
X300500Y11862604D01*
X14824500Y11862604D01*
X14824500Y11737397D01*
X14856904Y11616465D01*
X14856905Y11616464D01*
X14919505Y11508036D01*
X15008036Y11419505D01*
X15116464Y11356905D01*
X15116463Y11356905D01*
X15186286Y11338196D01*
X15237396Y11324501D01*
X15237397Y11324500D01*
X15237399Y11324500D01*
X15362603Y11324500D01*
X15362603Y11324501D01*
X15483536Y11356905D01*
X15591964Y11419505D01*
X15680495Y11508036D01*
X15743095Y11616464D01*
X15775499Y11737397D01*
X15775500Y11737397D01*
X15775500Y11862603D01*
X15775499Y11862604D01*
X15743095Y11983536D01*
X15680495Y12091964D01*
X15591963Y12180496D01*
X15483534Y12243096D01*
X15483536Y12243096D01*
X15362603Y12275500D01*
X15362601Y12275500D01*
X15237399Y12275500D01*
X15237397Y12275500D01*
X15116464Y12243096D01*
X15008036Y12180496D01*
X14919504Y12091964D01*
X14856904Y11983536D01*
X14824500Y11862604D01*
X300500Y11862604D01*
X300500Y13262604D01*
X17524500Y13262604D01*
X17524500Y13137397D01*
X17556904Y13016465D01*
X17556905Y13016464D01*
X17619505Y12908036D01*
X17708036Y12819505D01*
X17816464Y12756905D01*
X17816463Y12756905D01*
X17886286Y12738196D01*
X17937396Y12724501D01*
X17937397Y12724500D01*
X17937399Y12724500D01*
X18062603Y12724500D01*
X18062603Y12724501D01*
X18183536Y12756905D01*
X18291964Y12819505D01*
X18380495Y12908036D01*
X18443095Y13016464D01*
X18475499Y13137397D01*
X18475500Y13137397D01*
X18475500Y13262603D01*
X18475499Y13262604D01*
X18463325Y13308036D01*
X18443095Y13383536D01*
X18380495Y13491964D01*
X18291964Y13580495D01*
X18291963Y13580496D01*
X18183534Y13643096D01*
X18183536Y13643096D01*
X18062603Y13675500D01*
X18062601Y13675500D01*
X17937399Y13675500D01*
X17937397Y13675500D01*
X17816464Y13643096D01*
X17708036Y13580496D01*
X17619504Y13491964D01*
X17556904Y13383536D01*
X17524500Y13262604D01*
X300500Y13262604D01*
X300500Y15262604D01*
X4324500Y15262604D01*
X4324500Y15137397D01*
X4356904Y15016465D01*
X4388001Y14962604D01*
X4419505Y14908036D01*
X4508036Y14819505D01*
X4616464Y14756905D01*
X4616463Y14756905D01*
X4686286Y14738196D01*
X4737396Y14724501D01*
X4737397Y14724500D01*
X4737399Y14724500D01*
X4862603Y14724500D01*
X4862603Y14724501D01*
X4983536Y14756905D01*
X5091964Y14819505D01*
X5180495Y14908036D01*
X5211999Y14962604D01*
X7824500Y14962604D01*
X7824500Y14837397D01*
X7856904Y14716465D01*
X7888001Y14662604D01*
X7919505Y14608036D01*
X8008036Y14519505D01*
X8116464Y14456905D01*
X8116463Y14456905D01*
X8167652Y14443189D01*
X8237396Y14424501D01*
X8237397Y14424500D01*
X8237399Y14424500D01*
X8362603Y14424500D01*
X8362603Y14424501D01*
X8483536Y14456905D01*
X8591964Y14519505D01*
X8680495Y14608036D01*
X8711999Y14662604D01*
X15324500Y14662604D01*
X15324500Y14537397D01*
X15356904Y14416465D01*
X15414639Y14316465D01*
X15419505Y14308036D01*
X15508036Y14219505D01*
X15616464Y14156905D01*
X15616463Y14156905D01*
X15626469Y14154224D01*
X15737396Y14124501D01*
X15737397Y14124500D01*
X15737399Y14124500D01*
X15862603Y14124500D01*
X15862603Y14124501D01*
X15983536Y14156905D01*
X16091964Y14219505D01*
X16180495Y14308036D01*
X16243095Y14416464D01*
X16275499Y14537397D01*
X16275500Y14537397D01*
X16275500Y14562604D01*
X23424500Y14562604D01*
X23424500Y14437397D01*
X23456904Y14316465D01*
X23506314Y14230884D01*
X23519505Y14208036D01*
X23608036Y14119505D01*
X23616066Y14114869D01*
X23617422Y14114086D01*
X23651901Y14069152D01*
X23644508Y14013000D01*
X23617422Y13985914D01*
X23608035Y13980495D01*
X23519504Y13891964D01*
X23456904Y13783536D01*
X23424500Y13662604D01*
X23424500Y13537397D01*
X23456904Y13416465D01*
X23475916Y13383536D01*
X23519505Y13308036D01*
X23608036Y13219505D01*
X23716464Y13156905D01*
X23716463Y13156905D01*
X23786286Y13138196D01*
X23837396Y13124501D01*
X23837397Y13124500D01*
X23837399Y13124500D01*
X23962603Y13124500D01*
X23962603Y13124501D01*
X24083536Y13156905D01*
X24191964Y13219505D01*
X24280495Y13308036D01*
X24343095Y13416464D01*
X24375499Y13537397D01*
X24375500Y13537397D01*
X24375500Y13662603D01*
X24375499Y13662604D01*
X24372043Y13675500D01*
X24343095Y13783536D01*
X24280495Y13891964D01*
X24191964Y13980495D01*
X24182578Y13985914D01*
X24148099Y14030846D01*
X24155490Y14086998D01*
X24182578Y14114087D01*
X24191964Y14119505D01*
X24280495Y14208036D01*
X24343095Y14316464D01*
X24375499Y14437397D01*
X24375500Y14437397D01*
X24375500Y14562603D01*
X24375499Y14562604D01*
X24363325Y14608036D01*
X24343095Y14683536D01*
X24280495Y14791964D01*
X24191964Y14880495D01*
X24191963Y14880496D01*
X24083534Y14943096D01*
X24083536Y14943096D01*
X23962603Y14975500D01*
X23962601Y14975500D01*
X23837399Y14975500D01*
X23837397Y14975500D01*
X23716464Y14943096D01*
X23608036Y14880496D01*
X23519504Y14791964D01*
X23456904Y14683536D01*
X23424500Y14562604D01*
X16275500Y14562604D01*
X16275500Y14662603D01*
X16275499Y14662604D01*
X16243095Y14783536D01*
X16180495Y14891964D01*
X16091963Y14980496D01*
X15983534Y15043096D01*
X15983536Y15043096D01*
X15862603Y15075500D01*
X15862601Y15075500D01*
X15737399Y15075500D01*
X15737397Y15075500D01*
X15616464Y15043096D01*
X15508036Y14980496D01*
X15419504Y14891964D01*
X15356904Y14783536D01*
X15324500Y14662604D01*
X8711999Y14662604D01*
X8743095Y14716464D01*
X8775499Y14837397D01*
X8775500Y14837397D01*
X8775500Y14962603D01*
X8775499Y14962604D01*
X8772043Y14975500D01*
X8743095Y15083536D01*
X8680495Y15191964D01*
X8591964Y15280495D01*
X8591963Y15280496D01*
X8483534Y15343096D01*
X8483536Y15343096D01*
X8362603Y15375500D01*
X8362601Y15375500D01*
X8237399Y15375500D01*
X8237397Y15375500D01*
X8116464Y15343096D01*
X8008036Y15280496D01*
X7919504Y15191964D01*
X7856904Y15083536D01*
X7824500Y14962604D01*
X5211999Y14962604D01*
X5243095Y15016464D01*
X5275499Y15137397D01*
X5275500Y15137397D01*
X5275500Y15262603D01*
X5275499Y15262604D01*
X5248337Y15363971D01*
X5243095Y15383536D01*
X5180495Y15491964D01*
X5091964Y15580495D01*
X5091963Y15580496D01*
X5036349Y15612604D01*
X14724500Y15612604D01*
X14724500Y15487397D01*
X14756904Y15366465D01*
X14816868Y15262604D01*
X14819505Y15258036D01*
X14908036Y15169505D01*
X15016464Y15106905D01*
X15016463Y15106905D01*
X15086286Y15088196D01*
X15137396Y15074501D01*
X15137397Y15074500D01*
X15137399Y15074500D01*
X15262603Y15074500D01*
X15262603Y15074501D01*
X15383536Y15106905D01*
X15491964Y15169505D01*
X15580495Y15258036D01*
X15643095Y15366464D01*
X15675499Y15487397D01*
X15675500Y15487397D01*
X15675500Y15612603D01*
X15675499Y15612604D01*
X15643095Y15733536D01*
X15580495Y15841964D01*
X15491963Y15930496D01*
X15383534Y15993096D01*
X15383536Y15993096D01*
X15262603Y16025500D01*
X15262601Y16025500D01*
X15137399Y16025500D01*
X15137397Y16025500D01*
X15016464Y15993096D01*
X14908036Y15930496D01*
X14819504Y15841964D01*
X14756904Y15733536D01*
X14724500Y15612604D01*
X5036349Y15612604D01*
X4983534Y15643096D01*
X4983536Y15643096D01*
X4862603Y15675500D01*
X4862601Y15675500D01*
X4737399Y15675500D01*
X4737397Y15675500D01*
X4616464Y15643096D01*
X4508036Y15580496D01*
X4419504Y15491964D01*
X4356904Y15383536D01*
X4324500Y15262604D01*
X300500Y15262604D01*
X300500Y16412604D01*
X13324500Y16412604D01*
X13324500Y16287397D01*
X13356904Y16166465D01*
X13394989Y16100500D01*
X13419505Y16058036D01*
X13508036Y15969505D01*
X13616464Y15906905D01*
X13616463Y15906905D01*
X13686286Y15888196D01*
X13737396Y15874501D01*
X13737397Y15874500D01*
X13737399Y15874500D01*
X13862603Y15874500D01*
X13862603Y15874501D01*
X13983536Y15906905D01*
X14091964Y15969505D01*
X14180495Y16058036D01*
X14243095Y16166464D01*
X14275499Y16287397D01*
X14275500Y16287397D01*
X14275500Y16412603D01*
X14275499Y16412604D01*
X14243095Y16533535D01*
X14243095Y16533536D01*
X14226313Y16562604D01*
X17224500Y16562604D01*
X17224500Y16437397D01*
X17256904Y16316465D01*
X17273687Y16287397D01*
X17319505Y16208036D01*
X17408036Y16119505D01*
X17516464Y16056905D01*
X17516463Y16056905D01*
X17586286Y16038196D01*
X17637396Y16024501D01*
X17637397Y16024500D01*
X17637399Y16024500D01*
X17762603Y16024500D01*
X17762603Y16024501D01*
X17883536Y16056905D01*
X17991964Y16119505D01*
X18080495Y16208036D01*
X18143095Y16316464D01*
X18175499Y16437397D01*
X18175500Y16437397D01*
X18175500Y16562603D01*
X18175499Y16562604D01*
X18143095Y16683536D01*
X18080495Y16791964D01*
X17991963Y16880496D01*
X17883534Y16943096D01*
X17883536Y16943096D01*
X17762603Y16975500D01*
X17762601Y16975500D01*
X17637399Y16975500D01*
X17637397Y16975500D01*
X17516464Y16943096D01*
X17408036Y16880496D01*
X17319504Y16791964D01*
X17256904Y16683536D01*
X17224500Y16562604D01*
X14226313Y16562604D01*
X14180495Y16641964D01*
X14091964Y16730495D01*
X14091963Y16730496D01*
X13983534Y16793096D01*
X13983536Y16793096D01*
X13862603Y16825500D01*
X13862601Y16825500D01*
X13737399Y16825500D01*
X13737397Y16825500D01*
X13616464Y16793096D01*
X13508036Y16730496D01*
X13419504Y16641964D01*
X13356904Y16533536D01*
X13324500Y16412604D01*
X300500Y16412604D01*
X300500Y18662604D01*
X5324500Y18662604D01*
X5324500Y18537397D01*
X5356904Y18416465D01*
X5356905Y18416464D01*
X5419505Y18308036D01*
X5508036Y18219505D01*
X5616464Y18156905D01*
X5616463Y18156905D01*
X5686286Y18138196D01*
X5737396Y18124501D01*
X5737397Y18124500D01*
X5737399Y18124500D01*
X5862603Y18124500D01*
X5862603Y18124501D01*
X5983536Y18156905D01*
X6091964Y18219505D01*
X6180495Y18308036D01*
X6243095Y18416464D01*
X6275499Y18537397D01*
X6275500Y18537397D01*
X6275500Y18662603D01*
X6275499Y18662604D01*
X6263325Y18708036D01*
X6243095Y18783536D01*
X6180495Y18891964D01*
X6091964Y18980495D01*
X6052350Y19003366D01*
X6052350Y19003367D01*
X5983534Y19043096D01*
X5983536Y19043096D01*
X5910731Y19062604D01*
X17224500Y19062604D01*
X17224500Y18937397D01*
X17256904Y18816465D01*
X17286101Y18765895D01*
X17319505Y18708036D01*
X17408036Y18619505D01*
X17516464Y18556905D01*
X17516463Y18556905D01*
X17586286Y18538196D01*
X17637396Y18524501D01*
X17637397Y18524500D01*
X17637399Y18524500D01*
X17762603Y18524500D01*
X17762603Y18524501D01*
X17883536Y18556905D01*
X17991964Y18619505D01*
X18080495Y18708036D01*
X18113899Y18765895D01*
X23399500Y18765895D01*
X23399500Y18634106D01*
X23433606Y18506819D01*
X23433607Y18506816D01*
X23433608Y18506814D01*
X23499500Y18392686D01*
X23592686Y18299500D01*
X23706814Y18233608D01*
X23834105Y18199501D01*
X23834106Y18199500D01*
X23834108Y18199500D01*
X23965894Y18199500D01*
X23965894Y18199501D01*
X24093186Y18233608D01*
X24207314Y18299500D01*
X24300500Y18392686D01*
X24366392Y18506814D01*
X24400499Y18634106D01*
X24400500Y18634106D01*
X24400500Y18765894D01*
X24400499Y18765895D01*
X24386948Y18816467D01*
X24366392Y18893186D01*
X24300500Y19007314D01*
X24207314Y19100500D01*
X24093190Y19166390D01*
X24093181Y19166394D01*
X23965894Y19200500D01*
X23965892Y19200500D01*
X23834108Y19200500D01*
X23834106Y19200500D01*
X23706818Y19166394D01*
X23706809Y19166390D01*
X23592685Y19100500D01*
X23499500Y19007315D01*
X23433610Y18893191D01*
X23433606Y18893182D01*
X23399500Y18765895D01*
X18113899Y18765895D01*
X18143095Y18816464D01*
X18175499Y18937397D01*
X18175500Y18937397D01*
X18175500Y19062603D01*
X18175499Y19062604D01*
X18172043Y19075500D01*
X18143095Y19183536D01*
X18080495Y19291964D01*
X17991964Y19380495D01*
X17991963Y19380496D01*
X17883534Y19443096D01*
X17883536Y19443096D01*
X17762603Y19475500D01*
X17762601Y19475500D01*
X17637399Y19475500D01*
X17637397Y19475500D01*
X17516464Y19443096D01*
X17408036Y19380496D01*
X17319504Y19291964D01*
X17256904Y19183536D01*
X17224500Y19062604D01*
X5910731Y19062604D01*
X5862603Y19075500D01*
X5862601Y19075500D01*
X5737399Y19075500D01*
X5737397Y19075500D01*
X5616464Y19043096D01*
X5508036Y18980496D01*
X5419504Y18891964D01*
X5356904Y18783536D01*
X5324500Y18662604D01*
X300500Y18662604D01*
X300500Y19712604D01*
X6674500Y19712604D01*
X6674500Y19587397D01*
X6706904Y19466465D01*
X6756538Y19380496D01*
X6769505Y19358036D01*
X6858036Y19269505D01*
X6966464Y19206905D01*
X6966463Y19206905D01*
X6990367Y19200500D01*
X7087396Y19174501D01*
X7087397Y19174500D01*
X7087399Y19174500D01*
X7212603Y19174500D01*
X7212603Y19174501D01*
X7333536Y19206905D01*
X7441964Y19269505D01*
X7530495Y19358036D01*
X7593095Y19466464D01*
X7625499Y19587397D01*
X7625500Y19587397D01*
X7625500Y19712603D01*
X7625499Y19712604D01*
X7593095Y19833536D01*
X7530495Y19941964D01*
X7441963Y20030496D01*
X7380649Y20065895D01*
X21599500Y20065895D01*
X21599500Y19934106D01*
X21633606Y19806819D01*
X21633607Y19806816D01*
X21633608Y19806814D01*
X21699500Y19692686D01*
X21792686Y19599500D01*
X21906814Y19533608D01*
X22034105Y19499501D01*
X22034106Y19499500D01*
X22034108Y19499500D01*
X22165894Y19499500D01*
X22165894Y19499501D01*
X22293186Y19533608D01*
X22407314Y19599500D01*
X22500500Y19692686D01*
X22566392Y19806814D01*
X22600499Y19934106D01*
X22600500Y19934106D01*
X22600500Y20065894D01*
X22600499Y20065895D01*
X22566393Y20193182D01*
X22566392Y20193186D01*
X22500500Y20307314D01*
X22407314Y20400500D01*
X22293190Y20466390D01*
X22293181Y20466394D01*
X22165894Y20500500D01*
X22165892Y20500500D01*
X22034108Y20500500D01*
X22034106Y20500500D01*
X21906818Y20466394D01*
X21906809Y20466390D01*
X21792685Y20400500D01*
X21699500Y20307315D01*
X21633610Y20193191D01*
X21633606Y20193182D01*
X21599500Y20065895D01*
X7380649Y20065895D01*
X7333534Y20093096D01*
X7333536Y20093096D01*
X7212603Y20125500D01*
X7212601Y20125500D01*
X7087399Y20125500D01*
X7087397Y20125500D01*
X6966464Y20093096D01*
X6858036Y20030496D01*
X6769504Y19941964D01*
X6706904Y19833536D01*
X6674500Y19712604D01*
X300500Y19712604D01*
X300500Y20862604D01*
X5324500Y20862604D01*
X5324500Y20737397D01*
X5356904Y20616465D01*
X5356905Y20616464D01*
X5419505Y20508036D01*
X5508036Y20419505D01*
X5616464Y20356905D01*
X5616463Y20356905D01*
X5686286Y20338196D01*
X5737396Y20324501D01*
X5737397Y20324500D01*
X5737399Y20324500D01*
X5862603Y20324500D01*
X5862603Y20324501D01*
X5983536Y20356905D01*
X6091964Y20419505D01*
X6180495Y20508036D01*
X6243095Y20616464D01*
X6275499Y20737397D01*
X6275500Y20737397D01*
X6275500Y20862603D01*
X6275499Y20862604D01*
X6265612Y20899501D01*
X6243095Y20983536D01*
X6180495Y21091964D01*
X6091964Y21180495D01*
X6091963Y21180496D01*
X5983534Y21243096D01*
X5983536Y21243096D01*
X5862603Y21275500D01*
X5862601Y21275500D01*
X5737399Y21275500D01*
X5737397Y21275500D01*
X5616464Y21243096D01*
X5508036Y21180496D01*
X5419504Y21091964D01*
X5356904Y20983536D01*
X5324500Y20862604D01*
X300500Y20862604D01*
X300500Y21562604D01*
X18524500Y21562604D01*
X18524500Y21437397D01*
X18556904Y21316465D01*
X18556905Y21316464D01*
X18619505Y21208036D01*
X18708036Y21119505D01*
X18816464Y21056905D01*
X18816463Y21056905D01*
X18886286Y21038196D01*
X18937396Y21024501D01*
X18937397Y21024500D01*
X18937399Y21024500D01*
X19062603Y21024500D01*
X19062603Y21024501D01*
X19183536Y21056905D01*
X19291964Y21119505D01*
X19380495Y21208036D01*
X19443095Y21316464D01*
X19475499Y21437397D01*
X19475500Y21437397D01*
X19475500Y21465895D01*
X23399500Y21465895D01*
X23399500Y21334106D01*
X23433606Y21206819D01*
X23433607Y21206816D01*
X23433608Y21206814D01*
X23499500Y21092686D01*
X23592686Y20999500D01*
X23706814Y20933608D01*
X23834105Y20899501D01*
X23834106Y20899500D01*
X23834108Y20899500D01*
X23965894Y20899500D01*
X23965894Y20899501D01*
X24093186Y20933608D01*
X24207314Y20999500D01*
X24300500Y21092686D01*
X24366392Y21206814D01*
X24400499Y21334106D01*
X24400500Y21334106D01*
X24400500Y21465894D01*
X24400499Y21465895D01*
X24366393Y21593182D01*
X24366392Y21593186D01*
X24300500Y21707314D01*
X24207314Y21800500D01*
X24093190Y21866390D01*
X24093181Y21866394D01*
X23965894Y21900500D01*
X23965892Y21900500D01*
X23834108Y21900500D01*
X23834106Y21900500D01*
X23706818Y21866394D01*
X23706809Y21866390D01*
X23592685Y21800500D01*
X23499500Y21707315D01*
X23433610Y21593191D01*
X23433606Y21593182D01*
X23399500Y21465895D01*
X19475500Y21465895D01*
X19475500Y21562603D01*
X19475499Y21562604D01*
X19467304Y21593186D01*
X19443095Y21683536D01*
X19380495Y21791964D01*
X19291964Y21880495D01*
X19291963Y21880496D01*
X19183534Y21943096D01*
X19183536Y21943096D01*
X19062603Y21975500D01*
X19062601Y21975500D01*
X18937399Y21975500D01*
X18937397Y21975500D01*
X18816464Y21943096D01*
X18708036Y21880496D01*
X18619504Y21791964D01*
X18556904Y21683536D01*
X18524500Y21562604D01*
X300500Y21562604D01*
X300500Y23062604D01*
X1524500Y23062604D01*
X1524500Y22937397D01*
X1556904Y22816465D01*
X1556905Y22816464D01*
X1619505Y22708036D01*
X1708036Y22619505D01*
X1816464Y22556905D01*
X1816463Y22556905D01*
X1886286Y22538196D01*
X1937396Y22524501D01*
X1937397Y22524500D01*
X1937399Y22524500D01*
X2062603Y22524500D01*
X2062603Y22524501D01*
X2183536Y22556905D01*
X2291964Y22619505D01*
X2380495Y22708036D01*
X2443095Y22816464D01*
X2475499Y22937397D01*
X2475500Y22937397D01*
X2475500Y23062603D01*
X2475499Y23062604D01*
X2463325Y23108036D01*
X2443095Y23183536D01*
X2380495Y23291964D01*
X2291964Y23380495D01*
X2291963Y23380496D01*
X2183534Y23443096D01*
X2183536Y23443096D01*
X2062603Y23475500D01*
X2062601Y23475500D01*
X1937399Y23475500D01*
X1937397Y23475500D01*
X1816464Y23443096D01*
X1708036Y23380496D01*
X1619504Y23291964D01*
X1556904Y23183536D01*
X1524500Y23062604D01*
X300500Y23062604D01*
X300500Y23662604D01*
X8624500Y23662604D01*
X8624500Y23537397D01*
X8656904Y23416465D01*
X8702554Y23337397D01*
X8719505Y23308036D01*
X8808036Y23219505D01*
X8916464Y23156905D01*
X8916463Y23156905D01*
X8986286Y23138196D01*
X9037396Y23124501D01*
X9037397Y23124500D01*
X9037399Y23124500D01*
X9162603Y23124500D01*
X9162603Y23124501D01*
X9283536Y23156905D01*
X9391964Y23219505D01*
X9480495Y23308036D01*
X9543095Y23416464D01*
X9555458Y23462601D01*
X9555459Y23462604D01*
X11024500Y23462604D01*
X11024500Y23337397D01*
X11056904Y23216465D01*
X11110000Y23124500D01*
X11119505Y23108036D01*
X11208036Y23019505D01*
X11316464Y22956905D01*
X11316463Y22956905D01*
X11386286Y22938196D01*
X11437396Y22924501D01*
X11437397Y22924500D01*
X11437399Y22924500D01*
X11562603Y22924500D01*
X11562603Y22924501D01*
X11683536Y22956905D01*
X11791964Y23019505D01*
X11880495Y23108036D01*
X11943095Y23216464D01*
X11975499Y23337397D01*
X11975500Y23337397D01*
X11975500Y23462603D01*
X11975499Y23462604D01*
X11972043Y23475500D01*
X11943095Y23583536D01*
X11880495Y23691964D01*
X11791964Y23780495D01*
X11791963Y23780496D01*
X11683534Y23843096D01*
X11683536Y23843096D01*
X11562603Y23875500D01*
X11562601Y23875500D01*
X11437399Y23875500D01*
X11437397Y23875500D01*
X11316464Y23843096D01*
X11208036Y23780496D01*
X11119504Y23691964D01*
X11056904Y23583536D01*
X11024500Y23462604D01*
X9555459Y23462604D01*
X9561890Y23486604D01*
X9575499Y23537397D01*
X9575500Y23537397D01*
X9575500Y23662603D01*
X9575499Y23662604D01*
X9543095Y23783536D01*
X9480495Y23891964D01*
X9391963Y23980496D01*
X9283534Y24043096D01*
X9283536Y24043096D01*
X9162603Y24075500D01*
X9162601Y24075500D01*
X9037399Y24075500D01*
X9037397Y24075500D01*
X8916464Y24043096D01*
X8808036Y23980496D01*
X8719504Y23891964D01*
X8656904Y23783536D01*
X8624500Y23662604D01*
X300500Y23662604D01*
X300500Y24662604D01*
X9324500Y24662604D01*
X9324500Y24537397D01*
X9356904Y24416465D01*
X9375353Y24384511D01*
X9419505Y24308036D01*
X9508036Y24219505D01*
X9616464Y24156905D01*
X9616463Y24156905D01*
X9686286Y24138196D01*
X9737396Y24124501D01*
X9737397Y24124500D01*
X9737399Y24124500D01*
X9862603Y24124500D01*
X9862603Y24124501D01*
X9983536Y24156905D01*
X10091964Y24219505D01*
X10180495Y24308036D01*
X10243095Y24416464D01*
X10275499Y24537397D01*
X10275500Y24537397D01*
X10275500Y24662603D01*
X10275499Y24662604D01*
X10243095Y24783536D01*
X10180495Y24891964D01*
X10091963Y24980496D01*
X9983534Y25043096D01*
X9983536Y25043096D01*
X9862603Y25075500D01*
X9862601Y25075500D01*
X9737399Y25075500D01*
X9737397Y25075500D01*
X9616464Y25043096D01*
X9508036Y24980496D01*
X9419504Y24891964D01*
X9356904Y24783536D01*
X9324500Y24662604D01*
X300500Y24662604D01*
X300500Y26562604D01*
X8024500Y26562604D01*
X8024500Y26437397D01*
X8056904Y26316465D01*
X8061771Y26308036D01*
X8119505Y26208036D01*
X8208036Y26119505D01*
X8316464Y26056905D01*
X8316463Y26056905D01*
X8386286Y26038196D01*
X8437396Y26024501D01*
X8437397Y26024500D01*
X8437399Y26024500D01*
X8562603Y26024500D01*
X8562603Y26024501D01*
X8683536Y26056905D01*
X8791964Y26119505D01*
X8880495Y26208036D01*
X8943095Y26316464D01*
X8975499Y26437397D01*
X8975500Y26437397D01*
X8975500Y26562603D01*
X8975499Y26562604D01*
X8952538Y26648298D01*
X8948704Y26662604D01*
X9224500Y26662604D01*
X9224500Y26537397D01*
X9256904Y26416465D01*
X9314639Y26316465D01*
X9319505Y26308036D01*
X9408036Y26219505D01*
X9516464Y26156905D01*
X9516463Y26156905D01*
X9586286Y26138196D01*
X9637396Y26124501D01*
X9637397Y26124500D01*
X9637399Y26124500D01*
X9762603Y26124500D01*
X9762603Y26124501D01*
X9883536Y26156905D01*
X9991964Y26219505D01*
X10080495Y26308036D01*
X10143095Y26416464D01*
X10175499Y26537397D01*
X10175500Y26537397D01*
X10175500Y26662603D01*
X10175499Y26662604D01*
X10143095Y26783536D01*
X10080495Y26891964D01*
X9991963Y26980496D01*
X9883534Y27043096D01*
X9883536Y27043096D01*
X9762603Y27075500D01*
X9762601Y27075500D01*
X9637399Y27075500D01*
X9637397Y27075500D01*
X9516464Y27043096D01*
X9408036Y26980496D01*
X9319504Y26891964D01*
X9256904Y26783536D01*
X9224500Y26662604D01*
X8948704Y26662604D01*
X8943095Y26683537D01*
X8880495Y26791964D01*
X8791963Y26880496D01*
X8683534Y26943096D01*
X8683536Y26943096D01*
X8562603Y26975500D01*
X8562601Y26975500D01*
X8437399Y26975500D01*
X8437397Y26975500D01*
X8316464Y26943096D01*
X8208036Y26880496D01*
X8119504Y26791964D01*
X8056904Y26683536D01*
X8024500Y26562604D01*
X300500Y26562604D01*
X300500Y28562604D01*
X2524500Y28562604D01*
X2524500Y28437397D01*
X2556904Y28316465D01*
X2556905Y28316464D01*
X2619505Y28208036D01*
X2708036Y28119505D01*
X2816464Y28056905D01*
X2816463Y28056905D01*
X2886286Y28038196D01*
X2937396Y28024501D01*
X2937397Y28024500D01*
X2937399Y28024500D01*
X3062603Y28024500D01*
X3062603Y28024501D01*
X3183536Y28056905D01*
X3291964Y28119505D01*
X3380495Y28208036D01*
X3443095Y28316464D01*
X3475499Y28437397D01*
X3475500Y28437397D01*
X3475500Y28562603D01*
X3475499Y28562604D01*
X3443095Y28683536D01*
X3380495Y28791964D01*
X3291963Y28880496D01*
X3183534Y28943096D01*
X3183536Y28943096D01*
X3062603Y28975500D01*
X3062601Y28975500D01*
X2937399Y28975500D01*
X2937397Y28975500D01*
X2816464Y28943096D01*
X2708036Y28880496D01*
X2619504Y28791964D01*
X2556904Y28683536D01*
X2524500Y28562604D01*
X300500Y28562604D01*
X300500Y29362604D01*
X7724500Y29362604D01*
X7724500Y29237397D01*
X7756904Y29116465D01*
X7756905Y29116464D01*
X7819505Y29008036D01*
X7908036Y28919505D01*
X8016464Y28856905D01*
X8016463Y28856905D01*
X8086286Y28838196D01*
X8137396Y28824501D01*
X8137397Y28824500D01*
X8137399Y28824500D01*
X8262603Y28824500D01*
X8262603Y28824501D01*
X8383536Y28856905D01*
X8491964Y28919505D01*
X8580495Y29008036D01*
X8643095Y29116464D01*
X8675499Y29237397D01*
X8675500Y29237397D01*
X8675500Y29362603D01*
X8675499Y29362604D01*
X8643095Y29483536D01*
X8580495Y29591964D01*
X8491963Y29680496D01*
X8383534Y29743096D01*
X8383536Y29743096D01*
X8262603Y29775500D01*
X8262601Y29775500D01*
X8137399Y29775500D01*
X8137397Y29775500D01*
X8016464Y29743096D01*
X7908036Y29680496D01*
X7819504Y29591964D01*
X7756904Y29483536D01*
X7724500Y29362604D01*
X300500Y29362604D01*
X300500Y30062604D01*
X14524500Y30062604D01*
X14524500Y29937397D01*
X14556904Y29816465D01*
X14556905Y29816464D01*
X14619505Y29708036D01*
X14708036Y29619505D01*
X14816464Y29556905D01*
X14816463Y29556905D01*
X14886286Y29538196D01*
X14937396Y29524501D01*
X14937397Y29524500D01*
X14937399Y29524500D01*
X15062603Y29524500D01*
X15062603Y29524501D01*
X15183536Y29556905D01*
X15291964Y29619505D01*
X15380495Y29708036D01*
X15443095Y29816464D01*
X15475499Y29937397D01*
X15475500Y29937397D01*
X15475500Y30062603D01*
X15475499Y30062604D01*
X15463325Y30108036D01*
X15443095Y30183536D01*
X15380495Y30291964D01*
X15291964Y30380495D01*
X15252350Y30403366D01*
X15252350Y30403367D01*
X15183534Y30443096D01*
X15183536Y30443096D01*
X15110731Y30462604D01*
X20124500Y30462604D01*
X20124500Y30337397D01*
X20156904Y30216465D01*
X20175916Y30183536D01*
X20219505Y30108036D01*
X20308036Y30019505D01*
X20416464Y29956905D01*
X20416463Y29956905D01*
X20486286Y29938196D01*
X20537396Y29924501D01*
X20537397Y29924500D01*
X20537399Y29924500D01*
X20662603Y29924500D01*
X20662603Y29924501D01*
X20783536Y29956905D01*
X20891964Y30019505D01*
X20980495Y30108036D01*
X21043095Y30216464D01*
X21075499Y30337397D01*
X21075500Y30337397D01*
X21075500Y30462603D01*
X21075499Y30462604D01*
X21389500Y30462604D01*
X21389500Y30337397D01*
X21421904Y30216465D01*
X21440916Y30183536D01*
X21484505Y30108036D01*
X21573036Y30019505D01*
X21681464Y29956905D01*
X21681463Y29956905D01*
X21751286Y29938196D01*
X21802396Y29924501D01*
X21802397Y29924500D01*
X21802399Y29924500D01*
X21927603Y29924500D01*
X21927603Y29924501D01*
X22048536Y29956905D01*
X22156964Y30019505D01*
X22245495Y30108036D01*
X22308095Y30216464D01*
X22340499Y30337397D01*
X22340500Y30337397D01*
X22340500Y30462603D01*
X22340499Y30462604D01*
X22337043Y30475500D01*
X22308095Y30583536D01*
X22245495Y30691964D01*
X22156964Y30780495D01*
X22156963Y30780496D01*
X22048534Y30843096D01*
X22048536Y30843096D01*
X21927603Y30875500D01*
X21927601Y30875500D01*
X21802399Y30875500D01*
X21802397Y30875500D01*
X21681464Y30843096D01*
X21573036Y30780496D01*
X21484504Y30691964D01*
X21421904Y30583536D01*
X21389500Y30462604D01*
X21075499Y30462604D01*
X21072043Y30475500D01*
X21043095Y30583536D01*
X20980495Y30691964D01*
X20891964Y30780495D01*
X20891963Y30780496D01*
X20783534Y30843096D01*
X20783536Y30843096D01*
X20662603Y30875500D01*
X20662601Y30875500D01*
X20537399Y30875500D01*
X20537397Y30875500D01*
X20416464Y30843096D01*
X20308036Y30780496D01*
X20219504Y30691964D01*
X20156904Y30583536D01*
X20124500Y30462604D01*
X15110731Y30462604D01*
X15062603Y30475500D01*
X15062601Y30475500D01*
X14937399Y30475500D01*
X14937397Y30475500D01*
X14816464Y30443096D01*
X14708036Y30380496D01*
X14619504Y30291964D01*
X14556904Y30183536D01*
X14524500Y30062604D01*
X300500Y30062604D01*
X300500Y32462604D01*
X7324500Y32462604D01*
X7324500Y32337397D01*
X7356904Y32216465D01*
X7375916Y32183536D01*
X7419505Y32108036D01*
X7508036Y32019505D01*
X7616464Y31956905D01*
X7616463Y31956905D01*
X7686286Y31938196D01*
X7737396Y31924501D01*
X7737397Y31924500D01*
X7737399Y31924500D01*
X7862603Y31924500D01*
X7862603Y31924501D01*
X7983536Y31956905D01*
X8091964Y32019505D01*
X8135063Y32062604D01*
X13524500Y32062604D01*
X13524500Y31937397D01*
X13556904Y31816465D01*
X13556905Y31816464D01*
X13619505Y31708036D01*
X13708036Y31619505D01*
X13816464Y31556905D01*
X13816463Y31556905D01*
X13886286Y31538196D01*
X13937396Y31524501D01*
X13937397Y31524500D01*
X13937399Y31524500D01*
X14062603Y31524500D01*
X14062603Y31524501D01*
X14183536Y31556905D01*
X14291964Y31619505D01*
X14380495Y31708036D01*
X14443095Y31816464D01*
X14475499Y31937397D01*
X14475500Y31937397D01*
X14475500Y32062603D01*
X14475499Y32062604D01*
X14463325Y32108036D01*
X14443095Y32183536D01*
X14380495Y32291964D01*
X14291964Y32380495D01*
X14291963Y32380496D01*
X14183534Y32443096D01*
X14183536Y32443096D01*
X14062603Y32475500D01*
X14062601Y32475500D01*
X13937399Y32475500D01*
X13937397Y32475500D01*
X13816464Y32443096D01*
X13708036Y32380496D01*
X13619504Y32291964D01*
X13556904Y32183536D01*
X13524500Y32062604D01*
X8135063Y32062604D01*
X8180495Y32108036D01*
X8243095Y32216464D01*
X8275499Y32337397D01*
X8275500Y32337397D01*
X8275500Y32462603D01*
X8275499Y32462604D01*
X8272043Y32475500D01*
X8243095Y32583536D01*
X8180495Y32691964D01*
X8091964Y32780495D01*
X8091963Y32780496D01*
X7983534Y32843096D01*
X7983536Y32843096D01*
X7862603Y32875500D01*
X7862601Y32875500D01*
X7737399Y32875500D01*
X7737397Y32875500D01*
X7616464Y32843096D01*
X7508036Y32780496D01*
X7419504Y32691964D01*
X7356904Y32583536D01*
X7324500Y32462604D01*
X300500Y32462604D01*
X300500Y33062604D01*
X4524500Y33062604D01*
X4524500Y32937397D01*
X4556904Y32816465D01*
X4577671Y32780496D01*
X4619505Y32708036D01*
X4708036Y32619505D01*
X4816464Y32556905D01*
X4816463Y32556905D01*
X4883550Y32538929D01*
X4937396Y32524501D01*
X4937397Y32524500D01*
X4937399Y32524500D01*
X5062603Y32524500D01*
X5062603Y32524501D01*
X5086463Y32530895D01*
X5116452Y32538929D01*
X5162418Y32551247D01*
X5183536Y32556905D01*
X5291964Y32619505D01*
X5380495Y32708036D01*
X5443095Y32816464D01*
X5475499Y32937397D01*
X5475500Y32937397D01*
X5475500Y33062603D01*
X5475499Y33062604D01*
X5452538Y33148298D01*
X5448704Y33162604D01*
X18924500Y33162604D01*
X18924500Y33037397D01*
X18956904Y32916465D01*
X19014639Y32816465D01*
X19019505Y32808036D01*
X19108036Y32719505D01*
X19216464Y32656905D01*
X19216463Y32656905D01*
X19286286Y32638196D01*
X19337396Y32624501D01*
X19337397Y32624500D01*
X19337399Y32624500D01*
X19462603Y32624500D01*
X19462603Y32624501D01*
X19583536Y32656905D01*
X19691964Y32719505D01*
X19780495Y32808036D01*
X19843095Y32916464D01*
X19875499Y33037397D01*
X19875500Y33037397D01*
X19875500Y33162603D01*
X19875499Y33162604D01*
X19843095Y33283536D01*
X19780495Y33391964D01*
X19691963Y33480496D01*
X19583534Y33543096D01*
X19583536Y33543096D01*
X19462603Y33575500D01*
X19462601Y33575500D01*
X19337399Y33575500D01*
X19337397Y33575500D01*
X19216464Y33543096D01*
X19108036Y33480496D01*
X19019504Y33391964D01*
X18956904Y33283536D01*
X18924500Y33162604D01*
X5448704Y33162604D01*
X5443095Y33183537D01*
X5380495Y33291964D01*
X5291963Y33380496D01*
X5183534Y33443096D01*
X5183536Y33443096D01*
X5062603Y33475500D01*
X5062601Y33475500D01*
X4937399Y33475500D01*
X4937397Y33475500D01*
X4816464Y33443096D01*
X4708036Y33380496D01*
X4619504Y33291964D01*
X4556904Y33183536D01*
X4524500Y33062604D01*
X300500Y33062604D01*
X300500Y33862604D01*
X16724500Y33862604D01*
X16724500Y33737397D01*
X16756904Y33616465D01*
X16810000Y33524500D01*
X16819505Y33508036D01*
X16908036Y33419505D01*
X17016464Y33356905D01*
X17016463Y33356905D01*
X17086286Y33338196D01*
X17137396Y33324501D01*
X17137397Y33324500D01*
X17137399Y33324500D01*
X17262603Y33324500D01*
X17262603Y33324501D01*
X17383536Y33356905D01*
X17491964Y33419505D01*
X17580495Y33508036D01*
X17643095Y33616464D01*
X17675499Y33737397D01*
X17675500Y33737397D01*
X17675500Y33862603D01*
X17675499Y33862604D01*
X17643095Y33983536D01*
X17616011Y34030448D01*
X17616009Y34030451D01*
X17597446Y34062604D01*
X26524500Y34062604D01*
X26524500Y33937397D01*
X26556904Y33816465D01*
X26602554Y33737397D01*
X26619505Y33708036D01*
X26708036Y33619505D01*
X26816464Y33556905D01*
X26816463Y33556905D01*
X26886286Y33538196D01*
X26937396Y33524501D01*
X26937397Y33524500D01*
X26937399Y33524500D01*
X27062603Y33524500D01*
X27062603Y33524501D01*
X27183536Y33556905D01*
X27291964Y33619505D01*
X27380495Y33708036D01*
X27443095Y33816464D01*
X27475499Y33937397D01*
X27475500Y33937397D01*
X27475500Y34062603D01*
X27475499Y34062604D01*
X27443095Y34183536D01*
X27380495Y34291964D01*
X27291963Y34380496D01*
X27183534Y34443096D01*
X27183536Y34443096D01*
X27062603Y34475500D01*
X27062601Y34475500D01*
X26937399Y34475500D01*
X26937397Y34475500D01*
X26816464Y34443096D01*
X26708036Y34380496D01*
X26619504Y34291964D01*
X26556904Y34183536D01*
X26524500Y34062604D01*
X17597446Y34062604D01*
X17580494Y34091965D01*
X17491963Y34180496D01*
X17383534Y34243096D01*
X17383536Y34243096D01*
X17262603Y34275500D01*
X17262601Y34275500D01*
X17137399Y34275500D01*
X17137397Y34275500D01*
X17016464Y34243096D01*
X16908036Y34180496D01*
X16819504Y34091964D01*
X16756904Y33983536D01*
X16724500Y33862604D01*
X300500Y33862604D01*
X300500Y35262604D01*
X7324500Y35262604D01*
X7324500Y35137397D01*
X7356904Y35016465D01*
X7356905Y35016464D01*
X7419505Y34908036D01*
X7508036Y34819505D01*
X7616464Y34756905D01*
X7616463Y34756905D01*
X7686286Y34738196D01*
X7737396Y34724501D01*
X7737397Y34724500D01*
X7737399Y34724500D01*
X7862603Y34724500D01*
X7862603Y34724501D01*
X7983536Y34756905D01*
X8091964Y34819505D01*
X8180495Y34908036D01*
X8243095Y35016464D01*
X8275499Y35137397D01*
X8275500Y35137397D01*
X8275500Y35262603D01*
X8275499Y35262604D01*
X8243095Y35383536D01*
X8180495Y35491964D01*
X8091963Y35580496D01*
X7983534Y35643096D01*
X7983536Y35643096D01*
X7862603Y35675500D01*
X7862601Y35675500D01*
X7737399Y35675500D01*
X7737397Y35675500D01*
X7616464Y35643096D01*
X7508036Y35580496D01*
X7419504Y35491964D01*
X7356904Y35383536D01*
X7324500Y35262604D01*
X300500Y35262604D01*
X300500Y36997917D01*
X300616Y37002066D01*
X317241Y37298107D01*
X318171Y37306353D01*
X319889Y37316464D01*
X361709Y37562604D01*
X15524500Y37562604D01*
X15524500Y37437397D01*
X15556904Y37316465D01*
X15562743Y37306353D01*
X15619505Y37208036D01*
X15708036Y37119505D01*
X15816464Y37056905D01*
X15816463Y37056905D01*
X15881188Y37039562D01*
X15937396Y37024501D01*
X15937397Y37024500D01*
X15937399Y37024500D01*
X16062603Y37024500D01*
X16062603Y37024501D01*
X16183536Y37056905D01*
X16291964Y37119505D01*
X16380495Y37208036D01*
X16443095Y37316464D01*
X16475499Y37437397D01*
X16475500Y37437397D01*
X16475500Y37562603D01*
X16475499Y37562604D01*
X16465292Y37600695D01*
X16443095Y37683536D01*
X16380495Y37791964D01*
X16291964Y37880495D01*
X16291963Y37880496D01*
X16183534Y37943096D01*
X16183536Y37943096D01*
X16062603Y37975500D01*
X16062601Y37975500D01*
X15937399Y37975500D01*
X15937397Y37975500D01*
X15816464Y37943096D01*
X15708036Y37880496D01*
X15619504Y37791964D01*
X15556904Y37683536D01*
X15524500Y37562604D01*
X361709Y37562604D01*
X367489Y37596621D01*
X369326Y37604668D01*
X450841Y37887611D01*
X453571Y37895414D01*
X566246Y38167436D01*
X569840Y38174898D01*
X712268Y38432603D01*
X716665Y38439601D01*
X803941Y38562604D01*
X19024500Y38562604D01*
X19024500Y38437397D01*
X19056904Y38316465D01*
X19056905Y38316464D01*
X19119505Y38208036D01*
X19208036Y38119505D01*
X19316464Y38056905D01*
X19316463Y38056905D01*
X19386286Y38038196D01*
X19437396Y38024501D01*
X19437397Y38024500D01*
X19437399Y38024500D01*
X19562603Y38024500D01*
X19562603Y38024501D01*
X19683536Y38056905D01*
X19791964Y38119505D01*
X19880495Y38208036D01*
X19943095Y38316464D01*
X19975499Y38437397D01*
X19975500Y38437397D01*
X19975500Y38562603D01*
X19975499Y38562604D01*
X19943095Y38683536D01*
X19880495Y38791964D01*
X19791963Y38880496D01*
X19683534Y38943096D01*
X19683536Y38943096D01*
X19562603Y38975500D01*
X19562601Y38975500D01*
X19437399Y38975500D01*
X19437397Y38975500D01*
X19316464Y38943096D01*
X19208036Y38880496D01*
X19119504Y38791964D01*
X19056904Y38683536D01*
X19024500Y38562604D01*
X803941Y38562604D01*
X887052Y38679738D01*
X892202Y38686195D01*
X1088408Y38905751D01*
X1094249Y38911592D01*
X1313804Y39107798D01*
X1320273Y39112956D01*
X1560399Y39283335D01*
X1567397Y39287732D01*
X1825102Y39430160D01*
X1832564Y39433754D01*
X2104586Y39546429D01*
X2112389Y39549159D01*
X2395332Y39630674D01*
X2403392Y39632513D01*
X2693655Y39681830D01*
X2701885Y39682759D01*
X2997934Y39699385D01*
X3002083Y39699500D01*
X3047595Y39699500D01*
X26952405Y39699500D01*
X26997917Y39699500D01*
X27002065Y39699385D01*
G37*
%TD.AperFunction*%
%TD*%
M02*
