%TF.GenerationSoftware,KiCad,Pcbnew,9.0.1*%
%TF.CreationDate,2025-08-05T14:32:16+03:00*%
%TF.ProjectId,MESHTASTIC NODE,4d455348-5441-4535-9449-43204e4f4445,rev?*%
%TF.SameCoordinates,PX5f5e100PY5f5e100*%
%TF.FileFunction,Legend,Top*%
%TF.FilePolarity,Positive*%
%FSLAX46Y46*%
G04 Gerber Fmt 4.6, Leading zero omitted, Abs format (unit mm)*
G04 Created by KiCad (PCBNEW 9.0.1) date 2025-08-05 14:32:16*
%MOMM*%
%LPD*%
G01*
G04 APERTURE LIST*
%ADD10C,0.000000*%
%ADD11C,0.120000*%
%ADD12C,0.254000*%
%ADD13C,0.127000*%
G04 APERTURE END LIST*
D10*
%TO.C,kibuzzard-6891E772*%
G36*
X20749865Y6398061D02*
G01*
X20117124Y6398061D01*
X19874798Y6398061D01*
X18913570Y6398061D01*
X18083199Y6398061D01*
X17882876Y6398061D01*
X17250135Y6398061D01*
X17250135Y7326979D01*
X17882876Y7326979D01*
X17882876Y6617771D01*
X18083199Y6617771D01*
X18083199Y6663005D01*
X18634087Y6663005D01*
X18745557Y6622617D01*
X18822294Y6605654D01*
X18913570Y6600000D01*
X19002827Y6604443D01*
X19076737Y6617771D01*
X19184168Y6666236D01*
X19243134Y6738934D01*
X19260905Y6827787D01*
X19236672Y6928756D01*
X19174475Y6996607D01*
X19089661Y7041034D01*
X18999192Y7073344D01*
X18941842Y7093538D01*
X18894992Y7115347D01*
X18862682Y7140388D01*
X18850565Y7171890D01*
X18877221Y7211470D01*
X18979806Y7230048D01*
X19110662Y7211470D01*
X19196284Y7184814D01*
X19226979Y7352827D01*
X19143981Y7377060D01*
X19412763Y7377060D01*
X19412763Y7212278D01*
X19585622Y7212278D01*
X19585622Y6900485D01*
X19590468Y6814257D01*
X19605008Y6746204D01*
X19661551Y6654927D01*
X19752019Y6611309D01*
X19874798Y6600000D01*
X19998384Y6609693D01*
X20117124Y6642003D01*
X20089661Y6813247D01*
X20038772Y6792246D01*
X19993538Y6780129D01*
X19948304Y6774475D01*
X19897415Y6772859D01*
X19850565Y6777706D01*
X19815024Y6797092D01*
X19792407Y6837480D01*
X19784330Y6905331D01*
X19784330Y7212278D01*
X20102585Y7212278D01*
X20102585Y7377060D01*
X19784330Y7377060D01*
X19784330Y7600000D01*
X19585622Y7567690D01*
X19585622Y7377060D01*
X19412763Y7377060D01*
X19143981Y7377060D01*
X19116317Y7385137D01*
X19049879Y7393619D01*
X18978191Y7396446D01*
X18898627Y7391801D01*
X18831179Y7377868D01*
X18730210Y7326171D01*
X18672052Y7250242D01*
X18653473Y7158966D01*
X18677706Y7059612D01*
X18739095Y6994184D01*
X18821486Y6951373D01*
X18910339Y6921486D01*
X18969305Y6902100D01*
X19019386Y6881906D01*
X19053312Y6856866D01*
X19065428Y6821325D01*
X19026656Y6778514D01*
X18915186Y6768013D01*
X18785137Y6787399D01*
X18664782Y6829402D01*
X18634087Y6663005D01*
X18083199Y6663005D01*
X18083199Y7181583D01*
X18165590Y7196931D01*
X18247981Y7200969D01*
X18291599Y7199354D01*
X18344911Y7193700D01*
X18399031Y7184814D01*
X18445073Y7175121D01*
X18480614Y7359289D01*
X18418417Y7374637D01*
X18349758Y7384330D01*
X18285945Y7389984D01*
X18239903Y7391599D01*
X18135501Y7387157D01*
X18045234Y7373829D01*
X17963045Y7353231D01*
X17882876Y7326979D01*
X17250135Y7326979D01*
X17250135Y7801939D01*
X17882876Y7801939D01*
X20117124Y7801939D01*
X20749865Y7801939D01*
X20749865Y6398061D01*
G37*
%TO.C,kibuzzard-6891E75C*%
G36*
X24744750Y6394292D02*
G01*
X24542811Y6394292D01*
X24300485Y6394292D01*
X23378029Y6394292D01*
X22570275Y6394292D01*
X21751212Y6394292D01*
X21457189Y6394292D01*
X21255250Y6394292D01*
X21255250Y7637157D01*
X21457189Y7637157D01*
X21457189Y6572536D01*
X21518578Y6556381D01*
X21592892Y6543457D01*
X21672859Y6534976D01*
X21751212Y6532149D01*
X21833603Y6539216D01*
X21906300Y6560420D01*
X21968901Y6594548D01*
X22021002Y6640388D01*
X22062197Y6697536D01*
X22092084Y6765590D01*
X22110258Y6843336D01*
X22116317Y6929564D01*
X22116225Y6931179D01*
X22211632Y6931179D01*
X22218094Y6844952D01*
X22237480Y6767205D01*
X22268780Y6698748D01*
X22310985Y6640388D01*
X22363086Y6593134D01*
X22424071Y6557997D01*
X22493336Y6536187D01*
X22570275Y6528918D01*
X22647213Y6536187D01*
X22716478Y6557997D01*
X22777262Y6593134D01*
X22828756Y6640388D01*
X22870355Y6698748D01*
X22901454Y6767205D01*
X22920840Y6844952D01*
X22927302Y6931179D01*
X23019386Y6931179D01*
X23025848Y6844952D01*
X23045234Y6767205D01*
X23076535Y6698748D01*
X23118740Y6640388D01*
X23170840Y6593134D01*
X23231826Y6557997D01*
X23301090Y6536187D01*
X23378029Y6528918D01*
X23454968Y6536187D01*
X23524233Y6557997D01*
X23585016Y6593134D01*
X23636511Y6640388D01*
X23678110Y6698748D01*
X23709208Y6767205D01*
X23728595Y6844952D01*
X23735057Y6931179D01*
X23728595Y7016195D01*
X23709208Y7093538D01*
X23677908Y7161793D01*
X23635703Y7219548D01*
X23583603Y7265994D01*
X23522617Y7300323D01*
X23493763Y7309208D01*
X23838449Y7309208D01*
X23838449Y7144426D01*
X24011309Y7144426D01*
X24011309Y6832633D01*
X24016155Y6746405D01*
X24030695Y6678352D01*
X24087237Y6587076D01*
X24177706Y6543457D01*
X24300485Y6532149D01*
X24424071Y6541842D01*
X24542811Y6574152D01*
X24515347Y6745396D01*
X24464459Y6724394D01*
X24419225Y6712278D01*
X24373990Y6706624D01*
X24323102Y6705008D01*
X24276252Y6709855D01*
X24240711Y6729241D01*
X24218094Y6769628D01*
X24210016Y6837480D01*
X24210016Y7144426D01*
X24528271Y7144426D01*
X24528271Y7309208D01*
X24210016Y7309208D01*
X24210016Y7532149D01*
X24011309Y7499838D01*
X24011309Y7309208D01*
X23838449Y7309208D01*
X23493763Y7309208D01*
X23453756Y7321527D01*
X23378029Y7328595D01*
X23303312Y7321527D01*
X23234249Y7300323D01*
X23172658Y7265994D01*
X23120355Y7219548D01*
X23077948Y7161793D01*
X23046042Y7093538D01*
X23026050Y7016195D01*
X23019386Y6931179D01*
X22927302Y6931179D01*
X22920840Y7016195D01*
X22901454Y7093538D01*
X22870153Y7161793D01*
X22827948Y7219548D01*
X22775848Y7265994D01*
X22714863Y7300323D01*
X22646002Y7321527D01*
X22570275Y7328595D01*
X22495557Y7321527D01*
X22426494Y7300323D01*
X22364903Y7265994D01*
X22312601Y7219548D01*
X22270194Y7161793D01*
X22238288Y7093538D01*
X22218296Y7016195D01*
X22211632Y6931179D01*
X22116225Y6931179D01*
X22111470Y7014378D01*
X22096931Y7091115D01*
X22072900Y7158764D01*
X22039580Y7216317D01*
X21945073Y7297092D01*
X21884087Y7318296D01*
X21814216Y7325363D01*
X21736672Y7318094D01*
X21655897Y7291438D01*
X21655897Y7671082D01*
X21457189Y7637157D01*
X21255250Y7637157D01*
X21255250Y7805708D01*
X21457189Y7805708D01*
X24542811Y7805708D01*
X24744750Y7805708D01*
X24744750Y6394292D01*
G37*
G36*
X22639943Y7140186D02*
G01*
X22687399Y7093538D01*
X22714661Y7021446D01*
X22723748Y6929564D01*
X22713853Y6837480D01*
X22684168Y6764782D01*
X22635097Y6717528D01*
X22567044Y6701777D01*
X22497375Y6717528D01*
X22449919Y6764782D01*
X22422658Y6837480D01*
X22413570Y6929564D01*
X22423465Y7021446D01*
X22453150Y7093538D01*
X22502221Y7140186D01*
X22570275Y7155735D01*
X22639943Y7140186D01*
G37*
G36*
X23447698Y7140186D02*
G01*
X23495153Y7093538D01*
X23522415Y7021446D01*
X23531502Y6929564D01*
X23521607Y6837480D01*
X23491922Y6764782D01*
X23442851Y6717528D01*
X23374798Y6701777D01*
X23305129Y6717528D01*
X23257674Y6764782D01*
X23230412Y6837480D01*
X23221325Y6929564D01*
X23231220Y7021446D01*
X23260905Y7093538D01*
X23309976Y7140186D01*
X23378029Y7155735D01*
X23447698Y7140186D01*
G37*
G36*
X21835824Y7139984D02*
G01*
X21879645Y7097577D01*
X21905695Y7028514D01*
X21914378Y6934410D01*
X21903069Y6826777D01*
X21869144Y6755897D01*
X21815832Y6716519D01*
X21746365Y6703393D01*
X21703554Y6705008D01*
X21655897Y6711470D01*
X21655897Y7123425D01*
X21710016Y7145234D01*
X21773829Y7154120D01*
X21835824Y7139984D01*
G37*
D11*
%TO.C,U1*%
X22000000Y19065000D02*
X21400000Y19065000D01*
X22000000Y19065000D02*
X22600000Y19065000D01*
X22000000Y20935000D02*
X21400000Y20935000D01*
X22000000Y20935000D02*
X22600000Y20935000D01*
X20690000Y20500000D02*
X20360000Y20260000D01*
X20360000Y20740000D01*
X20690000Y20500000D01*
G36*
X20690000Y20500000D02*
G01*
X20360000Y20260000D01*
X20360000Y20740000D01*
X20690000Y20500000D01*
G37*
D12*
%TO.C,J1*%
X25960000Y15819000D02*
X25960000Y16391000D01*
X37969000Y15819000D02*
X25960000Y15819000D01*
X25970000Y16343000D02*
X25970000Y17032000D01*
X25970000Y17468000D02*
X25970000Y17532000D01*
X25970000Y17968000D02*
X25970000Y18032000D01*
X25970000Y18468000D02*
X25970000Y18532000D01*
X25970000Y18968000D02*
X25970000Y19032000D01*
X25970000Y19468000D02*
X25970000Y19532000D01*
X25970000Y19968000D02*
X25970000Y20032000D01*
X25970000Y20468000D02*
X25970000Y20532000D01*
X25970000Y20968000D02*
X25970000Y21032000D01*
X25970000Y21468000D02*
X25970000Y21532000D01*
X25970000Y21968000D02*
X25970000Y22032000D01*
X25970000Y22468000D02*
X25970000Y22532000D01*
X25970000Y22968000D02*
X25970000Y23657000D01*
X25975000Y24181000D02*
X37969000Y24181000D01*
X37969000Y24181000D02*
X37969000Y15819000D01*
D11*
%TO.C,R1*%
X22237258Y21977500D02*
X21762742Y21977500D01*
X22237258Y23022500D02*
X21762742Y23022500D01*
%TO.C,L2*%
X8010000Y10162779D02*
X8010000Y9837221D01*
X6990000Y10162779D02*
X6990000Y9837221D01*
%TO.C,C16*%
X6865580Y6990000D02*
X6584420Y6990000D01*
X6865580Y8010000D02*
X6584420Y8010000D01*
%TO.C,C17*%
X3765580Y5390000D02*
X3484420Y5390000D01*
X3765580Y6410000D02*
X3484420Y6410000D01*
%TO.C,AE1*%
X13500000Y1700000D02*
X13300000Y1500000D01*
X13500000Y2300000D02*
X14000000Y2300000D01*
X13500000Y2300000D02*
X13500000Y1700000D01*
X13500000Y3700000D02*
X14000000Y3700000D01*
X13500000Y4500000D02*
X13500000Y3700000D01*
X13300000Y4500000D02*
X13500000Y4500000D01*
X10700000Y1500000D02*
X10500000Y1500000D01*
X10500000Y1500000D02*
X10500000Y2300000D01*
X10500000Y3700000D02*
X10500000Y4500000D01*
X10500000Y4500000D02*
X10700000Y4500000D01*
%TO.C,L3*%
X6549721Y5390000D02*
X6875279Y5390000D01*
X6549721Y6410000D02*
X6875279Y6410000D01*
%TO.C,C10*%
X13710000Y11640580D02*
X13710000Y11359420D01*
X12690000Y11640580D02*
X12690000Y11359420D01*
%TO.C,R4*%
X18522500Y11737258D02*
X18522500Y11262742D01*
X17477500Y11737258D02*
X17477500Y11262742D01*
%TO.C,R3*%
X29022500Y11762742D02*
X29022500Y12237258D01*
X27977500Y11762742D02*
X27977500Y12237258D01*
%TO.C,C12*%
X12010000Y7640580D02*
X12010000Y7359420D01*
X10990000Y7640580D02*
X10990000Y7359420D01*
%TO.C,SW1*%
X21600000Y2350000D02*
X21600000Y5650000D01*
X21900000Y2350000D02*
X21600000Y2350000D01*
X24100000Y2350000D02*
X24400000Y2350000D01*
X24400000Y2350000D02*
X24400000Y5650000D01*
X21600000Y5650000D02*
X21900000Y5650000D01*
X24400000Y5650000D02*
X24100000Y5650000D01*
%TO.C,R7*%
X18522500Y37237258D02*
X18522500Y36762742D01*
X17477500Y37237258D02*
X17477500Y36762742D01*
%TO.C,D1*%
X2265000Y35485000D02*
X2265000Y33200000D01*
X3735000Y35485000D02*
X2265000Y35485000D01*
X3735000Y33200000D02*
X3735000Y35485000D01*
D10*
%TO.C,kibuzzard-68627140*%
G36*
X3420679Y36810985D02*
G01*
X3486914Y36735864D01*
X3520840Y36627625D01*
X3530533Y36501616D01*
X3527504Y36430331D01*
X3518417Y36365105D01*
X3478029Y36257674D01*
X3403716Y36186591D01*
X3289822Y36160743D01*
X3272052Y36160743D01*
X3254281Y36162359D01*
X3254281Y36834410D01*
X3283360Y36838449D01*
X3312439Y36839257D01*
X3420679Y36810985D01*
G37*
G36*
X4176737Y35853258D02*
G01*
X3732472Y35853258D01*
X3268821Y35853258D01*
X2262359Y35853258D01*
X2095961Y35853258D01*
X1467528Y35853258D01*
X1023263Y35853258D01*
X1023263Y36000808D01*
X1467528Y36000808D01*
X2095961Y36000808D01*
X2262359Y36000808D01*
X2903716Y36000808D01*
X2903716Y36165590D01*
X2461066Y36165590D01*
X2461066Y36446688D01*
X2814863Y36446688D01*
X2814863Y36611470D01*
X2461066Y36611470D01*
X2461066Y36836026D01*
X2868174Y36836026D01*
X2868174Y36987884D01*
X3055574Y36987884D01*
X3055574Y36012116D01*
X3164620Y35993538D01*
X3268821Y35987884D01*
X3366357Y35994952D01*
X3455412Y36016155D01*
X3534370Y36052706D01*
X3601616Y36105816D01*
X3656341Y36176292D01*
X3697738Y36264943D01*
X3723788Y36372981D01*
X3732472Y36501616D01*
X3724596Y36627423D01*
X3700969Y36733441D01*
X3663207Y36821082D01*
X3612924Y36891761D01*
X3550121Y36945679D01*
X3474798Y36983037D01*
X3388974Y37004847D01*
X3294669Y37012116D01*
X3183199Y37007270D01*
X3055574Y36987884D01*
X2868174Y36987884D01*
X2868174Y37000808D01*
X2262359Y37000808D01*
X2262359Y36000808D01*
X2095961Y36000808D01*
X2095961Y36165590D01*
X1667851Y36165590D01*
X1667851Y37000808D01*
X1467528Y37000808D01*
X1467528Y36000808D01*
X1023263Y36000808D01*
X1023263Y37146742D01*
X1467528Y37146742D01*
X3732472Y37146742D01*
X4176737Y37146742D01*
X4176737Y35853258D01*
G37*
D11*
%TO.C,SW2*%
X20400000Y5650000D02*
X20100000Y5650000D01*
X17600000Y5650000D02*
X17900000Y5650000D01*
X20400000Y2350000D02*
X20400000Y5650000D01*
X20100000Y2350000D02*
X20400000Y2350000D01*
X17900000Y2350000D02*
X17600000Y2350000D01*
X17600000Y2350000D02*
X17600000Y5650000D01*
%TO.C,C21*%
X2640580Y14510000D02*
X2359420Y14510000D01*
X2640580Y13490000D02*
X2359420Y13490000D01*
%TO.C,R2*%
X25862742Y8777500D02*
X26337258Y8777500D01*
X25862742Y9822500D02*
X26337258Y9822500D01*
%TO.C,Y1*%
X4150000Y19000000D02*
X850000Y19000000D01*
X850000Y19000000D02*
X850000Y15000000D01*
%TO.C,C5*%
X6010000Y15140580D02*
X6010000Y14859420D01*
X4990000Y15140580D02*
X4990000Y14859420D01*
D13*
%TO.C,U5*%
X4946000Y27246000D02*
X4946000Y27627000D01*
D11*
X5200000Y38500000D02*
X7200000Y38500000D01*
X5200000Y27500000D02*
X5200000Y38500000D01*
D13*
X5327000Y27246000D02*
X4946000Y27246000D01*
D11*
X6000000Y27500000D02*
X5200000Y27500000D01*
X12200000Y38500000D02*
X16800000Y38500000D01*
X16800000Y38500000D02*
X16800000Y27500000D01*
X16800000Y27500000D02*
X16000000Y27500000D01*
X6740000Y26370000D02*
X6260000Y26370000D01*
X6500000Y26700000D01*
X6740000Y26370000D01*
G36*
X6740000Y26370000D02*
G01*
X6260000Y26370000D01*
X6500000Y26700000D01*
X6740000Y26370000D01*
G37*
%TO.C,C4*%
X14190000Y7640580D02*
X14190000Y7359420D01*
X15210000Y7640580D02*
X15210000Y7359420D01*
%TO.C,C3*%
X23140580Y8790000D02*
X22859420Y8790000D01*
X23140580Y9810000D02*
X22859420Y9810000D01*
%TO.C,C8*%
X5640580Y20810000D02*
X5359420Y20810000D01*
X5640580Y19790000D02*
X5359420Y19790000D01*
D10*
%TO.C,kibuzzard-6862710F*%
G36*
X4202342Y38228352D02*
G01*
X4258481Y38200485D01*
X4294830Y38152827D01*
X4306947Y38084168D01*
X4261712Y37971890D01*
X4202342Y37942205D01*
X4114701Y37932310D01*
X4071082Y37932310D01*
X4071082Y38232795D01*
X4103393Y38236834D01*
X4130856Y38237641D01*
X4202342Y38228352D01*
G37*
G36*
X4978998Y37243565D02*
G01*
X4575121Y37243565D01*
X3079160Y37243565D01*
X2544426Y37243565D01*
X1762520Y37243565D01*
X1424879Y37243565D01*
X1021002Y37243565D01*
X1021002Y37761066D01*
X1424879Y37761066D01*
X1428918Y37677868D01*
X1441034Y37602746D01*
X1462843Y37536914D01*
X1495961Y37481583D01*
X1600162Y37404847D01*
X1673465Y37384855D01*
X1762520Y37378191D01*
X1852989Y37384855D01*
X1927302Y37404847D01*
X1987076Y37437359D01*
X2004832Y37454120D01*
X2234249Y37454120D01*
X2345719Y37404847D01*
X2432553Y37384855D01*
X2544426Y37378191D01*
X2657781Y37386717D01*
X2702822Y37399192D01*
X3079160Y37399192D01*
X3720517Y37399192D01*
X3720517Y37563974D01*
X3277868Y37563974D01*
X3277868Y37845073D01*
X3631664Y37845073D01*
X3631664Y38009855D01*
X3277868Y38009855D01*
X3277868Y38234410D01*
X3684976Y38234410D01*
X3684976Y38384653D01*
X3872375Y38384653D01*
X3872375Y37399192D01*
X4071082Y37399192D01*
X4071082Y37767528D01*
X4174475Y37767528D01*
X4229200Y37676050D01*
X4280291Y37585784D01*
X4326535Y37494305D01*
X4366721Y37399192D01*
X4575121Y37399192D01*
X4529079Y37505008D01*
X4473344Y37616478D01*
X4413570Y37723102D01*
X4355412Y37815994D01*
X4426090Y37861632D01*
X4473344Y37924233D01*
X4500000Y37999354D01*
X4508885Y38082553D01*
X4502221Y38161107D01*
X4482229Y38228756D01*
X4405493Y38331341D01*
X4350565Y38366478D01*
X4285945Y38391115D01*
X4212439Y38405654D01*
X4130856Y38410501D01*
X4074313Y38408885D01*
X4006462Y38404847D01*
X3936187Y38396769D01*
X3872375Y38384653D01*
X3684976Y38384653D01*
X3684976Y38399192D01*
X3079160Y38399192D01*
X3079160Y37399192D01*
X2702822Y37399192D01*
X2750135Y37412296D01*
X2821486Y37454927D01*
X2889943Y37547617D01*
X2912763Y37672213D01*
X2905897Y37747536D01*
X2885299Y37808724D01*
X2815024Y37899192D01*
X2721325Y37957351D01*
X2623586Y37996931D01*
X2561389Y38021163D01*
X2504847Y38051050D01*
X2463651Y38089822D01*
X2447496Y38140711D01*
X2465087Y38204434D01*
X2517860Y38242667D01*
X2605816Y38255412D01*
X2719709Y38239257D01*
X2809370Y38200485D01*
X2867528Y38353958D01*
X2752019Y38400808D01*
X2677504Y38416559D01*
X2591276Y38421809D01*
X2492281Y38413014D01*
X2408544Y38386627D01*
X2340065Y38342649D01*
X2271607Y38248142D01*
X2248788Y38122940D01*
X2274637Y38004200D01*
X2340065Y37924233D01*
X2428110Y37870921D01*
X2521809Y37833764D01*
X2589661Y37805493D01*
X2651050Y37771567D01*
X2696284Y37728756D01*
X2714055Y37673829D01*
X2706785Y37626171D01*
X2680129Y37584168D01*
X2627625Y37555089D01*
X2544426Y37544588D01*
X2463853Y37550242D01*
X2396607Y37567205D01*
X2292407Y37615670D01*
X2234249Y37454120D01*
X2004832Y37454120D01*
X2033926Y37481583D01*
X2068255Y37536914D01*
X2090468Y37602746D01*
X2102585Y37677868D01*
X2106624Y37761066D01*
X2106624Y38399192D01*
X1907916Y38399192D01*
X1907916Y37775606D01*
X1901454Y37669790D01*
X1878837Y37600323D01*
X1835218Y37562359D01*
X1765751Y37551050D01*
X1696284Y37562359D01*
X1653473Y37599515D01*
X1631664Y37668174D01*
X1625202Y37773990D01*
X1625202Y38399192D01*
X1424879Y38399192D01*
X1424879Y37761066D01*
X1021002Y37761066D01*
X1021002Y38556435D01*
X1424879Y38556435D01*
X4575121Y38556435D01*
X4978998Y38556435D01*
X4978998Y37243565D01*
G37*
D11*
%TO.C,C19*%
X25990000Y29859420D02*
X25990000Y30140580D01*
X27010000Y29859420D02*
X27010000Y30140580D01*
%TO.C,C20*%
X2359420Y20510000D02*
X2640580Y20510000D01*
X2359420Y19490000D02*
X2640580Y19490000D01*
%TO.C,C15*%
X6865580Y13010000D02*
X6584420Y13010000D01*
X6865580Y11990000D02*
X6584420Y11990000D01*
%TO.C,U3*%
X9040000Y15390000D02*
X8630000Y15390000D01*
X15610000Y15390000D02*
X14960000Y15390000D01*
X8390000Y16040000D02*
X8390000Y15690000D01*
X15610000Y16040000D02*
X15610000Y15390000D01*
X8390000Y21960000D02*
X8390000Y22610000D01*
X15610000Y21960000D02*
X15610000Y22610000D01*
X8390000Y22610000D02*
X9040000Y22610000D01*
X15610000Y22610000D02*
X14960000Y22610000D01*
X8390000Y15390000D02*
X8060000Y15150000D01*
X8060000Y15630000D01*
X8390000Y15390000D01*
G36*
X8390000Y15390000D02*
G01*
X8060000Y15150000D01*
X8060000Y15630000D01*
X8390000Y15390000D01*
G37*
%TO.C,R5*%
X15322500Y11737258D02*
X15322500Y11262742D01*
X14277500Y11737258D02*
X14277500Y11262742D01*
%TO.C,R6*%
X2477500Y30262742D02*
X2477500Y30737258D01*
X3522500Y30262742D02*
X3522500Y30737258D01*
%TO.C,C18*%
X27690000Y29859420D02*
X27690000Y30140580D01*
X28710000Y29859420D02*
X28710000Y30140580D01*
%TO.C,C6*%
X7610000Y15140580D02*
X7610000Y14859420D01*
X6590000Y15140580D02*
X6590000Y14859420D01*
%TO.C,U4*%
X19740000Y35760000D02*
X20010000Y35760000D01*
X19740000Y33000000D02*
X19740000Y35760000D01*
X19740000Y33000000D02*
X19740000Y30240000D01*
X19740000Y30240000D02*
X20010000Y30240000D01*
X25260000Y35760000D02*
X24990000Y35760000D01*
X25260000Y33000000D02*
X25260000Y35760000D01*
X25260000Y33000000D02*
X25260000Y30240000D01*
X25260000Y30240000D02*
X24990000Y30240000D01*
X25320000Y36285000D02*
X24990000Y36525000D01*
X25320000Y36765000D01*
X25320000Y36285000D01*
G36*
X25320000Y36285000D02*
G01*
X24990000Y36525000D01*
X25320000Y36765000D01*
X25320000Y36285000D01*
G37*
%TO.C,C13*%
X10410000Y7640580D02*
X10410000Y7359420D01*
X9390000Y7640580D02*
X9390000Y7359420D01*
%TO.C,C14*%
X12010000Y11640580D02*
X12010000Y11359420D01*
X10990000Y11640580D02*
X10990000Y11359420D01*
%TO.C,C9*%
X16910000Y11640580D02*
X16910000Y11359420D01*
X15890000Y11640580D02*
X15890000Y11359420D01*
%TO.C,C1*%
X23140580Y12490000D02*
X22859420Y12490000D01*
X23140580Y13510000D02*
X22859420Y13510000D01*
%TO.C,C2*%
X23140580Y10490000D02*
X22859420Y10490000D01*
X23140580Y11510000D02*
X22859420Y11510000D01*
%TO.C,C7*%
X18359420Y18010000D02*
X18640580Y18010000D01*
X18359420Y16990000D02*
X18640580Y16990000D01*
%TO.C,L1*%
X10410000Y11337221D02*
X10410000Y11662779D01*
X9390000Y11337221D02*
X9390000Y11662779D01*
%TO.C,U2*%
X27110000Y11000000D02*
X27110000Y13000000D01*
X24890000Y11000000D02*
X24890000Y13000000D01*
X24990000Y10480000D02*
X24710000Y10760000D01*
X24990000Y10760000D01*
X24990000Y10480000D01*
G36*
X24990000Y10480000D02*
G01*
X24710000Y10760000D01*
X24990000Y10760000D01*
X24990000Y10480000D01*
G37*
%TO.C,C11*%
X13610000Y7640580D02*
X13610000Y7359420D01*
X12590000Y7640580D02*
X12590000Y7359420D01*
%TD*%
M02*
